<svg version="1.2" xmlns="http://www.w3.org/2000/svg" viewBox="0 0 427 114" width="385" height="103">
	<title>мм_Монтажная область 1-svg</title>
	<style>
		.s0 { fill: #1d1d1b } 
		.s1 { fill: #010101 } 
	</style>
	<path id="Layer" class="s0" d="m70.7 113.3l2-79h7.2l15.4 68.6 15.7-68.6h7.3l1.9 79h-6l-1.5-62.9-14.9 62.9h-4.8l-14.7-62.8-1.5 62.8z"/>
	<path id="Layer" fill-rule="evenodd" class="s0" d="m124 113.3l16.4-79h7.7l16.5 79h-7.2l-3.8-21.1h-18.6l-3.9 21.1zm12-26.5h16.6l-8.4-42.6z"/>
	<path id="Layer" class="s0" d="m168.5 113.3l1.9-79h7.2l15.5 68.6 15.6-68.6h7.3l1.9 79h-6l-1.5-62.9-14.9 62.9h-4.7l-14.7-62.8-1.5 62.8z"/>
	<path id="Layer" fill-rule="evenodd" class="s0" d="m221.8 113.3l16.4-79h7.7l16.5 79h-7.2l-3.9-21.1h-18.5l-3.9 21.1zm12.1-26.5h16.5l-8.4-42.6z"/>
	<path id="Layer" class="s0" d="m266.9 113.3v-79h7.4v41.8l20.7-41.8h7l-16 34 19.5 45h-7.2l-17.1-39.5-6.9 12.9v26.6z"/>
	<path id="Layer" fill-rule="evenodd" class="s0" d="m303.4 113.3l16.4-79h7.6l16.5 79h-7.2l-3.8-21.1h-18.5l-3.9 21.1zm12-26.5h16.5l-8.3-42.6zm6.3-57.2l6.1-19h7l-9.4 19z"/>
	<path id="Layer" class="s0" d="m362.3 113.3l-18.3-79h7l14.7 65.4 13.8-65.4h6.9l-17.5 79z"/>
	<path id="Layer" fill-rule="evenodd" class="s0" d="m386.5 113.3l16.4-79h7.6l16.5 79h-7.2l-3.8-21.1h-18.5l-3.9 21.1zm12-26.5h16.5l-8.3-42.6z"/>
	<path id="Layer" fill-rule="evenodd" class="s1" d="m25.2 2.3q0.6-0.1 1.2-0.1 0.7 0 1.3 0.1 0.6 0 1.2 0.1 2 0.2 4 0.8 1.9 0.5 3.8 1.4 1.8 0.9 3.4 2.2 1.6 1.2 3 2.7 0.8 0.9 1.5 1.8 0.7 0.9 1.4 1.9 0.6 1 1.1 2.1 0.5 1 0.9 2.1l0.7 2h2.3q1.4 0 2.7-0.1 1.4-0.1 2.7-0.4 1.3-0.3 2.6-0.8 1.3-0.4 2.5-1.1 0.4-0.2 0.9-0.3 0.4-0.2 0.8-0.4 0.5-0.1 0.9-0.2 0.4-0.2 0.9-0.3 1.1-0.1 2.2 0 1.1 0.1 2.1 0.5 1 0.3 1.9 0.9 1 0.6 1.7 1.4l1 1h17.9v1.6l-0.1 1.6h-8.5-8.5v5.7h15.4c14.6 0 15.5 0 16.2-0.4q0.3-0.2 0.6-0.5 0.3-0.2 0.5-0.5 0.1-0.4 0.3-0.7 0.1-0.3 0.1-0.7 0-0.4-0.1-0.7-0.1-0.4-0.2-0.7-0.2-0.3-0.5-0.6-0.2-0.2-0.5-0.4c-0.7-0.5-1.1-0.5-6.1-0.5h-5.4v-3.2h5.8c5.5 0 5.7 0 6.8 0.5 1 0.5 1.9 1.2 2.5 2.2 0.6 0.9 0.9 2.1 1 3.2 0 1.1-0.3 2.3-0.9 3.2-0.5 1-1.4 1.8-2.4 2.4l-1.1 0.6h-16.6-16.5l-0.8 0.8q-0.7 0.6-1.5 1.1-0.9 0.5-1.8 0.8-0.9 0.4-1.8 0.5-1 0.1-2 0c-1.6 0-2-0.1-4.3-1.2q-1-0.6-2.2-1-1.1-0.4-2.3-0.7-1.2-0.3-2.4-0.4-1.2-0.1-2.4 0h-3.5l-0.5 1.4q-0.6 1.8-1.5 3.5-0.9 1.6-2.1 3.1-1.2 1.5-2.5 2.8-1.4 1.3-3 2.3-0.7 0.5-1.4 0.9-0.7 0.4-1.4 0.7-0.7 0.4-1.4 0.6-0.8 0.3-1.5 0.6c-0.6 0.1-0.9 0.6-2.9 4l-2.1 3.8v8h-3.3v-7.9l-2.1-3.8q-0.3-0.5-0.6-1-0.3-0.5-0.6-1-0.3-0.5-0.6-1-0.4-0.5-0.7-0.9-2.9-1-5.5-2.6-2.6-1.6-4.7-3.9-2.1-2.2-3.5-4.9-1.5-2.7-2.2-5.6-0.2-0.7-0.3-1.3-0.1-0.7-0.2-1.3 0-0.7 0-1.3 0-0.7 0-1.3 0-0.8 0-1.5 0-0.7 0-1.5 0.1-0.7 0.2-1.4 0.2-0.7 0.4-1.4 0.3-1.2 0.7-2.3 0.5-1.2 1-2.3 0.6-1.1 1.2-2.1 0.7-1.1 1.4-2.1 1.4-1.7 3.1-3.2 1.7-1.4 3.6-2.5 2-1.1 4.1-1.8 2.1-0.7 4.3-1 0.6-0.1 1.2-0.1zm1 3.2c0 0-0.8 0.1-1.7 0.2-4.2 0.5-8.1 2.3-11.2 5.2-3.1 2.9-5.1 6.7-5.9 10.8-0.8 4.2-0.3 8.5 1.6 12.3 1.8 3.8 4.8 6.9 8.5 8.9q0.3 0.2 0.5 0.3 0.3 0.2 0.6 0.3 0.3 0.2 0.6 0.3 0.3 0.1 0.6 0.3c0.5 0.1 0.5 0.1 0.4-1-0.3-2-1.2-3.4-4-5.7q-1.5-1.3-2.6-3-1.1-1.6-1.7-3.5-0.7-1.8-0.9-3.8-0.3-2 0-3.9 0.1-0.5 0.2-1 0.1-0.5 0.2-1 0.1-0.5 0.3-1 0.2-0.4 0.4-0.9 0.4 0.1 0.8 0.2 0.4 0.1 0.7 0.2 0.4 0.1 0.8 0.3 0.3 0.1 0.7 0.3 0 0.2-0.1 0.3 0 0.2-0.1 0.4 0 0.1-0.1 0.3 0 0.2-0.1 0.3-0.4 1.2-0.5 2.4-0.1 1.2 0 2.4 0.1 1.2 0.4 2.4 0.3 1.1 0.8 2.2 0.4 0.7 0.8 1.4 0.5 0.6 1 1.2 0.5 0.6 1 1.2 0.6 0.5 1.2 1 1 0.7 1.8 1.7 0.8 1 1.3 2.1 0.5 1.1 0.8 2.3 0.2 1.2 0.2 2.5v1.8l1.4 2.5c0.8 1.4 1.5 2.6 1.6 2.7q0.3-0.3 0.5-0.6 0.2-0.2 0.4-0.5 0.2-0.3 0.4-0.7 0.2-0.3 0.3-0.6l1.5-2.6v-1.7c-0.1-4.2 1-6.3 5.3-10q1-0.9 1.8-1.9 0.7-1.1 1.2-2.2 0.6-1.2 0.8-2.5 0.3-1.3 0.2-2.6 0.1-0.4 0-0.7 0-0.4 0-0.8 0-0.4-0.1-0.7 0-0.4-0.1-0.8-0.3-1.2-0.8-2.3-0.5-1.1-1.2-2.1-0.7-0.9-1.6-1.8-0.8-0.9-1.8-1.5-1.4-0.9-2.9-1.4-1.5-0.5-3.1-0.6-1.6 0-3.2 0.3-1.6 0.3-3 1-0.6 0.3-1.1 0.6-0.5 0.3-1 0.7-0.5 0.4-0.9 0.8-0.5 0.4-0.9 0.9l-0.6 0.7-1.2-0.9q-0.2-0.1-0.4-0.2-0.2-0.2-0.3-0.3-0.2-0.1-0.3-0.3-0.2-0.1-0.3-0.3c0-0.3 3.2-3.3 4.4-4q0.3-0.2 0.7-0.4 0.4-0.2 0.7-0.4 0.4-0.1 0.8-0.3 0.4-0.1 0.8-0.3 0.5-0.2 1-0.4 0.6-0.1 1.2-0.2 0.5-0.1 1.1-0.1 0.6-0.1 1.1 0 0.6-0.1 1.1-0.1 0.6 0 1.2 0 0.5 0.1 1.1 0.2 0.5 0.1 1 0.2c2.8 0.7 5.2 2.1 7.2 4 2 2 3.5 4.4 4.2 7.1 0.8 2.7 0.8 5.5 0.1 8.3-0.7 2.7-2.1 5.1-4 7.1-1 1-2.2 2.1-2.7 2.6q-0.5 0.4-0.9 0.8-0.3 0.5-0.6 1-0.3 0.6-0.5 1.1-0.2 0.6-0.3 1.2c-0.1 0.8 0 1 0.2 1q0.3-0.1 0.6-0.2 0.2-0.1 0.5-0.2 0.3-0.2 0.6-0.3 0.3-0.1 0.5-0.3c3.8-1.9 6.9-5 8.9-8.9 1.9-3.8 2.5-8.2 1.7-12.4-0.7-4.2-2.8-8.1-6-11-3.1-2.9-7.1-4.8-11.3-5.2zm42.9 14.2q-0.5-0.2-1-0.4-0.5-0.1-1-0.2-0.5-0.1-1-0.1-0.6 0-1.1 0-0.3 0.2-0.7 0.3-0.3 0.1-0.7 0.3-0.3 0.1-0.7 0.3-0.3 0.2-0.6 0.3-1.3 0.6-2.6 1.1-1.4 0.5-2.7 0.8-1.4 0.3-2.8 0.4-1.4 0.1-2.8 0.1h-2.1v5.7h2.7q1.4-0.1 2.7 0.1 1.3 0.1 2.6 0.4 1.3 0.3 2.6 0.7 1.3 0.5 2.5 1.1c2 1 2.2 1 4 1q0.6 0.1 1.2 0 0.6-0.1 1.2-0.3 0.5-0.3 1-0.6 0.5-0.4 0.9-0.8l0.8-0.8v-7.4l-0.7-0.7q-0.2-0.2-0.4-0.4-0.2-0.2-0.4-0.4-0.2-0.1-0.4-0.3-0.3-0.1-0.5-0.3z"/>
	<path id="Layer" class="s1" d="m13.5 64.5v1.6h3.2v-3.2h-3.2z"/>
	<path id="Layer" fill-rule="evenodd" class="s1" d="m25 66.5l1.6 0.1h1.5l0.1 1.8 0.1 1.8h16.5l-0.3 5.3 1.2-0.5c3.2-1 6.6-0.6 9.4 1.1 2.8 1.8 4.8 4.6 5.3 7.9 0.5 3.3-0.4 6.6-2.6 9.1-2.1 2.5-5.3 4-8.6 4q-0.7 0-1.4-0.1-0.6-0.1-1.3-0.2-0.6-0.2-1.3-0.5-0.6-0.2-1.2-0.6-0.1 0-0.3-0.1-0.1-0.1-0.2-0.1-0.2-0.1-0.3-0.1-0.2-0.1-0.3-0.1c0 0.1-0.1 1.4-0.2 3l-0.2 2.9h9.3v1.1q0 0.7-0.1 1.3-0.1 0.7-0.3 1.4-0.1 0.6-0.3 1.3-0.3 0.6-0.5 1.2-0.3 0.4-0.5 0.7-0.2 0.3-0.4 0.6-0.3 0.3-0.5 0.6-0.3 0.3-0.6 0.6-0.5 0.6-1.2 1.1-0.6 0.5-1.3 0.8-0.7 0.4-1.5 0.6-0.7 0.3-1.5 0.4c-2 0.3-31 0.3-33 0q-0.8-0.1-1.6-0.4-0.8-0.3-1.6-0.7-0.7-0.4-1.4-0.9-0.7-0.5-1.2-1.1-0.7-0.8-1.3-1.6-0.5-0.9-0.9-1.8-0.4-0.9-0.5-1.9-0.2-1-0.2-2v-1.3h9.2v-0.8c0-0.3-0.5-7.2-1.1-15.3-0.6-8.1-1-14.6-1-14.7 0-0.1 3.8-0.1 8.3-0.1h8.2v-1.9zm16.3 7.2c0-0.1-6.6-0.2-14.7-0.2-13.8 0-14.6 0.2-14.6 0.4 0 0.2 0.4 6.4 1 13.8l1 13.5h16.5v3.2h-25.7l0.2 0.5q0.2 0.7 0.7 1.4 0.4 0.7 0.9 1.3 0.6 0.5 1.2 1 0.7 0.4 1.4 0.7c1 0.4 2.3 0.4 17.5 0.4h16.4l1.1-0.6q0.6-0.2 1.1-0.5 0.5-0.4 0.9-0.8 0.5-0.4 0.8-0.9 0.4-0.5 0.7-1.1l0.6-1.3-7.3-0.1h-7.3v-3.2h5.4l0.1-0.8c0.1-0.5 2-26.2 2-26.7zm11 4.6q-0.6-0.2-1.2-0.3-0.6-0.2-1.3-0.2-0.6-0.1-1.3 0-0.6 0-1.3 0.1-0.4 0.2-0.8 0.4-0.4 0.1-0.8 0.3-0.3 0.2-0.7 0.5-0.4 0.2-0.7 0.5c-0.1 0.1-0.3 2.7-0.6 5.8l-0.4 5.6 0.9 0.8c0.8 0.8 1.9 1.4 3 1.7 1.2 0.4 2.4 0.4 3.5 0.2 1.2-0.2 2.3-0.7 3.3-1.4 1-0.7 1.7-1.6 2.3-2.6q0.5-0.9 0.7-1.8 0.3-0.9 0.3-1.9 0-1-0.2-1.9-0.2-1-0.6-1.9-0.3-0.6-0.8-1.2-0.4-0.6-0.9-1.1-0.5-0.5-1.2-0.9-0.6-0.4-1.2-0.7z"/>
</svg>