<svg id="Слой_1" data-name="Слой 1" xmlns="http://www.w3.org/2000/svg" viewBox="0 0 322.92 96.84"><defs><style>.cls-1{fill:#1d1d1b;}.cls-2{fill:#010101;}</style></defs><text x="-155.3" y="-112.48"/><path class="cls-1" d="M180.56,152.36l.7-28.35h2.62l5.64,24.6,5.7-24.6h2.66l.7,28.35h-2.2l-.56-22.58-5.43,22.58h-1.71l-5.36-22.54-.56,22.54Z" transform="translate(-155.3 -112.48)"/><path class="cls-1" d="M200,152.36,206,124h2.8l6,28.35h-2.63l-1.4-7.6H204l-1.44,7.6Zm4.41-9.52h6l-3-15.3Z" transform="translate(-155.3 -112.48)"/><path class="cls-1" d="M216.22,152.36l.7-28.35h2.63l5.63,24.6,5.71-24.6h2.66l.7,28.35H232l-.56-22.58-5.42,22.58h-1.72L219,129.82l-.56,22.54Z" transform="translate(-155.3 -112.48)"/><path class="cls-1" d="M235.65,152.36l6-28.35h2.8l6,28.35h-2.62l-1.4-7.6h-6.76l-1.43,7.6Zm4.41-9.52h6L243,127.54Z" transform="translate(-155.3 -112.48)"/><path class="cls-1" d="M252.1,152.36V124h2.69v15l7.56-15h2.56l-5.85,12.18,7.11,16.17h-2.63l-6.23-14.18-2.52,4.62v9.56Z" transform="translate(-155.3 -112.48)"/><path class="cls-1" d="M265.4,152.36l6-28.35h2.8l6,28.35h-2.62l-1.4-7.6h-6.76l-1.43,7.6Zm4.41-9.52h6l-3.05-15.3Zm2.31-20.51,2.2-6.83h2.56l-3.43,6.83Z" transform="translate(-155.3 -112.48)"/><path class="cls-1" d="M286.89,152.36,280.24,124h2.55l5.36,23.48,5-23.48h2.52l-6.41,28.35Z" transform="translate(-155.3 -112.48)"/><path class="cls-1" d="M295.71,152.36l6-28.35h2.8l6,28.35h-2.62l-1.4-7.6h-6.76l-1.43,7.6Zm4.41-9.52h6l-3.05-15.3Z" transform="translate(-155.3 -112.48)"/><path class="cls-2" d="M163.51,112.56a8.42,8.42,0,0,0-5.51,3,9.34,9.34,0,0,0-1.58,3.15,5.79,5.79,0,0,0-.2,2.06,6.34,6.34,0,0,0,.16,1.88,8,8,0,0,0,2.27,4,8.23,8.23,0,0,0,3.53,2.13,9.24,9.24,0,0,1,.92,1.41l.79,1.37v2.82h1.17v-2.85l.8-1.38c.7-1.23.82-1.39,1-1.44a8.09,8.09,0,0,0,2.08-1,8.28,8.28,0,0,0,3.32-4.2l.18-.51h1.27a6.48,6.48,0,0,1,3.42.75,3.27,3.27,0,0,0,1.57.44,3.35,3.35,0,0,0,2.57-.89l.29-.26,6,0,6.05,0,.39-.21a2.2,2.2,0,0,0-.08-3.94c-.38-.18-.45-.18-2.48-.18h-2.09v1.17h2c1.83,0,2,0,2.22.15a1,1,0,0,1-.07,1.74c-.25.13-.59.14-5.9.14H182v-2l3.11,0,3.1,0,0-.57,0-.56h-6.54l-.37-.39a3.48,3.48,0,0,0-2.89-1,7.6,7.6,0,0,0-1.27.43,8.1,8.1,0,0,1-3.84.84h-.85l-.25-.7a7.83,7.83,0,0,0-1.79-2.83,8,8,0,0,0-5.17-2.56A5.58,5.58,0,0,0,163.51,112.56Zm1.63,1.16a7.11,7.11,0,0,1,2.46,13.47,5.86,5.86,0,0,1-.81.35c-.09,0-.1-.09-.06-.38a2.48,2.48,0,0,1,.81-1.48c.21-.16.65-.57,1-.91a5.6,5.6,0,0,0,1.32-5.82,5.67,5.67,0,0,0-4-3.68,4.78,4.78,0,0,0-1.62-.13,4.12,4.12,0,0,0-1.62.27,8,8,0,0,0-1.09.5,7.57,7.57,0,0,0-1.59,1.46,2.25,2.25,0,0,0,.46.39l.47.33.22-.26a4.77,4.77,0,0,1,1.39-1.09,4.69,4.69,0,0,1,4.45.24,4.89,4.89,0,0,1,2,2.79,7.52,7.52,0,0,1,.08,1.09,4.38,4.38,0,0,1-1.47,3.31c-1.58,1.32-2,2.08-2,3.56v.63l-.53.92a3.28,3.28,0,0,1-.59.86s-.29-.47-.58-1l-.52-.9v-.66a3.73,3.73,0,0,0-1.48-3.09,4.73,4.73,0,0,1-1.44-1.71,4.4,4.4,0,0,1-.28-3.36,2.28,2.28,0,0,0,.14-.48,3.9,3.9,0,0,0-1.07-.37,4.55,4.55,0,0,0-.4,1.39,5.81,5.81,0,0,0,1.89,5.1c1,.84,1.36,1.34,1.45,2.06,0,.39,0,.39-.14.34a7,7,0,0,1-.85-.41,7.07,7.07,0,0,1-3.8-5.91,7.16,7.16,0,0,1,6.37-7.46l.6-.07Zm14.81,5a2.26,2.26,0,0,1,.64.47l.24.27v2.64l-.27.28a1.91,1.91,0,0,1-1.6.63,2.45,2.45,0,0,1-1.45-.37,7.7,7.7,0,0,0-3.77-.84h-1v-2h.76a9,9,0,0,0,4-.86,8.27,8.27,0,0,1,1-.42A2.91,2.91,0,0,1,180,118.76Z" transform="translate(-155.3 -112.48)"/><path class="cls-2" d="M168.26,134.25v-1.17" transform="translate(-155.3 -112.48)"/><path class="cls-2" d="M159.67,134.84v.58h1.18v-1.17h-1.18Z" transform="translate(-155.3 -112.48)"/><path class="cls-2" d="M163.89,136.24v.67h-3c-1.65,0-3,0-3,0s.15,2.39.38,5.28.4,5.37.41,5.51V148H155.3v.47a3.61,3.61,0,0,0,1,2.63,3.7,3.7,0,0,0,2.13,1.12c.74.1,11.31.1,12,0a3.43,3.43,0,0,0,2-1,4.25,4.25,0,0,0,.7-.9,4.6,4.6,0,0,0,.45-1.88V148h-3.4l.07-1c0-.57.08-1,.09-1.06a1.63,1.63,0,0,1,.41.17,3.76,3.76,0,0,0,1.89.47,4,4,0,0,0,3.71-5.78,4.1,4.1,0,0,0-5-2.14l-.45.16.05-.94.06-.93h-6l0-.65,0-.64-.56,0-.57,0Zm5.93,1.89c0,.21-.71,9.4-.75,9.61l0,.25h-1.95v1.18h2.66l2.66,0-.24.49a2.42,2.42,0,0,1-1.25,1.19l-.43.2h-6c-5.55,0-6,0-6.37-.14a2.77,2.77,0,0,1-1.55-1.6l-.05-.17h9.38V148h-6.06l-.37-4.81c-.2-2.66-.37-4.89-.36-5s.3-.13,5.35-.13C167.42,138.08,169.82,138.1,169.82,138.13Zm4,1.67a3.22,3.22,0,0,1,1.51,1.41,2.93,2.93,0,0,1-.08,2.67,2.87,2.87,0,0,1-4.43.76l-.32-.28.16-2c.1-1.11.18-2.05.21-2.09a3.61,3.61,0,0,1,1.11-.59A3.36,3.36,0,0,1,173.84,139.8Z" transform="translate(-155.3 -112.48)"/></svg>