<svg id="Слой_1" data-name="Слой 1" xmlns="http://www.w3.org/2000/svg" viewBox="0 0 274.9 288.77"><defs><style>.cls-1{fill:#4e4d4d;}.cls-2{fill:#fff;}</style></defs><path class="cls-1" d="M388,406.18c-3.23-4.14-16-21.64-16.16-40-.12-13.8-3.92-20.77-6.52-23.93a3,3,0,0,0-4.26-.41c-6,5-12.75,2.11-15.29.69a2.94,2.94,0,0,0-2.32-.24l-21.25,6.49c-25.41-11-46.56-12.25-53.72-12.31a1.5,1.5,0,0,0-1.3,2.27l9.17,15.61h-2.08a2.26,2.26,0,0,0-2.18,1.67l-2.55,9.58a2.24,2.24,0,0,0,2.17,2.83h5l-1,2.82h0a43.51,43.51,0,0,0-22.82,20.46c-12.9,25.22-5.63,45.24-1.53,53.23a17.27,17.27,0,0,0,7.9,7.81c13.23,6.22,38.42,6.13,38.42,6.13s25.19.09,38.42-6.13a17.2,17.2,0,0,0,7.89-7.81c4.11-8,11.37-28-1.53-53.23a43.53,43.53,0,0,0-22.81-20.46h0l-1-2.82h5a2.25,2.25,0,0,0,2.25-2.36L340.19,363a3.08,3.08,0,0,0,1.44-.78c5-4.73,9.59-5.52,13.08-5a8.77,8.77,0,0,1,7.2,7.68c3.21,24.79,19.67,39.7,24,43.27a1.43,1.43,0,0,0,2-.15A1.41,1.41,0,0,0,388,406.18Z" transform="translate(-160.19 -252.96)"/><path class="cls-2" d="M339.75,393.07a40.51,40.51,0,0,0-21.23-19l-1.29-.5-2-5.74H280.05l-2,5.74-1.3.5a40.52,40.52,0,0,0-21.22,19Z" transform="translate(-160.19 -252.96)"/><path class="cls-2" d="M329.43,393.07h-7.69l.21.22c5.52,6.44,8.75,15.31,10,23.59a45,45,0,0,1-3,23.93,46.32,46.32,0,0,0,5.14-13.4,52.37,52.37,0,0,0-2.52-29.25C331,396.41,330.24,394.71,329.43,393.07Z" transform="translate(-160.19 -252.96)"/><path class="cls-2" d="M318.52,374a42.24,42.24,0,0,1,17.21,12.47c5.26,6.5,8.47,14.86,10.15,23a53.86,53.86,0,0,1-1,26.18c-1.18,4-2.72,8.36-5.55,11.49s-7.08,4.57-11.12,5.68c-8.73,2.39-18,3.19-27,3.49a130.51,130.51,0,0,1-27.83-2.08,56.9,56.9,0,0,1-12.54-3.59c-3.84-1.67-6.29-4.78-8-8.49a52.17,52.17,0,0,1-4.4-26.46c1.49-16.12,9.44-32.33,24.29-39.9,1.31-.66,2.65-1.23,4-1.78A42.13,42.13,0,0,0,260,386.54c-5.11,6.46-8.25,14.76-9.9,22.77a53.41,53.41,0,0,0,1,25.89c1.16,3.89,2.66,8.22,5.42,11.28s6.87,4.39,10.77,5.44c8.68,2.33,17.84,3.06,26.79,3.31a137,137,0,0,0,27.36-1.9,57.43,57.43,0,0,0,12.61-3.5c3.84-1.63,6.14-4.8,7.81-8.49a51.54,51.54,0,0,0,4.25-25.73c-1.42-15.9-9.13-32-23.63-39.72C321.2,375.2,319.87,374.61,318.52,374Z" transform="translate(-160.19 -252.96)"/><path class="cls-2" d="M269.43,338.68c14.6-.72,29.63,3,43,8.54C298.29,343.2,284.13,340,269.43,338.68Z" transform="translate(-160.19 -252.96)"/><path class="cls-2" d="M327.29,348.77l15.31-4.88a6.76,6.76,0,0,1,1.86-.45,2.22,2.22,0,0,1,1,.37l.86.42a18.6,18.6,0,0,0,3.75,1.28,13.05,13.05,0,0,0,10.3-1.68c.31-.21.62-.42.92-.65a5.28,5.28,0,0,1,1-.72,1.81,1.81,0,0,1,1.39,0,2.28,2.28,0,0,1,1,.86,17.84,17.84,0,0,1,1.35,2,31,31,0,0,1,3.43,9,53.7,53.7,0,0,1,1.17,9.57c0,1.59.08,3.14.15,4.69s.25,3,.51,4.52a58,58,0,0,0,2,8.4,66.35,66.35,0,0,0,2.74,7.25,90.39,90.39,0,0,0,5.33,10.33c1.45,2.41,2.35,3.74,2.35,3.74s-.93-1.31-2.45-3.68a85.13,85.13,0,0,1-5.6-10.22,71.84,71.84,0,0,1-2.87-7.26,53.12,53.12,0,0,1-2.11-8.46,45.32,45.32,0,0,1-.55-4.59c-.07-1.54-.13-3.13-.17-4.7a53.13,53.13,0,0,0-1.2-9.44,30.74,30.74,0,0,0-3.3-8.84,18.09,18.09,0,0,0-1.3-1.93,1.68,1.68,0,0,0-.72-.67,1.27,1.27,0,0,0-.9,0,6.11,6.11,0,0,0-.87.64c-.31.24-.63.46-1,.67a14,14,0,0,1-2.06,1.09,13.85,13.85,0,0,1-8.7.57,18.9,18.9,0,0,1-3.83-1.37l-.87-.45a1.81,1.81,0,0,0-.79-.32,7.06,7.06,0,0,0-1.7.4Z" transform="translate(-160.19 -252.96)"/><polygon class="cls-2" points="116.13 101.37 143.21 101.37 115.33 100 116.13 101.37"/><path class="cls-2" d="M339.75,353.71a2,2,0,1,1-2-2A2,2,0,0,1,339.75,353.71Z" transform="translate(-160.19 -252.96)"/><path class="cls-2" d="M331.35,356.43a2,2,0,1,1-2-2A2,2,0,0,1,331.35,356.43Z" transform="translate(-160.19 -252.96)"/><path class="cls-1" d="M262.29,390.71a1.22,1.22,0,0,1-2.35.68,1.22,1.22,0,0,1,2.35-.68Z" transform="translate(-160.19 -252.96)"/><path class="cls-1" d="M276.68,390.71a1.22,1.22,0,1,1-1.51-.83A1.22,1.22,0,0,1,276.68,390.71Z" transform="translate(-160.19 -252.96)"/><path class="cls-1" d="M284.57,388.11a1.22,1.22,0,1,1-1.51-.83A1.21,1.21,0,0,1,284.57,388.11Z" transform="translate(-160.19 -252.96)"/><path class="cls-1" d="M291.7,388.28a1.22,1.22,0,1,1-1.51-.83A1.21,1.21,0,0,1,291.7,388.28Z" transform="translate(-160.19 -252.96)"/><path class="cls-1" d="M298.81,387.49a1.22,1.22,0,1,1-1.51-.83A1.22,1.22,0,0,1,298.81,387.49Z" transform="translate(-160.19 -252.96)"/><path class="cls-1" d="M306.76,388.11a1.22,1.22,0,1,1-1.51-.83A1.21,1.21,0,0,1,306.76,388.11Z" transform="translate(-160.19 -252.96)"/><path class="cls-1" d="M311.52,390.5a1.22,1.22,0,1,1-1.52-.84A1.23,1.23,0,0,1,311.52,390.5Z" transform="translate(-160.19 -252.96)"/><path class="cls-1" d="M319.32,387.45a1.22,1.22,0,1,1-1.51-.83A1.22,1.22,0,0,1,319.32,387.45Z" transform="translate(-160.19 -252.96)"/><path class="cls-1" d="M333.26,390.05a1.22,1.22,0,1,1-1.51-.83A1.21,1.21,0,0,1,333.26,390.05Z" transform="translate(-160.19 -252.96)"/><path class="cls-1" d="M269.28,391.09a.79.79,0,0,1-.53,1,.8.8,0,0,1-1-.54.79.79,0,1,1,1.51-.43Z" transform="translate(-160.19 -252.96)"/><path class="cls-1" d="M262.65,387a.79.79,0,0,1-.53,1,.78.78,0,0,1-1-.54.77.77,0,0,1,.53-1A.78.78,0,0,1,262.65,387Z" transform="translate(-160.19 -252.96)"/><path class="cls-1" d="M270.18,386.48a.78.78,0,0,1-.53,1,.79.79,0,0,1-1-.53.78.78,0,0,1,.54-1A.77.77,0,0,1,270.18,386.48Z" transform="translate(-160.19 -252.96)"/><path class="cls-1" d="M290.82,391.61a.79.79,0,0,1-.54,1,.79.79,0,0,1-.44-1.51A.8.8,0,0,1,290.82,391.61Z" transform="translate(-160.19 -252.96)"/><path class="cls-1" d="M276.26,387a.78.78,0,1,1-1-.53A.78.78,0,0,1,276.26,387Z" transform="translate(-160.19 -252.96)"/><path class="cls-1" d="M288.15,387.26a.79.79,0,1,1-1-.53A.79.79,0,0,1,288.15,387.26Z" transform="translate(-160.19 -252.96)"/><path class="cls-1" d="M300.54,389.6a.78.78,0,0,1-1.5.44.78.78,0,0,1,1.5-.44Z" transform="translate(-160.19 -252.96)"/><path class="cls-1" d="M302.65,387.9a.79.79,0,1,1-1-.53A.78.78,0,0,1,302.65,387.9Z" transform="translate(-160.19 -252.96)"/><path class="cls-1" d="M307.72,390.83a.79.79,0,1,1-1-.53A.78.78,0,0,1,307.72,390.83Z" transform="translate(-160.19 -252.96)"/><path class="cls-1" d="M310.16,387.9a.79.79,0,1,1-1-.53A.77.77,0,0,1,310.16,387.9Z" transform="translate(-160.19 -252.96)"/><path class="cls-1" d="M314.27,391.2a.78.78,0,0,1-.54,1,.77.77,0,0,1-1-.53.79.79,0,0,1,1.51-.44Z" transform="translate(-160.19 -252.96)"/><path class="cls-1" d="M328.9,390.83a.79.79,0,1,1-1-.53A.77.77,0,0,1,328.9,390.83Z" transform="translate(-160.19 -252.96)"/><path class="cls-1" d="M336.09,390.17a.79.79,0,1,1-1-.53A.77.77,0,0,1,336.09,390.17Z" transform="translate(-160.19 -252.96)"/><path class="cls-1" d="M317.55,390.62a.79.79,0,0,1-1.51.44.79.79,0,1,1,1.51-.44Z" transform="translate(-160.19 -252.96)"/><path class="cls-1" d="M325.55,390.62a.77.77,0,0,1-.53,1,.79.79,0,1,1,.53-1Z" transform="translate(-160.19 -252.96)"/><path class="cls-1" d="M331.63,387.62a.79.79,0,1,1-1-.54A.8.8,0,0,1,331.63,387.62Z" transform="translate(-160.19 -252.96)"/><path class="cls-1" d="M322.93,387.57a.79.79,0,1,1-1-.53A.78.78,0,0,1,322.93,387.57Z" transform="translate(-160.19 -252.96)"/><path class="cls-1" d="M297.61,391.2a.78.78,0,0,1-.54,1,.77.77,0,0,1-1-.53.79.79,0,0,1,1.51-.44Z" transform="translate(-160.19 -252.96)"/><path class="cls-1" d="M281.68,391.2a.79.79,0,1,1-1-.53A.77.77,0,0,1,281.68,391.2Z" transform="translate(-160.19 -252.96)"/><path class="cls-1" d="M266.81,388.9a1.51,1.51,0,1,1-1.88-1A1.53,1.53,0,0,1,266.81,388.9Z" transform="translate(-160.19 -252.96)"/><path class="cls-1" d="M273.48,388.9a1.52,1.52,0,1,1-1.88-1A1.53,1.53,0,0,1,273.48,388.9Z" transform="translate(-160.19 -252.96)"/><path class="cls-1" d="M288.06,390.63a1.51,1.51,0,1,1-1.87-1A1.51,1.51,0,0,1,288.06,390.63Z" transform="translate(-160.19 -252.96)"/><path class="cls-1" d="M280.91,387.7a1.5,1.5,0,0,1-1,1.87,1.51,1.51,0,1,1-.85-2.9A1.5,1.5,0,0,1,280.91,387.7Z" transform="translate(-160.19 -252.96)"/><path class="cls-1" d="M295.62,389.4a1.5,1.5,0,0,1-1,1.87,1.51,1.51,0,1,1-.85-2.9A1.5,1.5,0,0,1,295.62,389.4Z" transform="translate(-160.19 -252.96)"/><path class="cls-1" d="M304.14,390.41a1.52,1.52,0,1,1-1.88-1A1.52,1.52,0,0,1,304.14,390.41Z" transform="translate(-160.19 -252.96)"/><path class="cls-1" d="M315,388a1.51,1.51,0,0,1-2.9.85A1.51,1.51,0,1,1,315,388Z" transform="translate(-160.19 -252.96)"/><path class="cls-1" d="M328.74,387.7a1.5,1.5,0,0,1-1,1.87,1.51,1.51,0,1,1-.85-2.9A1.5,1.5,0,0,1,328.74,387.7Z" transform="translate(-160.19 -252.96)"/><path class="cls-1" d="M322.25,390a1.51,1.51,0,1,1-1.88-1A1.51,1.51,0,0,1,322.25,390Z" transform="translate(-160.19 -252.96)"/><path class="cls-1" d="M432.16,385.63a18.7,18.7,0,0,0-3.59-4.45,9.81,9.81,0,0,0-13.08,0,19,19,0,0,0-3.57,4.43,28.07,28.07,0,0,0,0,24.91,16.2,16.2,0,0,0,1.21,1.77,11.36,11.36,0,0,0,17.82,0,16.75,16.75,0,0,0,1.23-1.8,28,28,0,0,0,0-24.91Z" transform="translate(-160.19 -252.96)"/><path class="cls-2" d="M425.6,380.29c4.32,2.24,7,6.69,8.08,11.33a27.34,27.34,0,0,1-1.17,16.51,13.78,13.78,0,0,1-4.08,5.47c3.52-3,4.93-7.86,5.36-12.26.53-5.37-.11-11.31-3.06-15.95A15.26,15.26,0,0,0,425.6,380.29Z" transform="translate(-160.19 -252.96)"/><path class="cls-2" d="M423.25,382l-.09.4c0,.26-.11.63-.16,1.12a30.58,30.58,0,0,0,0,4.06c0,.84,0,1.76.1,2.71a12.41,12.41,0,0,0,.59,2.92,12.69,12.69,0,0,0,1.39,2.88,17.87,17.87,0,0,1,1.49,3,8.32,8.32,0,0,1,.45,3.39,18.51,18.51,0,0,1-.58,3.22c-.26,1-.58,2-.89,2.91a26.25,26.25,0,0,1-.94,2.57,13.88,13.88,0,0,1-2.16,3.46,10,10,0,0,1-.78.83l-.3.28.28-.29a11.14,11.14,0,0,0,.74-.87,15,15,0,0,0,2-3.51c.32-.78.58-1.64.86-2.57s.57-1.89.82-2.91a18,18,0,0,0,.54-3.16,8,8,0,0,0-.46-3.2,17,17,0,0,0-1.43-3,13.74,13.74,0,0,1-1.39-3,11.41,11.41,0,0,1-.55-3c0-1,0-1.88,0-2.73a26.29,26.29,0,0,1,.22-4.07c.08-.48.16-.86.23-1.12S423.25,382,423.25,382Z" transform="translate(-160.19 -252.96)"/><path class="cls-2" d="M422.39,381.2c-.63,2.39-.37,4.52-.48,7.13a13.76,13.76,0,0,0,1.41,7.27,30.06,30.06,0,0,1,2.09,4.07c.88,2.66-.32,5.73-1.05,8.4a14.44,14.44,0,0,1-3.74,7,38.45,38.45,0,0,0,1.43-6.62,15.9,15.9,0,0,0-1.2-7c-.75-2.06-2.21-3.84-2.74-6-.67-2.7.25-5.56,1.09-8.2C419.94,384.88,420.61,382.88,422.39,381.2Z" transform="translate(-160.19 -252.96)"/><path class="cls-1" d="M183.36,385.63a19,19,0,0,0-3.6-4.45,9.81,9.81,0,0,0-13.08,0,19,19,0,0,0-3.57,4.43,28.07,28.07,0,0,0,0,24.91,17.74,17.74,0,0,0,1.21,1.77,11.37,11.37,0,0,0,17.83,0,15.35,15.35,0,0,0,1.22-1.8,28,28,0,0,0,0-24.91Z" transform="translate(-160.19 -252.96)"/><path class="cls-2" d="M176.79,380.29c4.33,2.24,7,6.69,8.08,11.33a27.26,27.26,0,0,1-1.17,16.51,13.76,13.76,0,0,1-4.07,5.47c3.52-3,4.92-7.86,5.35-12.26.53-5.37-.11-11.31-3-15.95A15.29,15.29,0,0,0,176.79,380.29Z" transform="translate(-160.19 -252.96)"/><path class="cls-2" d="M174.44,382l-.08.4c-.05.26-.12.63-.17,1.12a30.58,30.58,0,0,0,0,4.06c0,.84,0,1.76.1,2.71a12.94,12.94,0,0,0,.59,2.92,13.59,13.59,0,0,0,1.39,2.88,17.15,17.15,0,0,1,1.49,3,8.32,8.32,0,0,1,.45,3.39,18.51,18.51,0,0,1-.58,3.22c-.26,1-.58,2-.89,2.91a26.25,26.25,0,0,1-.94,2.57,13.59,13.59,0,0,1-2.16,3.46,10,10,0,0,1-.78.83l-.3.28.28-.29a11.14,11.14,0,0,0,.74-.87,14.63,14.63,0,0,0,2-3.51,25.75,25.75,0,0,0,.86-2.57c.28-.92.57-1.89.83-2.91a19,19,0,0,0,.53-3.16,8.15,8.15,0,0,0-.45-3.2,18.53,18.53,0,0,0-1.43-3,13.32,13.32,0,0,1-1.4-3,11.8,11.8,0,0,1-.54-3c0-1,0-1.88,0-2.73a26.09,26.09,0,0,1,.23-4.07c.07-.48.16-.86.22-1.12S174.44,382,174.44,382Z" transform="translate(-160.19 -252.96)"/><path class="cls-2" d="M173.59,381.2c-.64,2.39-.38,4.52-.49,7.13a14,14,0,0,0,1.41,7.27,30.06,30.06,0,0,1,2.09,4.07c.88,2.66-.31,5.73-1,8.4a14.36,14.36,0,0,1-3.74,7,38.45,38.45,0,0,0,1.43-6.62,15.9,15.9,0,0,0-1.2-7c-.74-2.06-2.21-3.84-2.74-6-.67-2.7.25-5.56,1.09-8.2C171.13,384.88,171.8,382.88,173.59,381.2Z" transform="translate(-160.19 -252.96)"/><path class="cls-1" d="M167.68,334c.09-.19.28-.55.58-1.09s.61-1.1.94-1.68.65-1.14,1-1.65a5.07,5.07,0,0,1,.61-.9,15.07,15.07,0,0,1,2.36-.32,4.32,4.32,0,0,1,2.25.46l.48.29c-.77,1-1.45,1.78-2,2.5a12.71,12.71,0,0,0-1.69,2.81,12,12,0,0,0-1.23,5.5,9.2,9.2,0,0,0,1.28,4.32,11.59,11.59,0,0,0,2.88,3.21,20.83,20.83,0,0,0,3.56,2.24,21.88,21.88,0,0,0,5.09,1.68,17.08,17.08,0,0,0,5.53.18,16.35,16.35,0,0,0,5.55-1.78,16.54,16.54,0,0,0,5.1-4.24,10.62,10.62,0,0,0,1.5-2.23,8.29,8.29,0,0,1,1.63-2.17,5.41,5.41,0,0,1,.73.88,1.63,1.63,0,0,1,.25.81,2.6,2.6,0,0,1-.18,1c-.13.36-.32.82-.58,1.4a14.58,14.58,0,0,1-2.78,4.15,40.34,40.34,0,0,1-3.55,3.24,18.84,18.84,0,0,1-6.21,3.47,19.55,19.55,0,0,1-6.2.94,22.93,22.93,0,0,1-6-.91,36.91,36.91,0,0,1-5.62-2.14,8.53,8.53,0,0,1-2.65-2.16,15.18,15.18,0,0,1-2.18-3.39,21.18,21.18,0,0,1-1.47-4.07,13.33,13.33,0,0,1-.43-4.09A17.57,17.57,0,0,1,167.68,334Z" transform="translate(-160.19 -252.96)"/><path class="cls-1" d="M183.36,309a10.92,10.92,0,0,1,5.32-4.06,12.05,12.05,0,0,1,5.67-.37,16.66,16.66,0,0,1,5.31,1.91,31.59,31.59,0,0,1,4.25,2.84c.76.64,1.58,1.37,2.45,2.18a21.82,21.82,0,0,1,2.45,2.69,18.87,18.87,0,0,1,2,3.15,10.44,10.44,0,0,1,1,3.54,10.26,10.26,0,0,1-.42,3.9,13,13,0,0,1-2.31,4.24,11.63,11.63,0,0,1-3.55,3.19,10,10,0,0,1-3.88,1.24,12,12,0,0,1-3.92-.28,20.28,20.28,0,0,1-3.75-1.3,24.75,24.75,0,0,1-3.36-1.89c-1-.69-1.95-1.34-2.74-1.95a32.19,32.19,0,0,1-3.5-3.39,15.27,15.27,0,0,1-2.82-4.45,11.09,11.09,0,0,1-.78-5.31A11.34,11.34,0,0,1,183.36,309Zm7.88,13.5,1.76,1.4c.72.59,1.53,1.19,2.42,1.8a26.1,26.1,0,0,0,2.82,1.66,10.61,10.61,0,0,0,2.95,1,6.37,6.37,0,0,0,2.82-.13,4.64,4.64,0,0,0,2.4-1.74,4.11,4.11,0,0,0,1-3.16,7.91,7.91,0,0,0-1.14-3.07,13.32,13.32,0,0,0-2.13-2.64,25.33,25.33,0,0,0-2-1.81c-.45-.34-1.05-.82-1.82-1.44a27.12,27.12,0,0,0-2.59-1.84c-1-.62-2-1.2-3-1.76a12.31,12.31,0,0,0-3.18-1.17,7,7,0,0,0-3-.05,4.08,4.08,0,0,0-2.38,1.59,4.47,4.47,0,0,0-1.06,3.48,7.62,7.62,0,0,0,1.38,3.26,15.11,15.11,0,0,0,2.5,2.73C189.88,321.37,190.65,322,191.24,322.45Z" transform="translate(-160.19 -252.96)"/><path class="cls-1" d="M212.61,280.09a.88.88,0,0,1,.21-.24,1.36,1.36,0,0,1,.5-.23l.52-.11a7.78,7.78,0,0,1,4.36,2.23,10.8,10.8,0,0,1-1.63,1.1c-.59.34-1.2.69-1.84,1s-1.28.72-1.94,1.12a16.18,16.18,0,0,0-1.92,1.34c-.78.64-1.52,1.31-2.23,2s-1.39,1.42-2,2.15c.45.55.91,1.09,1.37,1.63a7.26,7.26,0,0,0,1.66,1.38c.75-.61,1.51-1.23,2.29-1.84l2.29-1.84c1.07-.88,2.1-1.77,3.09-2.69a22.61,22.61,0,0,0,2.76-3,1,1,0,0,1,.37.25l.26.32a3.85,3.85,0,0,1,.73,2.28,16.72,16.72,0,0,0,.16,2.49,29.83,29.83,0,0,0-5,2.93q-2.22,1.64-4.56,3.55l-.11.57c1.48,1.94,3,3.79,4.64,5.57s3.23,3.58,4.84,5.4a1.52,1.52,0,0,0,1.11.57c.47,0,.95.06,1.44.07a10.7,10.7,0,0,1,1.41.08,1.61,1.61,0,0,1,1.12.62,21.55,21.55,0,0,1-1.73,1.72c-.58.52-1.2,1-1.85,1.57-.81.67-1.62,1.33-2.43,2s-1.61,1.27-2.41,1.89c-.46.37-.84.37-1.16,0a.6.6,0,0,1-.06-.22c0-.13,0-.23,0-.3.14-.56.27-1.22.38-2a2.41,2.41,0,0,0-.28-1.79,4.58,4.58,0,0,0-.41-.45,4.9,4.9,0,0,0-.46-.41,37,37,0,0,1-2.66-3c-.81-1-1.63-2.08-2.47-3.16a22.44,22.44,0,0,0-2.21-2.51,30.31,30.31,0,0,1-2.26-2.46,28.4,28.4,0,0,1-2.2-2.84,13.53,13.53,0,0,0-2.37-2.65,1.35,1.35,0,0,0-.81-.28,10.07,10.07,0,0,0-1.1,0,8.11,8.11,0,0,1-1.11,0,1.07,1.07,0,0,1-.77-.34.69.69,0,0,1-.14-.27,1,1,0,0,0-.18-.31c1.34-1.09,2.65-2.16,3.95-3.2l3.94-3.2q2-1.6,3.58-3.16C210.32,282.37,211.44,281.26,212.61,280.09Z" transform="translate(-160.19 -252.96)"/><path class="cls-1" d="M240.29,264.39a.92.92,0,0,1,.26-.19,1.31,1.31,0,0,1,.55-.11h.52a7.78,7.78,0,0,1,3.77,3.12,11.91,11.91,0,0,1-1.82.73l-2,.61c-.7.21-1.41.43-2.14.67a15.43,15.43,0,0,0-2.16.9,28.76,28.76,0,0,0-2.61,1.47c-.85.53-1.66,1.08-2.46,1.65l1,1.89a6.88,6.88,0,0,0,1.32,1.71l2.63-1.3c.89-.43,1.77-.86,2.64-1.3,1.24-.62,2.44-1.27,3.61-1.95A23.38,23.38,0,0,0,246.7,270a.81.81,0,0,1,.3.32l.19.38a3.71,3.71,0,0,1,.21,2.38,20.3,20.3,0,0,0-.38,2.47,29.29,29.29,0,0,0-5.5,1.77q-2.51,1.11-5.22,2.48l-.22.53c1,2.21,2.12,4.36,3.31,6.44s2.37,4.2,3.54,6.33a1.56,1.56,0,0,0,1,.8c.45.14.91.26,1.39.37a12.78,12.78,0,0,1,1.36.39,1.64,1.64,0,0,1,1,.85,24,24,0,0,1-2.06,1.3c-.68.38-1.4.76-2.15,1.14l-2.8,1.38-2.77,1.32c-.52.26-.9.18-1.12-.27a.68.68,0,0,1,0-.23c0-.13,0-.23,0-.3.26-.52.53-1.13.81-1.84a2.47,2.47,0,0,0,.11-1.81c-.1-.2-.2-.37-.3-.53s-.22-.32-.36-.5a36,36,0,0,1-1.95-3.51c-.57-1.18-1.14-2.39-1.72-3.63a22.07,22.07,0,0,0-1.61-2.92,27.68,27.68,0,0,1-1.67-2.9,29.63,29.63,0,0,1-1.54-3.25,12.76,12.76,0,0,0-1.74-3.1,1.22,1.22,0,0,0-.72-.44,9.39,9.39,0,0,0-1.07-.25,7,7,0,0,1-1.09-.26,1,1,0,0,1-.67-.5.82.82,0,0,1-.08-.29,1.1,1.1,0,0,0-.11-.35c1.55-.77,3.06-1.53,4.55-2.26s3-1.49,4.55-2.27,2.9-1.52,4.18-2.3S238.9,265.28,240.29,264.39Z" transform="translate(-160.19 -252.96)"/><path class="cls-1" d="M273,254.51a1.51,1.51,0,0,1,1,.36,11.21,11.21,0,0,1,1.38,1c.46.4.87.8,1.25,1.19a2.7,2.7,0,0,1,.62.87,1,1,0,0,1-.11.67.93.93,0,0,1-.67.47,6.34,6.34,0,0,1-.94,0c-.54,0-1.19,0-1.94,0s-1.59.06-2.5.13a16.27,16.27,0,0,0-2.6.38q-1.59.38-3.21.84l-3.18.93a15.26,15.26,0,0,0,.18,1.9c.1.63.23,1.25.36,1.86a.6.6,0,0,0,.42.4,3.9,3.9,0,0,0,.7.2l4.06-.94c1.72-.39,3.48-.82,5.3-1.27a24.56,24.56,0,0,0,5.05-1.84,4.94,4.94,0,0,1,.05,1.31,18.56,18.56,0,0,1-.22,1.87,6.26,6.26,0,0,1-.56,1.76,1.58,1.58,0,0,1-1,.93,1.72,1.72,0,0,1-.81,0l-.9-.25-.91-.27a2.09,2.09,0,0,0-.89-.08,25.89,25.89,0,0,0-3,.48c-1,.22-2,.44-2.95.66l-1.27.29a5.07,5.07,0,0,0-1,.35,1.51,1.51,0,0,0-.64.58,1.36,1.36,0,0,0-.06,1l.18.78c.67,2.14,1.29,4.28,1.87,6.4s1.16,4.27,1.75,6.43c.67-.25,1.36-.49,2.07-.71s1.42-.43,2.16-.6a21.7,21.7,0,0,1,3.47-.52,22.64,22.64,0,0,0,3.48-.51,5.39,5.39,0,0,0,1.55-.6c.41-.26.81-.52,1.18-.78l1.12-.76a3.72,3.72,0,0,1,1.3-.54c.44.25.7.51.76.78a3,3,0,0,1-.12,1c-.11.54-.25,1.12-.4,1.77l-.42,1.82a9,9,0,0,1-.31,1.18,15.78,15.78,0,0,1-3.35.22,14.16,14.16,0,0,0-3.4.28c-.78.15-1.55.32-2.31.49l-2.31.54c-2,.45-3.87.93-5.72,1.44s-3.76,1-5.72,1.44a1.28,1.28,0,0,1-.94-.12.9.9,0,0,1-.52-.59c-.05-.22.05-.45.31-.72a8.38,8.38,0,0,0,.83-1,4.73,4.73,0,0,0,.62-4,23.47,23.47,0,0,0-.83-3.17,24.43,24.43,0,0,1-.82-3.16c-.18-.76-.32-1.52-.43-2.28s-.24-1.52-.37-2.29c-.11-.45-.25-1.09-.45-1.91s-.39-1.67-.62-2.57-.46-1.72-.71-2.5a13.42,13.42,0,0,0-.63-1.72,2.59,2.59,0,0,0-.84-.86c-.42-.29-.85-.57-1.3-.85l-1.21-.75c-.36-.23-.54-.4-.57-.52s.08-.44.41-.6.61-.28.85-.36a56,56,0,0,1,5.72-1.49q2.87-.6,5.76-1.27a25.47,25.47,0,0,0,4.25-1.36A22.64,22.64,0,0,1,273,254.51Z" transform="translate(-160.19 -252.96)"/><path class="cls-1" d="M310.55,253c.26,0,.56.21.93.61a11,11,0,0,1,1.06,1.37c.34.51.64,1,.9,1.48a2.33,2.33,0,0,1,.37,1,.89.89,0,0,1-.27.62.92.92,0,0,1-.77.28,6,6,0,0,1-.9-.24c-.52-.16-1.15-.32-1.88-.51s-1.55-.35-2.45-.52a17.27,17.27,0,0,0-2.61-.3c-1.09,0-2.2,0-3.31,0l-3.32.08a14.89,14.89,0,0,0-.31,1.89c-.07.63-.11,1.26-.13,1.89a.59.59,0,0,0,.3.5,5.06,5.06,0,0,0,.62.37l4.16.14c1.77.06,3.59.1,5.46.13a25.08,25.08,0,0,0,5.35-.47,5.42,5.42,0,0,1-.29,1.27,18.75,18.75,0,0,1-.69,1.76,6.36,6.36,0,0,1-1,1.55,1.62,1.62,0,0,1-1.23.64,1.75,1.75,0,0,1-.78-.24c-.26-.15-.53-.3-.8-.47l-.8-.49a2.09,2.09,0,0,0-.85-.31,25.91,25.91,0,0,0-3-.31l-3-.13-1.29,0a5,5,0,0,0-1.07.08,1.53,1.53,0,0,0-.78.4,1.36,1.36,0,0,0-.31.95l0,.79q.15,3.38.16,6.67t0,6.67c.72-.07,1.45-.12,2.18-.16s1.49,0,2.25,0a22.73,22.73,0,0,1,3.49.39,21.44,21.44,0,0,0,3.49.4,5.22,5.22,0,0,0,1.65-.18c.46-.14.91-.29,1.34-.44s.85-.31,1.28-.45a3.9,3.9,0,0,1,1.39-.19,1.37,1.37,0,0,1,.54.95,3.25,3.25,0,0,1-.38,1c-.25.49-.53,1-.85,1.61s-.6,1.14-.87,1.66a8,8,0,0,1-.61,1,15.1,15.1,0,0,1-3.29-.65,14.06,14.06,0,0,0-3.36-.6c-.79,0-1.58-.1-2.36-.12l-2.37-.08c-2-.07-4-.1-5.9-.08s-3.88,0-5.9-.08a1.27,1.27,0,0,1-.87-.36.93.93,0,0,1-.36-.71c0-.22.18-.42.5-.62a7.45,7.45,0,0,0,1.06-.78,4.73,4.73,0,0,0,1.09-1.37,5.09,5.09,0,0,0,.56-2.36,25.64,25.64,0,0,0,0-3.28,25.49,25.49,0,0,1,0-3.27q0-1.17.18-2.31c.08-.76.16-1.53.23-2.31,0-.47,0-1.12.07-2s0-1.72.05-2.64,0-1.79,0-2.6a16.94,16.94,0,0,0-.16-1.83,2.7,2.7,0,0,0-.59-1.05c-.33-.38-.67-.77-1-1.15l-1-1c-.28-.31-.42-.52-.41-.65s.19-.4.55-.47a8.37,8.37,0,0,1,.92-.13,58,58,0,0,1,5.9,0c1.95.11,3.92.2,5.89.26a25.08,25.08,0,0,0,4.47-.22A21,21,0,0,1,310.55,253Z" transform="translate(-160.19 -252.96)"/><path class="cls-1" d="M354.27,265.69a16.35,16.35,0,0,1,2.49,1.32,16.64,16.64,0,0,0,2.43,1.3,5,5,0,0,0,1.31.37,9.15,9.15,0,0,1,1.36.29,6.92,6.92,0,0,1,.39,2.42c0,.8,0,1.59,0,2.38l-.77,0c-1.18-1-2.33-1.92-3.47-2.8a18,18,0,0,0-4-2.3,5.55,5.55,0,0,0-3.22-.48,2.8,2.8,0,0,0-2.13,1.58,3.44,3.44,0,0,0-.28,1.36,2.71,2.71,0,0,0,.37,1.43,22.51,22.51,0,0,0,1.69,2.51c.63.82,1.28,1.62,1.94,2.42s1.29,1.6,1.9,2.42a16.65,16.65,0,0,1,1.55,2.58,16.48,16.48,0,0,1,1.44,4.52,7.27,7.27,0,0,1-.59,4.3,7.07,7.07,0,0,1-2.54,2.93,10.15,10.15,0,0,1-3.87,1.49,15.49,15.49,0,0,1-4.67,0,18.19,18.19,0,0,1-4.9-1.38,11.89,11.89,0,0,1-2.55-1.48,11.84,11.84,0,0,0-2.5-1.46,5.77,5.77,0,0,0-2-.5,8.68,8.68,0,0,1-.15-5.68,4.74,4.74,0,0,1,1.47,1.05l1.5,1.54a24.54,24.54,0,0,0,1.93,1.73,12.19,12.19,0,0,0,2.78,1.6,10.15,10.15,0,0,0,6,.95,5.27,5.27,0,0,0,3.83-3.05,4.9,4.9,0,0,0,.3-3.58,13.85,13.85,0,0,0-1.7-3.61,38.18,38.18,0,0,0-2.71-3.61,34.62,34.62,0,0,1-2.69-3.63,13.77,13.77,0,0,1-1.69-3.63,4.93,4.93,0,0,1,.32-3.62,4.7,4.7,0,0,1,1.85-2,7.12,7.12,0,0,1,2.79-.91,11.21,11.21,0,0,1,3.3.13A15.4,15.4,0,0,1,354.27,265.69Z" transform="translate(-160.19 -252.96)"/><path class="cls-1" d="M388.06,285.13c1.36.93,2.71,1.92,4.07,2.95l4,3.1a4.07,4.07,0,0,1,.83.88c.22.33.43.64.64.92a2.7,2.7,0,0,1-1.59.56,9,9,0,0,0-1.27,0,3.43,3.43,0,0,0-1.4.46,8.13,8.13,0,0,0-2,1.92l-1.52,2-2.41,3.1q-1.35,1.74-2.8,3.66c-1,1.28-1.86,2.48-2.67,3.58s-1.49,2.07-2.06,2.87a8.11,8.11,0,0,0-1,1.54,1.47,1.47,0,0,0,0,.75c.07.35.15.73.24,1.13s.18.79.29,1.17a2.59,2.59,0,0,1,.13.91,1,1,0,0,1-.6.42,1.3,1.3,0,0,1-.68-.11,4.1,4.1,0,0,1-.75-.47l-.75-.58q-1.89-1.47-3.81-3.11c-1.29-1.1-2.52-2.18-3.71-3.26a3.17,3.17,0,0,1,1.09-.37c.44-.08.86-.15,1.27-.2l1.15-.14a2.09,2.09,0,0,0,.83-.25,6.33,6.33,0,0,0,1.72-1.59c.55-.7,1-1.34,1.47-1.9,1-1.23,2-2.48,2.9-3.73s1.89-2.5,2.9-3.73a1.34,1.34,0,0,0,.28-.61,1,1,0,0,0-.35-.75c-.71-.66-1.44-1.3-2.19-1.91l-2.28-1.8c-.56-.43-1.15-.87-1.75-1.29s-1.2-.84-1.8-1.23q-2,2.77-4,5.47t-4.21,5.32a2.86,2.86,0,0,0-.69,1.65,5.86,5.86,0,0,0,.15,1.57,13.77,13.77,0,0,1,.24,1.43,1.67,1.67,0,0,1-.35,1.23c-1.4-1-2.8-2-4.2-3s-2.77-2-4.13-3.06a5.37,5.37,0,0,1-1.53-1.84,4,4,0,0,1,1.71-.51c.51,0,1,0,1.43,0a4.08,4.08,0,0,0,1.41-.36,4.88,4.88,0,0,0,1.64-1.5c.72-.86,1.4-1.76,2-2.68s1.3-1.83,2-2.72q2.13-2.73,4.47-5.55a32.29,32.29,0,0,0,3.92-5.87,1.68,1.68,0,0,0,.2-1c0-.38-.07-.77-.12-1.19s-.1-.82-.13-1.22a2.81,2.81,0,0,1,.11-1.13c.94.58,1.84,1.16,2.68,1.76s1.68,1.21,2.51,1.86c1.63,1.26,3.24,2.58,4.85,3.94a2.89,2.89,0,0,1-1.42.44l-1.58.07a9.43,9.43,0,0,0-1.52.21,2.21,2.21,0,0,0-1.22.8,4.85,4.85,0,0,0-.54.91q-.24.51-.45,1c1.4,1.08,2.8,2.15,4.22,3.21s2.8,2.16,4.15,3.29a3.6,3.6,0,0,0,.35-.29q.15-.15.3-.33a4.53,4.53,0,0,0,1.14-2.19,5.59,5.59,0,0,0,0-1.75c-.11-.52-.2-1-.28-1.44A1.66,1.66,0,0,1,388.06,285.13Zm-11.28,2.49a.66.66,0,0,1-.36.25.69.69,0,0,0-.35.26,1.49,1.49,0,0,0,.35.63,6.55,6.55,0,0,0,.54.48l7.28,5.65a.91.91,0,0,0,.78-.28,10,10,0,0,0-2-2.14c-.83-.68-1.61-1.3-2.34-1.87s-1.32-1-2-1.49Z" transform="translate(-160.19 -252.96)"/><path class="cls-1" d="M412.48,309.71a11,11,0,0,1,2.57,6.18,12,12,0,0,1-1.09,5.57,16.47,16.47,0,0,1-3.2,4.66,31.58,31.58,0,0,1-3.83,3.38c-.82.57-1.73,1.18-2.73,1.81A21.8,21.8,0,0,1,401,333a19.06,19.06,0,0,1-3.56,1.1,9.9,9.9,0,0,1-7.34-1.32,13.17,13.17,0,0,1-3.52-3.31,11.88,11.88,0,0,1-2.18-4.25,9.91,9.91,0,0,1-.2-4.07,11.89,11.89,0,0,1,1.27-3.72,19.77,19.77,0,0,1,2.22-3.29,23.44,23.44,0,0,1,2.67-2.77c.94-.83,1.8-1.54,2.59-2.15a34,34,0,0,1,4.17-2.53,15.33,15.33,0,0,1,5-1.59,11.05,11.05,0,0,1,5.33.61A11.43,11.43,0,0,1,412.48,309.71Zm-15.07,4.17c-.45.35-1.05.79-1.8,1.35s-1.54,1.18-2.35,1.88a26.7,26.7,0,0,0-2.33,2.31,10.37,10.37,0,0,0-1.72,2.6,6.35,6.35,0,0,0-.59,2.76,4.66,4.66,0,0,0,1.06,2.76,4.1,4.1,0,0,0,2.82,1.74,7.78,7.78,0,0,0,3.26-.32,14.08,14.08,0,0,0,3.09-1.38,24.82,24.82,0,0,0,2.27-1.5l1.85-1.39a27.92,27.92,0,0,0,2.45-2c.83-.78,1.66-1.61,2.47-2.5a12.5,12.5,0,0,0,1.94-2.76,7.05,7.05,0,0,0,.8-2.85,4,4,0,0,0-.93-2.7,4.43,4.43,0,0,0-3.1-1.92,7.62,7.62,0,0,0-3.5.5,15.76,15.76,0,0,0-3.28,1.72C398.81,312.85,398,313.43,397.41,313.88Z" transform="translate(-160.19 -252.96)"/><path class="cls-1" d="M430.75,340.73a13.77,13.77,0,0,1,1.14,3.72,10.66,10.66,0,0,1,0,3.39,6.71,6.71,0,0,1-1.18,2.76,5.28,5.28,0,0,1-2.32,1.79,6,6,0,0,1-4.57.07,18.77,18.77,0,0,1-4.71-2.61,47.26,47.26,0,0,1-4.6-3.93q-2.25-2.18-4.22-3.78a27.69,27.69,0,0,1-3.69,1.65,22.31,22.31,0,0,0-3.63,1.7,1.5,1.5,0,0,0-.67.93,13.61,13.61,0,0,0-.34,1.33,5.42,5.42,0,0,1-.43,1.27,1.45,1.45,0,0,1-.89.79c-1-1.72-1.9-3.48-2.72-5.27-.29-.62-.54-1.15-.76-1.6a10,10,0,0,1-.9-2.64,8.54,8.54,0,0,1-.14-1.61,18,18,0,0,1,2.33.67,7.48,7.48,0,0,0,1.32.41,2.76,2.76,0,0,0,1.31-.12c.48-.15,1.25-.44,2.32-.88q3.75-1.57,7.36-3.3c2.4-1.15,4.86-2.24,7.36-3.29a15.13,15.13,0,0,0,1.77-.92,3.2,3.2,0,0,0,.89-.75,1.54,1.54,0,0,0,.31-.73c0-.24.06-.52.11-.82a6.42,6.42,0,0,1,.25-1,3.66,3.66,0,0,1,.73-1.2,13.46,13.46,0,0,1,1.11,1.47c.47.69,1,1.48,1.57,2.37s1.18,1.85,1.8,2.87,1.2,2,1.75,2.92,1,1.78,1.44,2.55S430.56,340.31,430.75,340.73Zm-7.55-4.36c-1.46.62-3,1.24-4.5,1.84a27.59,27.59,0,0,0-4.34,2.2,25.42,25.42,0,0,0,5.38,4.86,12.82,12.82,0,0,0,3.13,1.55,3.6,3.6,0,0,0,2.69,0,2.88,2.88,0,0,0,1.33-1.13,3.64,3.64,0,0,0,.51-1.65,6.34,6.34,0,0,0-.21-2,14.15,14.15,0,0,0-.75-2.09l-.59-1.22a8.88,8.88,0,0,0-.78-1.31,4.1,4.1,0,0,0-.89-.95A.9.9,0,0,0,423.2,336.37Z" transform="translate(-160.19 -252.96)"/><path class="cls-1" d="M185,431.84c.41-.15.65,0,.9.65l1.87,5c2.38,6.4,1.48,10.09-3.22,11.84-5.59,2.07-9-1.53-10.86-6.61L173,441l-9.06,3.37c-.55.2-.55.2-2.08-3.91Zm.65,7.34-.95-2.54L175.52,440l.83,2.24c1.06,2.84,3,3.8,6.75,2.4C185.5,443.78,186.71,442.17,185.6,439.18Z" transform="translate(-160.19 -252.96)"/><path class="cls-1" d="M192.64,451.09s.52-.31,1,.48l2.74,4.61c3.48,5.87,3.26,9.66-1.06,12.22-3.32,2-6.15,1.45-8.49-.44a15.39,15.39,0,0,1-6.33,9.69c-.47.27-.71.23-1.76-1.55-.36-.6-.8-1.41-1.27-2.27,4.94-3.62,6.22-7.34,6.58-9.07a8,8,0,0,1-.58-.91l-1-1.63-8.32,4.94c-.5.3-.52.25-2.74-3.48Zm2,7.1-1.38-2.33-8.38,5,1.21,2.05c1.55,2.6,3.63,3.2,6.92,1.24C195.31,462.73,196.22,460.94,194.59,458.19Z" transform="translate(-160.19 -252.96)"/><path class="cls-1" d="M196.34,494c-1.87,1.59-2,1.71-2.57,1l-8.34-9.76,18.74-16s.5-.36,1.06.3l8.42,9.84c-1.81,1.55-2,1.71-2.53,1.1l-5.6-6.55-5.74,4.91,5.28,6.17c-1.7,1.46-2.05,1.76-2.58,1.14l-4.75-5.55-7.41,6.33Z" transform="translate(-160.19 -252.96)"/><path class="cls-1" d="M216.24,483.16c.36-.45.72-.21,1.1.09l2.51,2L217.15,497c-.36,1.51-1.07,4-1.14,4.25.13-.08,2.33-1.47,3.67-2.12l10.17-5.22a.84.84,0,0,1,1.07.06l2.81,2.21-15.29,19.39c-.36.46-.36.46-3.89-2.33l5.56-6.78c2.21-2.63,6.58-6.95,7.36-7.76-2.57,1.42-6.88,3.82-7.73,4.2l-5.65,2.53a.58.58,0,0,1-.65-.13L212,504.09l1.36-6.28c.16-.89,1.5-5.66,2.29-8.58l0,0s-3.37,5.84-5.72,8.91l-5.08,6.62c-.36.45-.57.28-3.8-2.26Z" transform="translate(-160.19 -252.96)"/><path class="cls-1" d="M238.46,500.07c.64-1.18.69-1.15,4.53,1l-12,21.6c-.28.5-.32.48-4.16-1.65Z" transform="translate(-160.19 -252.96)"/><path class="cls-1" d="M246.27,522.49c-1,2.74-1.11,4.86,3.16,6.44a16.42,16.42,0,0,0,4.69,1l7.52-20.31c.22-.58.27-.55,4.38,1l-8.45,22.81a27.88,27.88,0,0,1-9.08-2c-8.13-3-7.92-6.7-6.47-10.63l6-16.21c.21-.58.21-.58,4.48,1Z" transform="translate(-160.19 -252.96)"/><path class="cls-1" d="M271.24,512.71c.08-.57.51-.55,1-.48l3.16.42,3.65,11.5c.45,1.49,1.1,4,1.17,4.24.08-.13,1.26-2.45,2.08-3.69l6.12-9.68a.83.83,0,0,1,.94-.49l3.54.48-3.29,24.49c-.08.57-.08.57-4.54,0l1.33-8.68c.57-3.39,2.14-9.34,2.39-10.43-1.49,2.53-4,6.79-4.51,7.56L280.7,533a.59.59,0,0,1-.63.2l-1.88-.25-2-6.1c-.32-.85-1.59-5.65-2.4-8.57v0s.07,6.75-.39,10.59l-1,8.29c-.08.57-.34.53-4.42,0Z" transform="translate(-160.19 -252.96)"/><path class="cls-1" d="M318.28,512.4c6.93-1.24,10,1.22,11.72,10.83,1.39,7.79.12,11.79-4,13.7.82,1.79,1.69,2.37,3.34,2.08a8.34,8.34,0,0,0,3.2-1.19,2.54,2.54,0,0,1,.92,1.45c.2,1.13-2.73,2-4.54,2.27-3.69.66-6-.36-7.81-3.34-6.13.8-9-1.66-10.77-11.36C308.65,517.37,311.4,513.62,318.28,512.4Zm3.65,22.65c3.83-.69,4.68-3.67,3.39-10.92s-2.78-9.45-6.62-8.77S314,519,315.32,526.68C316.5,533.3,318.14,535.72,321.93,535.05Z" transform="translate(-160.19 -252.96)"/><path class="cls-1" d="M343.35,524.67c1.09,2.71,2.44,4.35,6.67,2.66A16.6,16.6,0,0,0,354.2,525l-8.06-20.11c-.23-.57-.18-.59,3.9-2.22l9,22.59a28,28,0,0,1-8.07,4.63c-8,3.23-10.36.34-11.92-3.55l-6.43-16c-.23-.57-.23-.57,4-2.26Z" transform="translate(-160.19 -252.96)"/><path class="cls-1" d="M377.28,507.74l-7.73,5.2L371.1,519c.09.42.06.66-1.38,1.63-.5.33-1.46.94-2.36,1.45l-5.86-26c-.12-.36.3-.82,1.11-1.36a16.08,16.08,0,0,1,1.76-1.06l21.86,15.13c.31.27.21.6-1.23,1.57-.54.36-1.26.84-2.2,1.38Zm-8.46,2.46L375,506l-4.4-3.22a42.5,42.5,0,0,1-5.44-4.7,58.84,58.84,0,0,1,2.3,6.81Z" transform="translate(-160.19 -252.96)"/><path class="cls-1" d="M394,498.49l6.65-6.53,1.52,1.55c.33.33.14.67-.25,1.05l-9.16,9-17.15-17.45c-.58-.59-.5-.67,2.59-3.71Z" transform="translate(-160.19 -252.96)"/><path class="cls-1" d="M389,472.77c-1.05-.83-1-.87,1.7-4.31l19.37,15.32c.46.35.42.4-2.3,3.84Z" transform="translate(-160.19 -252.96)"/><path class="cls-1" d="M401.83,456.51l18.93,11.13c.5.29.47.34-1.73,4.08l-19.42-11.43-3.74,6.35L394,465.56c-.37-.22-.39-.54-.06-1.1l9.34-15.89,1.87,1.1c.37.22.36.53,0,1.09Z" transform="translate(-160.19 -252.96)"/><path class="cls-1" d="M420.81,445.07l-16.27,2c-.51,0-.48-.06,1.28-4.84l5.39-.32a42.67,42.67,0,0,1,8,.11,53.34,53.34,0,0,1-6.14-5.14l-3.48-3.3c-.42-.45-.42-.45,1.13-4.66l11.4,12,9.25,3.4c.55.2.57.16-1,4.32Z" transform="translate(-160.19 -252.96)"/></svg>