<svg id="Слой_1" data-name="Слой 1" xmlns="http://www.w3.org/2000/svg" viewBox="0 0 274.9 288.77"><defs><style>.cls-1{fill:#4e4d4d;}.cls-2{fill:#fff;}</style></defs><path class="cls-1" d="M377.22,438.55c-3.24-4.15-16-21.65-16.17-40-.12-13.8-3.92-20.77-6.52-23.93a3,3,0,0,0-4.26-.4c-6,5-12.75,2.1-15.29.68a2.94,2.94,0,0,0-2.32-.24l-21.24,6.49c-25.42-11-46.57-12.25-53.73-12.31a1.5,1.5,0,0,0-1.3,2.27l9.17,15.61h-2.08a2.26,2.26,0,0,0-2.18,1.67L258.75,398a2.24,2.24,0,0,0,2.17,2.83h5l-1,2.82h0a43.51,43.51,0,0,0-22.82,20.46c-12.89,25.22-5.63,45.24-1.53,53.23a17.27,17.27,0,0,0,7.9,7.81c13.23,6.22,38.42,6.13,38.42,6.13s25.19.09,38.42-6.13a17.27,17.27,0,0,0,7.9-7.81c4.1-8,11.36-28-1.54-53.23a43.49,43.49,0,0,0-22.81-20.46h0l-1-2.82h5a2.25,2.25,0,0,0,2.24-2.36l14.35-3.09a3.08,3.08,0,0,0,1.44-.78c5-4.72,9.59-5.52,13.08-5a8.77,8.77,0,0,1,7.2,7.68C354.37,422,370.82,437,375.2,440.51a1.42,1.42,0,0,0,2-2Z" transform="translate(-149.43 -285.33)"/><path class="cls-2" d="M329,425.43a40.51,40.51,0,0,0-21.23-19l-1.29-.5-2-5.74H269.29l-2,5.74-1.3.5a40.52,40.52,0,0,0-21.22,19Z" transform="translate(-149.43 -285.33)"/><path class="cls-2" d="M318.67,425.43H311c.07.08.15.14.21.22,5.52,6.44,8.76,15.31,10,23.59a45,45,0,0,1-3,23.93,46.32,46.32,0,0,0,5.14-13.4,52.37,52.37,0,0,0-2.52-29.25C320.2,428.77,319.48,427.07,318.67,425.43Z" transform="translate(-149.43 -285.33)"/><path class="cls-2" d="M307.76,406.4A42.24,42.24,0,0,1,325,418.87c5.26,6.5,8.47,14.86,10.15,23a53.86,53.86,0,0,1-1,26.18c-1.18,4-2.72,8.36-5.55,11.49s-7.08,4.57-11.12,5.68c-8.73,2.39-17.95,3.19-27,3.5a131,131,0,0,1-27.82-2.08,57.56,57.56,0,0,1-12.55-3.6c-3.83-1.67-6.29-4.78-8-8.49a52.17,52.17,0,0,1-4.4-26.46c1.49-16.12,9.44-32.32,24.29-39.9,1.31-.66,2.65-1.23,4-1.78a42.06,42.06,0,0,0-16.76,12.51c-5.11,6.45-8.24,14.75-9.89,22.76a53.17,53.17,0,0,0,1,25.89c1.15,3.89,2.66,8.22,5.41,11.28s6.87,4.39,10.78,5.44c8.67,2.33,17.83,3.06,26.78,3.31a137,137,0,0,0,27.36-1.9,56.74,56.74,0,0,0,12.61-3.5c3.84-1.63,6.14-4.8,7.81-8.49A51.54,51.54,0,0,0,335.36,448c-1.42-15.9-9.13-32-23.63-39.72C310.44,407.56,309.11,407,307.76,406.4Z" transform="translate(-149.43 -285.33)"/><path class="cls-2" d="M258.67,371c14.6-.72,29.63,3,43,8.54C287.53,375.56,273.37,372.37,258.67,371Z" transform="translate(-149.43 -285.33)"/><path class="cls-2" d="M316.53,381.13l15.31-4.88a6.84,6.84,0,0,1,1.87-.45,2.36,2.36,0,0,1,1,.37l.86.42a18.21,18.21,0,0,0,3.75,1.28,13.58,13.58,0,0,0,8.34-.64,13.12,13.12,0,0,0,2-1c.32-.21.62-.42.92-.65a5.51,5.51,0,0,1,1-.72,1.78,1.78,0,0,1,1.38,0,2.23,2.23,0,0,1,1,.86,19.4,19.4,0,0,1,1.36,2,31.31,31.31,0,0,1,3.42,9,53.7,53.7,0,0,1,1.17,9.57c0,1.59.08,3.14.15,4.7a44.1,44.1,0,0,0,.52,4.51,56.41,56.41,0,0,0,2,8.4,69.52,69.52,0,0,0,2.74,7.26,92.65,92.65,0,0,0,5.33,10.32c1.45,2.41,2.36,3.74,2.36,3.74s-.94-1.3-2.46-3.68a85.13,85.13,0,0,1-5.6-10.22A71.84,71.84,0,0,1,362,414a53.12,53.12,0,0,1-2.11-8.46,45.32,45.32,0,0,1-.55-4.59c-.07-1.54-.13-3.13-.17-4.7a52.91,52.91,0,0,0-1.2-9.43,30.4,30.4,0,0,0-3.3-8.85,17,17,0,0,0-1.3-1.92,1.65,1.65,0,0,0-.72-.68,1.22,1.22,0,0,0-.9,0,5.26,5.26,0,0,0-.86.63c-.32.24-.64.46-1,.67a13.12,13.12,0,0,1-2.06,1.09,13.85,13.85,0,0,1-8.7.57,18.59,18.59,0,0,1-3.82-1.37c-.3-.14-.59-.29-.88-.45a1.94,1.94,0,0,0-.79-.32,7.06,7.06,0,0,0-1.7.4Z" transform="translate(-149.43 -285.33)"/><polygon class="cls-2" points="116.13 101.37 143.21 101.37 115.33 100 116.13 101.37"/><path class="cls-2" d="M329,386.07a2,2,0,1,1-2-2A2,2,0,0,1,329,386.07Z" transform="translate(-149.43 -285.33)"/><path class="cls-2" d="M320.6,388.79a2,2,0,1,1-2-2A2,2,0,0,1,320.6,388.79Z" transform="translate(-149.43 -285.33)"/><path class="cls-1" d="M251.53,423.07a1.22,1.22,0,1,1-1.52-.83A1.22,1.22,0,0,1,251.53,423.07Z" transform="translate(-149.43 -285.33)"/><path class="cls-1" d="M265.92,423.07a1.22,1.22,0,1,1-1.51-.83A1.21,1.21,0,0,1,265.92,423.07Z" transform="translate(-149.43 -285.33)"/><path class="cls-1" d="M273.81,420.47a1.22,1.22,0,1,1-1.51-.83A1.22,1.22,0,0,1,273.81,420.47Z" transform="translate(-149.43 -285.33)"/><path class="cls-1" d="M281,420.64a1.22,1.22,0,1,1-1.52-.83A1.22,1.22,0,0,1,281,420.64Z" transform="translate(-149.43 -285.33)"/><path class="cls-1" d="M288.05,419.85a1.22,1.22,0,1,1-1.51-.83A1.22,1.22,0,0,1,288.05,419.85Z" transform="translate(-149.43 -285.33)"/><path class="cls-1" d="M296,420.47a1.22,1.22,0,1,1-1.51-.83A1.22,1.22,0,0,1,296,420.47Z" transform="translate(-149.43 -285.33)"/><path class="cls-1" d="M300.76,422.86a1.22,1.22,0,1,1-1.52-.83A1.23,1.23,0,0,1,300.76,422.86Z" transform="translate(-149.43 -285.33)"/><path class="cls-1" d="M308.56,419.81a1.22,1.22,0,1,1-1.51-.83A1.21,1.21,0,0,1,308.56,419.81Z" transform="translate(-149.43 -285.33)"/><path class="cls-1" d="M322.51,422.41a1.22,1.22,0,1,1-1.52-.83A1.23,1.23,0,0,1,322.51,422.41Z" transform="translate(-149.43 -285.33)"/><path class="cls-1" d="M258.52,423.45a.78.78,0,1,1-1-.54A.78.78,0,0,1,258.52,423.45Z" transform="translate(-149.43 -285.33)"/><path class="cls-1" d="M251.89,419.37a.78.78,0,1,1-1-.53A.78.78,0,0,1,251.89,419.37Z" transform="translate(-149.43 -285.33)"/><path class="cls-1" d="M259.42,418.84a.79.79,0,1,1-1-.53A.77.77,0,0,1,259.42,418.84Z" transform="translate(-149.43 -285.33)"/><path class="cls-1" d="M280.06,424a.79.79,0,0,1-1.51.44.79.79,0,1,1,1.51-.44Z" transform="translate(-149.43 -285.33)"/><path class="cls-1" d="M265.51,419.37a.8.8,0,0,1-.54,1,.79.79,0,0,1-.44-1.51A.8.8,0,0,1,265.51,419.37Z" transform="translate(-149.43 -285.33)"/><path class="cls-1" d="M277.39,419.63a.79.79,0,1,1-1-.54A.79.79,0,0,1,277.39,419.63Z" transform="translate(-149.43 -285.33)"/><path class="cls-1" d="M289.78,422a.78.78,0,1,1-1-.53A.77.77,0,0,1,289.78,422Z" transform="translate(-149.43 -285.33)"/><path class="cls-1" d="M291.89,420.26a.78.78,0,0,1-.54,1,.77.77,0,0,1-1-.53.79.79,0,0,1,1.51-.44Z" transform="translate(-149.43 -285.33)"/><path class="cls-1" d="M297,423.19a.78.78,0,0,1-.54,1,.77.77,0,0,1-1-.53.79.79,0,0,1,1.51-.44Z" transform="translate(-149.43 -285.33)"/><path class="cls-1" d="M299.4,420.26a.79.79,0,1,1-1-.53A.77.77,0,0,1,299.4,420.26Z" transform="translate(-149.43 -285.33)"/><path class="cls-1" d="M303.51,423.56a.78.78,0,0,1-.54,1,.77.77,0,0,1-1-.53.79.79,0,0,1,1.51-.44Z" transform="translate(-149.43 -285.33)"/><path class="cls-1" d="M318.14,423.19a.79.79,0,1,1-1-.53A.78.78,0,0,1,318.14,423.19Z" transform="translate(-149.43 -285.33)"/><path class="cls-1" d="M325.33,422.53a.79.79,0,1,1-1-.53A.78.78,0,0,1,325.33,422.53Z" transform="translate(-149.43 -285.33)"/><path class="cls-1" d="M306.79,423a.79.79,0,0,1-1.51.44.79.79,0,1,1,1.51-.44Z" transform="translate(-149.43 -285.33)"/><path class="cls-1" d="M314.8,423a.79.79,0,0,1-1.51.44.79.79,0,1,1,1.51-.44Z" transform="translate(-149.43 -285.33)"/><path class="cls-1" d="M320.87,420a.79.79,0,0,1-1.51.44.79.79,0,1,1,1.51-.44Z" transform="translate(-149.43 -285.33)"/><path class="cls-1" d="M312.17,419.93a.79.79,0,1,1-1-.53A.78.78,0,0,1,312.17,419.93Z" transform="translate(-149.43 -285.33)"/><path class="cls-1" d="M286.85,423.56a.78.78,0,0,1-.54,1,.77.77,0,0,1-1-.53.79.79,0,0,1,1.51-.44Z" transform="translate(-149.43 -285.33)"/><path class="cls-1" d="M270.92,423.56a.79.79,0,1,1-1-.53A.78.78,0,0,1,270.92,423.56Z" transform="translate(-149.43 -285.33)"/><path class="cls-1" d="M256.05,421.26a1.51,1.51,0,1,1-2.9.85,1.51,1.51,0,1,1,2.9-.85Z" transform="translate(-149.43 -285.33)"/><path class="cls-1" d="M262.72,421.26a1.51,1.51,0,1,1-1.88-1A1.53,1.53,0,0,1,262.72,421.26Z" transform="translate(-149.43 -285.33)"/><path class="cls-1" d="M277.3,423a1.5,1.5,0,0,1-1,1.87,1.51,1.51,0,1,1,1-1.87Z" transform="translate(-149.43 -285.33)"/><path class="cls-1" d="M270.16,420.06a1.51,1.51,0,1,1-1.88-1A1.51,1.51,0,0,1,270.16,420.06Z" transform="translate(-149.43 -285.33)"/><path class="cls-1" d="M284.86,421.76a1.5,1.5,0,0,1-1,1.87,1.51,1.51,0,1,1,1-1.87Z" transform="translate(-149.43 -285.33)"/><path class="cls-1" d="M293.38,422.77a1.51,1.51,0,1,1-2.9.85,1.51,1.51,0,0,1,2.9-.85Z" transform="translate(-149.43 -285.33)"/><path class="cls-1" d="M304.21,420.39a1.52,1.52,0,1,1-1.88-1A1.51,1.51,0,0,1,304.21,420.39Z" transform="translate(-149.43 -285.33)"/><path class="cls-1" d="M318,420.06a1.51,1.51,0,1,1-1.88-1A1.51,1.51,0,0,1,318,420.06Z" transform="translate(-149.43 -285.33)"/><path class="cls-1" d="M311.49,422.33a1.51,1.51,0,1,1-1.88-1A1.51,1.51,0,0,1,311.49,422.33Z" transform="translate(-149.43 -285.33)"/><path class="cls-1" d="M421.4,418a18.7,18.7,0,0,0-3.59-4.45,9.81,9.81,0,0,0-13.08,0,19,19,0,0,0-3.57,4.43,28.07,28.07,0,0,0,0,24.91,16.2,16.2,0,0,0,1.21,1.77,11.36,11.36,0,0,0,17.82,0,15.41,15.41,0,0,0,1.23-1.8,28,28,0,0,0,0-24.91Z" transform="translate(-149.43 -285.33)"/><path class="cls-2" d="M414.84,412.65c4.33,2.24,7,6.69,8.08,11.33a27.26,27.26,0,0,1-1.17,16.51,13.76,13.76,0,0,1-4.07,5.47c3.52-3,4.92-7.86,5.35-12.26.53-5.37-.11-11.31-3.06-15.94A15.29,15.29,0,0,0,414.84,412.65Z" transform="translate(-149.43 -285.33)"/><path class="cls-2" d="M412.49,414.35s0,.14-.08.4-.12.64-.17,1.12a30.58,30.58,0,0,0,0,4.06c0,.84,0,1.76.1,2.71a12.41,12.41,0,0,0,.59,2.92,13.37,13.37,0,0,0,1.39,2.88,17.15,17.15,0,0,1,1.49,3,8.32,8.32,0,0,1,.45,3.39,18.34,18.34,0,0,1-.58,3.22c-.26,1-.58,2-.89,2.92a27,27,0,0,1-.94,2.56,13.69,13.69,0,0,1-2.16,3.46,10,10,0,0,1-.78.83l-.3.28.28-.29a11.14,11.14,0,0,0,.74-.87,15,15,0,0,0,2-3.51,25.75,25.75,0,0,0,.86-2.57c.28-.92.57-1.89.83-2.91a19,19,0,0,0,.53-3.16,8.15,8.15,0,0,0-.45-3.2,17.77,17.77,0,0,0-1.44-3,13.74,13.74,0,0,1-1.39-3,11.82,11.82,0,0,1-.55-3c0-1,0-1.88,0-2.73a24.91,24.91,0,0,1,.23-4.07,10,10,0,0,1,.22-1.12C412.45,414.49,412.49,414.35,412.49,414.35Z" transform="translate(-149.43 -285.33)"/><path class="cls-2" d="M411.64,413.56c-.64,2.39-.38,4.52-.49,7.13a13.94,13.94,0,0,0,1.41,7.27,30.06,30.06,0,0,1,2.09,4.07c.88,2.66-.31,5.73-1,8.4a14.44,14.44,0,0,1-3.74,7,38.45,38.45,0,0,0,1.43-6.62,15.9,15.9,0,0,0-1.2-7c-.74-2.06-2.21-3.84-2.74-6-.67-2.7.25-5.56,1.09-8.2C409.18,417.24,409.85,415.25,411.64,413.56Z" transform="translate(-149.43 -285.33)"/><path class="cls-1" d="M172.6,418a18.74,18.74,0,0,0-3.6-4.45,9.81,9.81,0,0,0-13.08,0,19,19,0,0,0-3.57,4.43,28,28,0,0,0,0,24.91,16.14,16.14,0,0,0,1.2,1.77,11.37,11.37,0,0,0,17.83,0,16.75,16.75,0,0,0,1.23-1.8,28.07,28.07,0,0,0,0-24.91Z" transform="translate(-149.43 -285.33)"/><path class="cls-2" d="M166,412.65c4.33,2.24,7,6.69,8.08,11.33a27.26,27.26,0,0,1-1.17,16.51,13.67,13.67,0,0,1-4.07,5.47c3.52-3,4.92-7.86,5.35-12.26.53-5.37-.11-11.31-3.05-15.94A15.32,15.32,0,0,0,166,412.65Z" transform="translate(-149.43 -285.33)"/><path class="cls-2" d="M163.68,414.35l-.08.4c0,.26-.12.64-.17,1.12a30.58,30.58,0,0,0,0,4.06c.05.84,0,1.76.1,2.71a12.94,12.94,0,0,0,.59,2.92,13.37,13.37,0,0,0,1.39,2.88,17.15,17.15,0,0,1,1.49,3,8.32,8.32,0,0,1,.45,3.39,19.31,19.31,0,0,1-.57,3.22c-.27,1-.59,2-.89,2.92s-.6,1.78-.95,2.56a13.41,13.41,0,0,1-2.16,3.46,10,10,0,0,1-.78.83l-.29.28.28-.29c.18-.19.43-.48.73-.87a14.63,14.63,0,0,0,2-3.51,25.75,25.75,0,0,0,.86-2.57c.28-.92.57-1.89.83-2.91a18,18,0,0,0,.53-3.16,8,8,0,0,0-.45-3.2,17.72,17.72,0,0,0-1.43-3,13.32,13.32,0,0,1-1.4-3,11.8,11.8,0,0,1-.54-3c0-1,0-1.88,0-2.73a25.09,25.09,0,0,1,.22-4.07c.07-.48.16-.86.22-1.12S163.68,414.35,163.68,414.35Z" transform="translate(-149.43 -285.33)"/><path class="cls-2" d="M162.83,413.56c-.64,2.39-.38,4.52-.49,7.13a13.94,13.94,0,0,0,1.41,7.27,30.06,30.06,0,0,1,2.09,4.07c.88,2.66-.31,5.73-1.05,8.4a14.36,14.36,0,0,1-3.74,7,38.45,38.45,0,0,0,1.43-6.62,15.9,15.9,0,0,0-1.2-7c-.74-2.06-2.21-3.84-2.74-6-.67-2.7.25-5.56,1.09-8.2C160.37,417.24,161.05,415.25,162.83,413.56Z" transform="translate(-149.43 -285.33)"/><path class="cls-1" d="M156.93,366.35a12.38,12.38,0,0,1,.57-1.1c.29-.53.61-1.09.94-1.68s.65-1.14.95-1.65a5.07,5.07,0,0,1,.61-.9,16.36,16.36,0,0,1,2.36-.32,4.3,4.3,0,0,1,2.25.46l.48.29c-.77.95-1.45,1.78-2.05,2.5a12.33,12.33,0,0,0-1.68,2.81,11.9,11.9,0,0,0-1.24,5.5,9.2,9.2,0,0,0,1.28,4.32,11.6,11.6,0,0,0,2.88,3.21,19.75,19.75,0,0,0,8.65,3.92,17.08,17.08,0,0,0,5.53.18,16.47,16.47,0,0,0,5.56-1.78,16.87,16.87,0,0,0,5.1-4.23,11.34,11.34,0,0,0,1.49-2.24,8.29,8.29,0,0,1,1.63-2.17,5,5,0,0,1,.73.89,1.57,1.57,0,0,1,.25.8,2.6,2.6,0,0,1-.18,1c-.13.36-.32.82-.58,1.4a14.58,14.58,0,0,1-2.78,4.15,41.69,41.69,0,0,1-3.54,3.24,19,19,0,0,1-6.22,3.47,19.55,19.55,0,0,1-6.2.94,22.93,22.93,0,0,1-6-.91,36.91,36.91,0,0,1-5.62-2.14,8.5,8.5,0,0,1-2.64-2.16,14.86,14.86,0,0,1-2.19-3.39,21.18,21.18,0,0,1-1.47-4.07,13.31,13.31,0,0,1-.42-4.09A17.16,17.16,0,0,1,156.93,366.35Z" transform="translate(-149.43 -285.33)"/><path class="cls-1" d="M172.6,341.31a10.89,10.89,0,0,1,5.33-4.06,12,12,0,0,1,5.66-.37,16.66,16.66,0,0,1,5.31,1.91,31,31,0,0,1,4.25,2.84c.76.65,1.58,1.37,2.45,2.18a21.82,21.82,0,0,1,2.45,2.69,18.87,18.87,0,0,1,2,3.15,9.87,9.87,0,0,1,.6,7.44,13,13,0,0,1-2.3,4.24,11.65,11.65,0,0,1-3.56,3.19,10,10,0,0,1-3.88,1.24,12,12,0,0,1-3.92-.28,20.8,20.8,0,0,1-3.75-1.3,25.82,25.82,0,0,1-3.36-1.88c-1-.7-2-1.35-2.74-2a32.19,32.19,0,0,1-3.5-3.39,15.27,15.27,0,0,1-2.82-4.45,11.19,11.19,0,0,1-.78-5.3A11.33,11.33,0,0,1,172.6,341.31Zm7.88,13.5,1.76,1.4c.72.59,1.53,1.19,2.42,1.8a26.1,26.1,0,0,0,2.82,1.66,10.72,10.72,0,0,0,3,1,6.37,6.37,0,0,0,2.82-.13,4.64,4.64,0,0,0,2.4-1.74,4.11,4.11,0,0,0,1-3.16,7.76,7.76,0,0,0-1.14-3.07,13.64,13.64,0,0,0-2.12-2.64,27,27,0,0,0-2-1.81c-.45-.34-1.05-.82-1.82-1.44a25.91,25.91,0,0,0-2.59-1.84c-1-.62-2-1.2-3-1.76a12.31,12.31,0,0,0-3.18-1.17,7,7,0,0,0-2.94-.05,4.06,4.06,0,0,0-2.38,1.59,4.44,4.44,0,0,0-1.07,3.48,7.62,7.62,0,0,0,1.38,3.26,15.48,15.48,0,0,0,2.5,2.73C179.12,353.73,179.89,354.36,180.48,354.81Z" transform="translate(-149.43 -285.33)"/><path class="cls-1" d="M201.85,312.45a.86.86,0,0,1,.21-.23,1.09,1.09,0,0,1,.51-.23l.51-.12a7.78,7.78,0,0,1,4.36,2.23,11.64,11.64,0,0,1-1.63,1.11l-1.84,1c-.64.35-1.28.73-1.94,1.12a15.18,15.18,0,0,0-1.92,1.35c-.78.63-1.52,1.3-2.23,2s-1.38,1.42-2,2.15c.45.55.91,1.1,1.37,1.63a7.26,7.26,0,0,0,1.66,1.38l2.29-1.84c.78-.61,1.54-1.23,2.29-1.84,1.07-.88,2.11-1.77,3.1-2.69a23.24,23.24,0,0,0,2.75-3,.89.89,0,0,1,.37.25c.08.09.16.2.27.32a3.91,3.91,0,0,1,.72,2.28,18.07,18.07,0,0,0,.16,2.49,29.18,29.18,0,0,0-5,2.94q-2.22,1.62-4.56,3.54l-.11.57c1.48,1.94,3,3.79,4.64,5.57s3.23,3.58,4.84,5.41a1.51,1.51,0,0,0,1.11.56c.47,0,.95.06,1.44.07a13.07,13.07,0,0,1,1.42.08,1.61,1.61,0,0,1,1.11.62,21.55,21.55,0,0,1-1.73,1.72c-.58.52-1.2,1-1.85,1.57-.81.67-1.62,1.33-2.43,2s-1.61,1.27-2.41,1.88c-.46.37-.84.37-1.16,0a.6.6,0,0,1-.06-.22c0-.12,0-.22,0-.3.14-.56.27-1.21.39-2a2.47,2.47,0,0,0-.29-1.79,4.58,4.58,0,0,0-.41-.45,4.9,4.9,0,0,0-.46-.41,37,37,0,0,1-2.66-3c-.81-1-1.63-2.08-2.47-3.16a22.44,22.44,0,0,0-2.21-2.51,30.31,30.31,0,0,1-2.26-2.46,30,30,0,0,1-2.2-2.84,13.18,13.18,0,0,0-2.37-2.64,1.35,1.35,0,0,0-.8-.29,10.08,10.08,0,0,0-1.1,0,8.22,8.22,0,0,1-1.12,0,1,1,0,0,1-.77-.34.86.86,0,0,1-.14-.27,1,1,0,0,0-.18-.31c1.34-1.09,2.65-2.16,4-3.2l3.94-3.2q2-1.6,3.58-3.16C199.56,314.73,200.69,313.62,201.85,312.45Z" transform="translate(-149.43 -285.33)"/><path class="cls-1" d="M229.53,296.75a.75.75,0,0,1,.26-.18,1.18,1.18,0,0,1,.55-.12h.53a7.75,7.75,0,0,1,3.76,3.12,11,11,0,0,1-1.82.73c-.66.2-1.33.41-2,.61s-1.41.43-2.14.67a15.94,15.94,0,0,0-2.16.9q-1.35.67-2.61,1.47c-.84.53-1.66,1.08-2.45,1.65.32.64.65,1.27,1,1.89a6.88,6.88,0,0,0,1.32,1.71l2.63-1.3,2.64-1.29c1.24-.63,2.44-1.28,3.61-2a23.38,23.38,0,0,0,3.34-2.34.88.88,0,0,1,.3.32l.19.38a3.71,3.71,0,0,1,.21,2.38,20.3,20.3,0,0,0-.38,2.47,29.3,29.3,0,0,0-5.5,1.78q-2.5,1.11-5.22,2.47l-.22.53c1,2.21,2.12,4.36,3.31,6.45s2.38,4.19,3.55,6.32a1.54,1.54,0,0,0,1,.8c.45.14.91.26,1.39.37a13.69,13.69,0,0,1,1.37.39,1.65,1.65,0,0,1,.95.85,21.78,21.78,0,0,1-2.06,1.3c-.68.38-1.4.76-2.15,1.14l-2.8,1.38L227.07,333c-.52.26-.89.18-1.12-.27a.66.66,0,0,1,0-.23c0-.13,0-.23,0-.3.26-.51.53-1.13.81-1.84a2.47,2.47,0,0,0,.11-1.81c-.1-.2-.2-.37-.3-.53s-.22-.32-.36-.5a35.83,35.83,0,0,1-1.94-3.51c-.58-1.18-1.15-2.39-1.73-3.63a22.71,22.71,0,0,0-1.61-2.92,27.68,27.68,0,0,1-1.67-2.9,29.63,29.63,0,0,1-1.54-3.25,12.76,12.76,0,0,0-1.74-3.1,1.23,1.23,0,0,0-.71-.44,10.11,10.11,0,0,0-1.08-.25,7,7,0,0,1-1.09-.26,1,1,0,0,1-.67-.5.82.82,0,0,1-.08-.29,1.08,1.08,0,0,0-.1-.35c1.54-.77,3.05-1.53,4.54-2.26s3-1.49,4.55-2.27,2.9-1.52,4.18-2.3S228.14,297.64,229.53,296.75Z" transform="translate(-149.43 -285.33)"/><path class="cls-1" d="M262.22,286.87a1.56,1.56,0,0,1,1,.36,10.5,10.5,0,0,1,1.38,1c.46.4.87.8,1.25,1.19a2.7,2.7,0,0,1,.62.87,1,1,0,0,1-.1.67,1,1,0,0,1-.67.47,6.42,6.42,0,0,1-.94,0c-.55,0-1.2,0-1.95,0s-1.58.06-2.5.13a16.27,16.27,0,0,0-2.6.38q-1.59.38-3.21.84l-3.18.93a15.26,15.26,0,0,0,.18,1.9c.11.63.23,1.25.37,1.86a.6.6,0,0,0,.41.41,5,5,0,0,0,.7.2l4.06-.94q2.58-.6,5.31-1.28a24.68,24.68,0,0,0,5-1.84,4.94,4.94,0,0,1,.05,1.31,18.56,18.56,0,0,1-.22,1.87,6,6,0,0,1-.56,1.76,1.62,1.62,0,0,1-1,.94,1.88,1.88,0,0,1-.81,0l-.9-.25-.91-.27a2.09,2.09,0,0,0-.89-.08,28.23,28.23,0,0,0-3,.48c-1,.22-2,.44-2.95.66l-1.27.29a5.07,5.07,0,0,0-1,.35,1.47,1.47,0,0,0-.64.59,1.34,1.34,0,0,0-.06,1l.18.78q1,3.23,1.87,6.4t1.75,6.44c.67-.26,1.37-.5,2.07-.72s1.42-.43,2.16-.6a21.66,21.66,0,0,1,3.48-.52,22.69,22.69,0,0,0,3.47-.51,5.12,5.12,0,0,0,1.55-.6c.42-.26.81-.52,1.18-.78l1.12-.76a3.72,3.72,0,0,1,1.3-.54c.44.25.7.51.76.78a3,3,0,0,1-.12,1c-.11.54-.24,1.13-.4,1.77s-.29,1.25-.42,1.82a7.26,7.26,0,0,1-.31,1.18,15.68,15.68,0,0,1-3.34.22,14.2,14.2,0,0,0-3.41.28l-2.31.49-2.31.54c-2,.45-3.87.93-5.72,1.44s-3.76,1-5.72,1.44a1.33,1.33,0,0,1-.94-.11.94.94,0,0,1-.52-.6.81.81,0,0,1,.31-.72,8,8,0,0,0,.83-1,4.89,4.89,0,0,0,.7-1.61,5.07,5.07,0,0,0-.07-2.43,25,25,0,0,0-.84-3.16,25,25,0,0,1-.82-3.17c-.18-.76-.32-1.52-.43-2.28s-.24-1.52-.37-2.29c-.11-.45-.25-1.09-.44-1.91s-.4-1.67-.63-2.57-.46-1.72-.71-2.49a15.12,15.12,0,0,0-.62-1.73,2.74,2.74,0,0,0-.85-.86c-.41-.29-.85-.57-1.3-.85l-1.21-.75c-.35-.22-.54-.4-.57-.52s.08-.44.41-.6.61-.28.85-.36a56,56,0,0,1,5.72-1.49q2.87-.6,5.76-1.27a25.47,25.47,0,0,0,4.25-1.36A22.64,22.64,0,0,1,262.22,286.87Z" transform="translate(-149.43 -285.33)"/><path class="cls-1" d="M299.8,285.34c.25,0,.56.21.92.61a11,11,0,0,1,1.06,1.37c.34.51.64,1,.9,1.48a2.55,2.55,0,0,1,.38,1,1,1,0,0,1-.28.62.91.91,0,0,1-.76.28,5.7,5.7,0,0,1-.91-.24l-1.88-.51c-.73-.17-1.54-.35-2.44-.52a17.42,17.42,0,0,0-2.61-.3c-1.1,0-2.2,0-3.32,0l-3.32.07a14.89,14.89,0,0,0-.31,1.89c-.07.63-.11,1.26-.13,1.89a.64.64,0,0,0,.3.5,4.05,4.05,0,0,0,.62.37l4.16.14c1.77.06,3.59.1,5.46.13a24.45,24.45,0,0,0,5.35-.47,5.42,5.42,0,0,1-.29,1.27,18.75,18.75,0,0,1-.69,1.76,5.91,5.91,0,0,1-1,1.55,1.58,1.58,0,0,1-1.23.64,1.79,1.79,0,0,1-.77-.23l-.81-.47-.8-.5a2.09,2.09,0,0,0-.85-.31,25.91,25.91,0,0,0-3-.31l-3-.12-1.3-.05a5.07,5.07,0,0,0-1.07.08,1.53,1.53,0,0,0-.78.4,1.38,1.38,0,0,0-.31,1l0,.79q.15,3.38.16,6.67t0,6.67c.72-.07,1.45-.12,2.18-.16s1.49-.05,2.25,0a22.73,22.73,0,0,1,3.49.39,21.44,21.44,0,0,0,3.49.4,5.22,5.22,0,0,0,1.65-.18c.46-.14.91-.29,1.34-.44s.85-.31,1.28-.45a3.9,3.9,0,0,1,1.39-.19,1.4,1.4,0,0,1,.54,1,3,3,0,0,1-.38,1c-.25.49-.53,1-.85,1.61l-.87,1.66a9.82,9.82,0,0,1-.6,1.05,15.92,15.92,0,0,1-3.3-.64,13.59,13.59,0,0,0-3.36-.61c-.79-.05-1.58-.1-2.36-.12l-2.37-.08q-3-.1-5.9-.08c-1.91,0-3.88,0-5.9-.08a1.29,1.29,0,0,1-.87-.36.92.92,0,0,1-.35-.71c0-.22.17-.42.49-.62a8.09,8.09,0,0,0,1.07-.78,4.89,4.89,0,0,0,1.08-1.37,5.09,5.09,0,0,0,.56-2.36,25.64,25.64,0,0,0,0-3.28,25.49,25.49,0,0,1,0-3.27q0-1.17.18-2.31c.09-.76.16-1.53.23-2.31,0-.46,0-1.12.07-2s0-1.72,0-2.64,0-1.79,0-2.6a16.41,16.41,0,0,0-.17-1.83,2.7,2.7,0,0,0-.59-1.05c-.32-.38-.67-.77-1-1.15l-1-1c-.29-.31-.43-.52-.42-.65s.19-.4.55-.47a8.37,8.37,0,0,1,.92-.13,58,58,0,0,1,5.9,0c2,.11,3.92.2,5.9.27a26,26,0,0,0,4.46-.23A21.08,21.08,0,0,1,299.8,285.34Z" transform="translate(-149.43 -285.33)"/><path class="cls-1" d="M343.51,298.05a16.35,16.35,0,0,1,2.49,1.32,16.64,16.64,0,0,0,2.43,1.3,5,5,0,0,0,1.31.37,9.15,9.15,0,0,1,1.36.29,6.7,6.7,0,0,1,.39,2.42c0,.8,0,1.59,0,2.38l-.77,0q-1.77-1.49-3.46-2.8a18.46,18.46,0,0,0-4-2.3,5.59,5.59,0,0,0-3.23-.48,2.8,2.8,0,0,0-2.13,1.58,3.62,3.62,0,0,0-.28,1.36,2.63,2.63,0,0,0,.38,1.43,23.48,23.48,0,0,0,1.68,2.52c.63.81,1.28,1.61,1.94,2.41s1.29,1.6,1.9,2.42a16.74,16.74,0,0,1,1.55,2.59,16.31,16.31,0,0,1,1.44,4.51,7.31,7.31,0,0,1-.59,4.31,7,7,0,0,1-2.54,2.92,10,10,0,0,1-3.87,1.49,15.43,15.43,0,0,1-4.66,0,18.26,18.26,0,0,1-4.91-1.38,11.89,11.89,0,0,1-2.55-1.48,11.84,11.84,0,0,0-2.5-1.46,5.66,5.66,0,0,0-2-.5,8.68,8.68,0,0,1-.15-5.68,4.63,4.63,0,0,1,1.47,1l1.5,1.54A24.54,24.54,0,0,0,327.7,322a12.41,12.41,0,0,0,2.78,1.6,10.15,10.15,0,0,0,6,.95,5.27,5.27,0,0,0,3.83-3,4.9,4.9,0,0,0,.31-3.58,14.23,14.23,0,0,0-1.71-3.61,39.81,39.81,0,0,0-2.7-3.61,33.38,33.38,0,0,1-2.7-3.63,13.77,13.77,0,0,1-1.69-3.63,5,5,0,0,1,.32-3.62,4.7,4.7,0,0,1,1.85-2,7.12,7.12,0,0,1,2.79-.91,11.21,11.21,0,0,1,3.3.13A15.4,15.4,0,0,1,343.51,298.05Z" transform="translate(-149.43 -285.33)"/><path class="cls-1" d="M377.3,317.49c1.36.93,2.71,1.92,4.07,2.95l4,3.1a3.64,3.64,0,0,1,.83.88c.22.33.43.64.64.92a2.68,2.68,0,0,1-1.59.56,9,9,0,0,0-1.27,0,3.47,3.47,0,0,0-1.4.46,8.4,8.4,0,0,0-2,1.93c-.31.39-.82,1-1.52,2l-2.41,3.1q-1.35,1.74-2.8,3.66c-1,1.28-1.86,2.48-2.66,3.58s-1.5,2.07-2.07,2.87a7.62,7.62,0,0,0-.95,1.54,1.34,1.34,0,0,0,0,.75c.08.35.15.73.24,1.13s.18.8.29,1.17a2.59,2.59,0,0,1,.13.91,1,1,0,0,1-.6.42,1.26,1.26,0,0,1-.67-.11,3.84,3.84,0,0,1-.76-.47l-.75-.58q-1.89-1.47-3.81-3.11c-1.29-1.1-2.52-2.18-3.71-3.26a3.49,3.49,0,0,1,1.09-.37c.44-.08.86-.15,1.27-.2l1.15-.14a1.9,1.9,0,0,0,.83-.25,6.33,6.33,0,0,0,1.72-1.59l1.48-1.9c1-1.23,2-2.47,2.89-3.73s1.89-2.5,2.9-3.73a1.34,1.34,0,0,0,.28-.61,1,1,0,0,0-.35-.75c-.71-.66-1.43-1.3-2.19-1.9s-1.51-1.21-2.28-1.81c-.56-.43-1.15-.87-1.74-1.29s-1.21-.84-1.81-1.23c-1.33,1.85-2.67,3.68-4,5.47s-2.75,3.57-4.21,5.32a2.89,2.89,0,0,0-.69,1.65,6.29,6.29,0,0,0,.15,1.57,13.91,13.91,0,0,1,.25,1.43,1.72,1.72,0,0,1-.36,1.23c-1.4-1-2.8-2-4.2-3S348,334,346.6,333a5.49,5.49,0,0,1-1.53-1.84,4,4,0,0,1,1.71-.51c.51,0,1,0,1.44,0a4.08,4.08,0,0,0,1.4-.36,4.78,4.78,0,0,0,1.64-1.5c.72-.86,1.4-1.75,2-2.68s1.3-1.83,2-2.72q2.13-2.73,4.48-5.55a32.23,32.23,0,0,0,3.91-5.87,1.68,1.68,0,0,0,.2-1c0-.38-.07-.77-.12-1.18s-.1-.83-.13-1.23a3,3,0,0,1,.12-1.13c.93.58,1.83,1.16,2.67,1.76s1.68,1.21,2.51,1.86c1.63,1.26,3.24,2.58,4.85,3.94a2.86,2.86,0,0,1-1.42.44l-1.58.07a9.43,9.43,0,0,0-1.52.21,2.24,2.24,0,0,0-1.22.8,4.85,4.85,0,0,0-.54.91c-.16.34-.3.67-.45,1,1.4,1.08,2.8,2.15,4.22,3.21s2.8,2.16,4.15,3.29a3.6,3.6,0,0,0,.35-.29q.15-.15.3-.33a4.49,4.49,0,0,0,1.14-2.19,5.31,5.31,0,0,0,0-1.75c-.11-.52-.2-1-.28-1.44A1.66,1.66,0,0,1,377.3,317.49ZM366,320a.67.67,0,0,1-.35.25.68.68,0,0,0-.36.26,1.49,1.49,0,0,0,.35.63,5.4,5.4,0,0,0,.55.48l7.27,5.65a.91.91,0,0,0,.78-.28,9.76,9.76,0,0,0-2-2.13c-.83-.69-1.61-1.31-2.34-1.88s-1.31-1-2-1.49Z" transform="translate(-149.43 -285.33)"/><path class="cls-1" d="M401.72,342.07a10.94,10.94,0,0,1,2.57,6.19,12.13,12.13,0,0,1-1.08,5.56,16.71,16.71,0,0,1-3.21,4.66,30.85,30.85,0,0,1-3.83,3.38c-.82.57-1.73,1.18-2.73,1.82a22.23,22.23,0,0,1-3.22,1.67,19.2,19.2,0,0,1-3.55,1.1,9.91,9.91,0,0,1-7.35-1.32,13.17,13.17,0,0,1-3.52-3.31,11.69,11.69,0,0,1-2.17-4.25,9.88,9.88,0,0,1-.21-4.06,12.12,12.12,0,0,1,1.27-3.73,19.77,19.77,0,0,1,2.22-3.29,23.44,23.44,0,0,1,2.67-2.77c.94-.83,1.8-1.54,2.59-2.15a32.78,32.78,0,0,1,4.17-2.52,15.17,15.17,0,0,1,5-1.6,11.26,11.26,0,0,1,5.32.61A11.43,11.43,0,0,1,401.72,342.07Zm-15.07,4.18c-.44.34-1,.78-1.8,1.34s-1.54,1.18-2.35,1.89a25.24,25.24,0,0,0-2.33,2.3,10.65,10.65,0,0,0-1.72,2.6,6.35,6.35,0,0,0-.59,2.76,4.68,4.68,0,0,0,1.07,2.76,4.06,4.06,0,0,0,2.81,1.74,7.76,7.76,0,0,0,3.26-.32,13.9,13.9,0,0,0,3.1-1.38,24.44,24.44,0,0,0,2.26-1.5l1.85-1.39a27.92,27.92,0,0,0,2.45-2c.84-.78,1.66-1.61,2.47-2.5a12.91,12.91,0,0,0,1.95-2.76,7.2,7.2,0,0,0,.79-2.84,4,4,0,0,0-.93-2.71,4.43,4.43,0,0,0-3.1-1.92,7.64,7.64,0,0,0-3.5.5,15.76,15.76,0,0,0-3.28,1.72C388.05,345.21,387.25,345.79,386.65,346.25Z" transform="translate(-149.43 -285.33)"/><path class="cls-1" d="M420,373.09a13.73,13.73,0,0,1,1.14,3.73,10.32,10.32,0,0,1,0,3.38,6.71,6.71,0,0,1-1.18,2.76,5.28,5.28,0,0,1-2.32,1.79,6,6,0,0,1-4.57.07,18.46,18.46,0,0,1-4.71-2.61,48.48,48.48,0,0,1-4.6-3.93q-2.25-2.17-4.22-3.78a28.47,28.47,0,0,1-3.69,1.66,21,21,0,0,0-3.62,1.69,1.51,1.51,0,0,0-.68.93,13.11,13.11,0,0,0-.34,1.34,5.82,5.82,0,0,1-.42,1.26,1.5,1.5,0,0,1-.9.79c-1-1.72-1.9-3.47-2.72-5.27-.28-.62-.53-1.15-.76-1.6a10,10,0,0,1-.9-2.64,8.51,8.51,0,0,1-.14-1.6,17.48,17.48,0,0,1,2.34.66,7.15,7.15,0,0,0,1.31.41,2.64,2.64,0,0,0,1.31-.12c.48-.15,1.26-.44,2.32-.88,2.5-1.05,5-2.15,7.36-3.3s4.86-2.24,7.36-3.29a15.13,15.13,0,0,0,1.77-.92,3.2,3.2,0,0,0,.89-.75,1.54,1.54,0,0,0,.31-.73c0-.24.06-.51.11-.82a7.86,7.86,0,0,1,.25-1,3.84,3.84,0,0,1,.73-1.2,13.46,13.46,0,0,1,1.11,1.47c.47.69,1,1.48,1.58,2.37s1.17,1.85,1.79,2.87,1.2,2,1.75,2.92,1,1.78,1.45,2.55S419.8,372.67,420,373.09Zm-7.54-4.36q-2.2.93-4.51,1.85a27.14,27.14,0,0,0-4.34,2.19,25.42,25.42,0,0,0,5.38,4.86,12.82,12.82,0,0,0,3.13,1.55,3.6,3.6,0,0,0,2.69,0,3,3,0,0,0,1.34-1.13,3.71,3.71,0,0,0,.5-1.65,6.34,6.34,0,0,0-.21-2,14.15,14.15,0,0,0-.75-2.09c-.16-.34-.35-.75-.59-1.22a9.81,9.81,0,0,0-.77-1.31,4.28,4.28,0,0,0-.9-.94A.89.89,0,0,0,412.45,368.73Z" transform="translate(-149.43 -285.33)"/><path class="cls-1" d="M174.19,464.2c.41-.15.65,0,.9.65l1.87,5c2.38,6.4,1.48,10.09-3.22,11.84-5.59,2.07-9-1.53-10.86-6.61l-.66-1.77-9.06,3.37c-.54.21-.54.21-2.08-3.91Zm.65,7.34L173.9,469l-9.14,3.4.83,2.23c1.06,2.84,3,3.8,6.75,2.4C174.74,476.14,176,474.53,174.84,471.54Z" transform="translate(-149.43 -285.33)"/><path class="cls-1" d="M181.88,483.45s.53-.31,1,.48l2.74,4.61c3.48,5.87,3.26,9.66-1.06,12.22-3.32,2-6.15,1.45-8.49-.44a15.39,15.39,0,0,1-6.33,9.69c-.47.28-.71.23-1.76-1.54-.36-.61-.8-1.42-1.27-2.28,4.95-3.62,6.22-7.34,6.58-9.07a9.74,9.74,0,0,1-.58-.91l-1-1.63-8.32,4.94c-.5.3-.52.25-2.74-3.48Zm2,7.1-1.38-2.33-8.38,5,1.21,2.05c1.55,2.6,3.63,3.2,6.92,1.25C184.55,495.09,185.46,493.3,183.83,490.55Z" transform="translate(-149.43 -285.33)"/><path class="cls-1" d="M185.58,526.33c-1.87,1.59-2,1.71-2.57,1l-8.34-9.76,18.74-16s.5-.36,1.07.3l8.41,9.84c-1.81,1.55-2,1.72-2.53,1.1l-5.6-6.55L189,511.19l5.29,6.17c-1.7,1.46-2.06,1.76-2.59,1.15L187,513l-7.41,6.33Z" transform="translate(-149.43 -285.33)"/><path class="cls-1" d="M205.48,515.52c.36-.45.72-.21,1.1.09l2.51,2-2.7,11.75c-.36,1.5-1.07,4-1.14,4.24.13-.08,2.33-1.47,3.67-2.12l10.18-5.21a.81.81,0,0,1,1.06,0l2.81,2.21L207.68,547.9c-.35.46-.35.46-3.89-2.32l5.56-6.79c2.21-2.63,6.58-6.95,7.36-7.76-2.57,1.42-6.88,3.82-7.73,4.2l-5.65,2.54a.6.6,0,0,1-.65-.14l-1.49-1.18,1.36-6.28c.16-.89,1.5-5.66,2.29-8.58l0,0s-3.37,5.85-5.72,8.91L194,537.15c-.35.45-.57.28-3.8-2.26Z" transform="translate(-149.43 -285.33)"/><path class="cls-1" d="M227.7,532.43c.64-1.18.69-1.15,4.53,1L220.28,555c-.29.5-.33.48-4.17-1.65Z" transform="translate(-149.43 -285.33)"/><path class="cls-1" d="M235.51,554.85c-1,2.74-1.11,4.86,3.16,6.44a16.93,16.93,0,0,0,4.69,1.05L250.89,542c.21-.58.26-.55,4.37,1l-8.45,22.81a27.93,27.93,0,0,1-9.08-2c-8.13-3-7.92-6.7-6.46-10.63l6-16.21c.21-.58.21-.58,4.48,1Z" transform="translate(-149.43 -285.33)"/><path class="cls-1" d="M260.48,545.07c.08-.57.51-.55,1-.48l3.16.43,3.65,11.49c.45,1.49,1.1,4,1.17,4.24.08-.13,1.27-2.45,2.09-3.69l6.11-9.68a.83.83,0,0,1,.94-.49l3.54.48-3.29,24.49c-.08.57-.08.57-4.54,0l1.34-8.68c.56-3.38,2.13-9.34,2.38-10.43-1.48,2.54-4,6.79-4.51,7.56l-3.58,5.06a.59.59,0,0,1-.63.2l-1.88-.25-2-6.1c-.32-.85-1.59-5.65-2.4-8.56v0s.07,6.76-.39,10.6l-1,8.28c-.07.57-.34.54-4.42,0Z" transform="translate(-149.43 -285.33)"/><path class="cls-1" d="M307.52,544.76c6.93-1.24,10,1.22,11.72,10.83,1.39,7.79.12,11.79-4,13.7.82,1.8,1.69,2.37,3.34,2.08a8.34,8.34,0,0,0,3.2-1.19,2.44,2.44,0,0,1,.92,1.45c.2,1.14-2.73,2-4.54,2.28-3.68.65-6-.37-7.81-3.35-6.13.8-9-1.66-10.77-11.36C297.9,549.74,300.64,546,307.52,544.76Zm3.65,22.65c3.84-.69,4.68-3.66,3.39-10.92s-2.78-9.44-6.62-8.76-4.75,3.63-3.38,11.31C305.74,565.66,307.38,568.08,311.17,567.41Z" transform="translate(-149.43 -285.33)"/><path class="cls-1" d="M332.59,557c1.09,2.71,2.45,4.35,6.67,2.66a16.6,16.6,0,0,0,4.18-2.38l-8.06-20.11c-.22-.57-.17-.59,3.9-2.22l9.05,22.59a28,28,0,0,1-8.06,4.63c-8,3.23-10.37.34-11.93-3.55l-6.43-16c-.23-.57-.23-.57,4-2.26Z" transform="translate(-149.43 -285.33)"/><path class="cls-1" d="M366.52,540.1l-7.73,5.2,1.55,6.09c.09.42.06.66-1.38,1.63-.5.33-1.46.94-2.35,1.45l-5.87-26c-.12-.36.3-.81,1.11-1.36a17.11,17.11,0,0,1,1.77-1.06l21.85,15.13c.32.27.21.6-1.23,1.57-.54.36-1.25.84-2.19,1.38Zm-8.46,2.46,6.21-4.17-4.39-3.22a42.67,42.67,0,0,1-5.45-4.7,58.84,58.84,0,0,1,2.3,6.81Z" transform="translate(-149.43 -285.33)"/><path class="cls-1" d="M383.24,530.85l6.65-6.53,1.52,1.55c.33.33.14.67-.25,1.06l-9.16,9-17.15-17.45c-.58-.59-.5-.67,2.59-3.71Z" transform="translate(-149.43 -285.33)"/><path class="cls-1" d="M378.24,505.13c-1.05-.82-1-.87,1.7-4.31l19.38,15.32c.45.35.42.4-2.3,3.84Z" transform="translate(-149.43 -285.33)"/><path class="cls-1" d="M391.07,488.87,410,500c.5.29.47.34-1.73,4.08l-19.42-11.43L385.11,499l-1.83-1.08c-.38-.21-.4-.54-.07-1.1l9.34-15.89,1.87,1.1c.37.22.36.53,0,1.09Z" transform="translate(-149.43 -285.33)"/><path class="cls-1" d="M410.05,477.43l-16.27,2c-.51,0-.48-.06,1.28-4.84l5.39-.32a41.66,41.66,0,0,1,8,.12,55.61,55.61,0,0,1-6.14-5.15l-3.48-3.3c-.42-.44-.42-.44,1.14-4.66l11.4,12,9.25,3.41c.54.2.56.15-1,4.31Z" transform="translate(-149.43 -285.33)"/></svg>