<svg id="Слой_1" data-name="Слой 1" xmlns="http://www.w3.org/2000/svg" viewBox="0 0 257.4 254.01"><defs><style>.cls-1{fill:#4e4d4d;}.cls-2{fill:#fff;}</style></defs><path class="cls-1" d="M409.63,421.48c0-7.49-5.33-14.42-6.58-21.54-1.28-7.33,1.34-15.66-1.15-22.49s-9.91-11.65-13.57-18-4.09-15.11-8.81-20.72-13.26-7.53-18.89-12.26-9-12.8-15.34-16.49-15-2.54-21.94-5.07-12.74-8.94-20.07-10.22c-7.13-1.25-14.87,2.77-22.35,2.77s-15.23-4-22.36-2.77c-7.33,1.28-13.23,7.73-20.06,10.22s-15.62,1.41-21.94,5.07-9.73,11.77-15.34,16.49-14.16,6.62-18.89,12.26-5.12,14.34-8.81,20.72-11,11-13.57,18,.12,15.16-1.16,22.49c-1.25,7.12-6.57,14.05-6.57,21.54s5.32,14.41,6.57,21.54c1.28,7.33-1.33,15.65,1.16,22.49s9.91,11.64,13.57,18,4.09,15.11,8.8,20.72,13.26,7.53,18.9,12.26,9,12.8,15.34,16.49,15,2.54,21.94,5.07,12.74,8.94,20.07,10.22c7.12,1.25,14.86-2.77,22.35-2.77s15.22,4,22.35,2.77c7.33-1.28,13.23-7.73,20.07-10.22S339,536.61,345.29,533s9.72-11.77,15.34-16.49,14.16-6.62,18.89-12.26,5.11-14.34,8.81-20.72,11-11,13.57-18-.13-15.17,1.15-22.5C404.3,435.89,409.63,429,409.63,421.48ZM280.93,536.54A115.07,115.07,0,1,1,396,421.48,115.07,115.07,0,0,1,280.93,536.54Z" transform="translate(-152.23 -294.47)"/><path class="cls-1" d="M283.5,313a2.57,2.57,0,1,1-2.57-2.56A2.57,2.57,0,0,1,283.5,313Z" transform="translate(-152.23 -294.47)"/><path class="cls-1" d="M272.14,313.33a2.57,2.57,0,0,1-5.11.54,2.57,2.57,0,1,1,5.11-.54Z" transform="translate(-152.23 -294.47)"/><path class="cls-1" d="M260.89,314.84a2.57,2.57,0,1,1-3.05-2A2.58,2.58,0,0,1,260.89,314.84Z" transform="translate(-152.23 -294.47)"/><path class="cls-1" d="M249.85,317.52a2.57,2.57,0,1,1-3.24-1.65A2.57,2.57,0,0,1,249.85,317.52Z" transform="translate(-152.23 -294.47)"/><path class="cls-1" d="M239.15,321.34a2.57,2.57,0,1,1-3.39-1.3A2.56,2.56,0,0,1,239.15,321.34Z" transform="translate(-152.23 -294.47)"/><path class="cls-1" d="M228.92,326.25a2.57,2.57,0,1,1-3.51-.94A2.58,2.58,0,0,1,228.92,326.25Z" transform="translate(-152.23 -294.47)"/><path class="cls-1" d="M219.25,332.21a2.57,2.57,0,1,1-3.59-.57A2.57,2.57,0,0,1,219.25,332.21Z" transform="translate(-152.23 -294.47)"/><path class="cls-1" d="M210.26,339.15a2.57,2.57,0,1,1-3.63-.19A2.58,2.58,0,0,1,210.26,339.15Z" transform="translate(-152.23 -294.47)"/><path class="cls-1" d="M202,347a2.57,2.57,0,1,1-3.63.19A2.56,2.56,0,0,1,202,347Z" transform="translate(-152.23 -294.47)"/><path class="cls-1" d="M194.68,355.64a2.57,2.57,0,1,1-3.59.57A2.57,2.57,0,0,1,194.68,355.64Z" transform="translate(-152.23 -294.47)"/><path class="cls-1" d="M188.27,365a2.57,2.57,0,1,1-3.51.94A2.56,2.56,0,0,1,188.27,365Z" transform="translate(-152.23 -294.47)"/><path class="cls-1" d="M182.88,375a2.57,2.57,0,1,1-3.39,1.3A2.56,2.56,0,0,1,182.88,375Z" transform="translate(-152.23 -294.47)"/><path class="cls-1" d="M178.56,385.51a2.57,2.57,0,1,1-3.24,1.65A2.57,2.57,0,0,1,178.56,385.51Z" transform="translate(-152.23 -294.47)"/><path class="cls-1" d="M175.36,396.41a2.57,2.57,0,1,1-3.05,2A2.58,2.58,0,0,1,175.36,396.41Z" transform="translate(-152.23 -294.47)"/><path class="cls-1" d="M173.32,407.58a2.57,2.57,0,1,1-2.82,2.29A2.58,2.58,0,0,1,173.32,407.58Z" transform="translate(-152.23 -294.47)"/><circle class="cls-1" cx="20.23" cy="127.01" r="2.57"/><path class="cls-1" d="M172.78,430.26a2.57,2.57,0,1,1-2.28,2.82A2.57,2.57,0,0,1,172.78,430.26Z" transform="translate(-152.23 -294.47)"/><path class="cls-1" d="M174.29,441.51a2.57,2.57,0,1,1-2,3.05A2.58,2.58,0,0,1,174.29,441.51Z" transform="translate(-152.23 -294.47)"/><path class="cls-1" d="M177,452.55a2.57,2.57,0,1,1-1.65,3.24A2.57,2.57,0,0,1,177,452.55Z" transform="translate(-152.23 -294.47)"/><path class="cls-1" d="M180.79,463.25a2.57,2.57,0,1,1-1.3,3.39A2.56,2.56,0,0,1,180.79,463.25Z" transform="translate(-152.23 -294.47)"/><path class="cls-1" d="M185.7,473.49a2.57,2.57,0,1,1-.94,3.51A2.57,2.57,0,0,1,185.7,473.49Z" transform="translate(-152.23 -294.47)"/><path class="cls-1" d="M191.66,483.15a2.57,2.57,0,1,1-.57,3.59A2.57,2.57,0,0,1,191.66,483.15Z" transform="translate(-152.23 -294.47)"/><path class="cls-1" d="M198.6,492.15a2.57,2.57,0,1,1-.19,3.63A2.57,2.57,0,0,1,198.6,492.15Z" transform="translate(-152.23 -294.47)"/><path class="cls-1" d="M206.44,500.37a2.57,2.57,0,1,1,.19,3.62A2.55,2.55,0,0,1,206.44,500.37Z" transform="translate(-152.23 -294.47)"/><path class="cls-1" d="M215.09,507.72a2.57,2.57,0,1,1,.57,3.59A2.57,2.57,0,0,1,215.09,507.72Z" transform="translate(-152.23 -294.47)"/><path class="cls-1" d="M224.47,514.13a2.57,2.57,0,1,1,.94,3.51A2.57,2.57,0,0,1,224.47,514.13Z" transform="translate(-152.23 -294.47)"/><path class="cls-1" d="M234.46,519.52a2.57,2.57,0,1,1,1.3,3.4A2.57,2.57,0,0,1,234.46,519.52Z" transform="translate(-152.23 -294.47)"/><path class="cls-1" d="M245,523.84a2.57,2.57,0,1,1,1.65,3.24A2.58,2.58,0,0,1,245,523.84Z" transform="translate(-152.23 -294.47)"/><path class="cls-1" d="M255.86,527a2.57,2.57,0,1,1,2,3.05A2.58,2.58,0,0,1,255.86,527Z" transform="translate(-152.23 -294.47)"/><path class="cls-1" d="M267,529.08a2.57,2.57,0,1,1,2.29,2.83A2.57,2.57,0,0,1,267,529.08Z" transform="translate(-152.23 -294.47)"/><circle class="cls-1" cx="128.7" cy="235.48" r="2.57"/><path class="cls-1" d="M289.71,529.62a2.57,2.57,0,1,1,2.82,2.29A2.57,2.57,0,0,1,289.71,529.62Z" transform="translate(-152.23 -294.47)"/><path class="cls-1" d="M301,528.11a2.57,2.57,0,1,1,3,2A2.57,2.57,0,0,1,301,528.11Z" transform="translate(-152.23 -294.47)"/><path class="cls-1" d="M312,525.43a2.57,2.57,0,1,1,3.24,1.65A2.57,2.57,0,0,1,312,525.43Z" transform="translate(-152.23 -294.47)"/><path class="cls-1" d="M322.7,521.61a2.57,2.57,0,1,1,3.39,1.31A2.56,2.56,0,0,1,322.7,521.61Z" transform="translate(-152.23 -294.47)"/><path class="cls-1" d="M332.94,516.7a2.57,2.57,0,1,1,3.51.94A2.57,2.57,0,0,1,332.94,516.7Z" transform="translate(-152.23 -294.47)"/><path class="cls-1" d="M342.61,510.74a2.57,2.57,0,1,1,3.58.57A2.57,2.57,0,0,1,342.61,510.74Z" transform="translate(-152.23 -294.47)"/><path class="cls-1" d="M351.6,503.8a2.57,2.57,0,1,1,3.63.19A2.55,2.55,0,0,1,351.6,503.8Z" transform="translate(-152.23 -294.47)"/><path class="cls-1" d="M359.82,496a2.57,2.57,0,1,1,3.63-.19A2.57,2.57,0,0,1,359.82,496Z" transform="translate(-152.23 -294.47)"/><path class="cls-1" d="M367.17,487.31a2.57,2.57,0,1,1,3.59-.57A2.57,2.57,0,0,1,367.17,487.31Z" transform="translate(-152.23 -294.47)"/><path class="cls-1" d="M373.58,477.94a2.57,2.57,0,1,1,3.51-.94A2.57,2.57,0,0,1,373.58,477.94Z" transform="translate(-152.23 -294.47)"/><path class="cls-1" d="M379,467.94a2.57,2.57,0,1,1,3.4-1.3A2.58,2.58,0,0,1,379,467.94Z" transform="translate(-152.23 -294.47)"/><path class="cls-1" d="M383.29,457.44a2.57,2.57,0,1,1,3.24-1.65A2.57,2.57,0,0,1,383.29,457.44Z" transform="translate(-152.23 -294.47)"/><path class="cls-1" d="M386.49,446.54a2.57,2.57,0,1,1,3.05-2A2.58,2.58,0,0,1,386.49,446.54Z" transform="translate(-152.23 -294.47)"/><path class="cls-1" d="M388.53,435.37a2.57,2.57,0,1,1,2.83-2.29A2.56,2.56,0,0,1,388.53,435.37Z" transform="translate(-152.23 -294.47)"/><circle class="cls-1" cx="237.17" cy="127.01" r="2.57"/><path class="cls-1" d="M389.07,412.69a2.57,2.57,0,1,1,2.29-2.82A2.56,2.56,0,0,1,389.07,412.69Z" transform="translate(-152.23 -294.47)"/><path class="cls-1" d="M387.56,401.44a2.57,2.57,0,1,1,2-3.05A2.58,2.58,0,0,1,387.56,401.44Z" transform="translate(-152.23 -294.47)"/><path class="cls-1" d="M384.88,390.4a2.57,2.57,0,1,1,1.65-3.24A2.56,2.56,0,0,1,384.88,390.4Z" transform="translate(-152.23 -294.47)"/><path class="cls-1" d="M381.06,379.7a2.57,2.57,0,1,1,1.31-3.39A2.56,2.56,0,0,1,381.06,379.7Z" transform="translate(-152.23 -294.47)"/><path class="cls-1" d="M376.15,369.47a2.57,2.57,0,1,1,.94-3.51A2.58,2.58,0,0,1,376.15,369.47Z" transform="translate(-152.23 -294.47)"/><path class="cls-1" d="M370.19,359.8a2.57,2.57,0,1,1,.57-3.59A2.57,2.57,0,0,1,370.19,359.8Z" transform="translate(-152.23 -294.47)"/><path class="cls-1" d="M363.26,350.8a2.57,2.57,0,1,1,.19-3.62A2.57,2.57,0,0,1,363.26,350.8Z" transform="translate(-152.23 -294.47)"/><path class="cls-1" d="M355.42,342.59a2.57,2.57,0,1,1-.19-3.63A2.58,2.58,0,0,1,355.42,342.59Z" transform="translate(-152.23 -294.47)"/><path class="cls-1" d="M346.76,335.23a2.57,2.57,0,1,1-.57-3.59A2.57,2.57,0,0,1,346.76,335.23Z" transform="translate(-152.23 -294.47)"/><path class="cls-1" d="M337.39,328.82a2.57,2.57,0,1,1-.94-3.51A2.57,2.57,0,0,1,337.39,328.82Z" transform="translate(-152.23 -294.47)"/><path class="cls-1" d="M327.39,323.43a2.57,2.57,0,1,1-1.3-3.39A2.57,2.57,0,0,1,327.39,323.43Z" transform="translate(-152.23 -294.47)"/><path class="cls-1" d="M316.89,319.11a2.57,2.57,0,1,1-1.65-3.24A2.57,2.57,0,0,1,316.89,319.11Z" transform="translate(-152.23 -294.47)"/><path class="cls-1" d="M306,315.91a2.57,2.57,0,1,1-2-3.05A2.57,2.57,0,0,1,306,315.91Z" transform="translate(-152.23 -294.47)"/><path class="cls-1" d="M294.82,313.87a2.57,2.57,0,1,1-2.29-2.83A2.56,2.56,0,0,1,294.82,313.87Z" transform="translate(-152.23 -294.47)"/><path class="cls-1" d="M293.24,335.12a22.84,22.84,0,0,0-4.37-5.41,11.92,11.92,0,0,0-15.91,0,22.76,22.76,0,0,0-4.35,5.38c-2.38,4.05-3.55,9.43-3.55,15.15s1.16,11.1,3.54,15.15a20,20,0,0,0,1.48,2.16,13.82,13.82,0,0,0,21.68,0,20.51,20.51,0,0,0,1.49-2.19c2.38-4.05,3.55-9.44,3.55-15.15S295.62,339.17,293.24,335.12Z" transform="translate(-152.23 -294.47)"/><path class="cls-2" d="M285.25,328.62c5.27,2.73,8.53,8.14,9.83,13.79a33.16,33.16,0,0,1-1.42,20.08,16.56,16.56,0,0,1-5,6.65c4.28-3.6,6-9.56,6.52-14.92.64-6.53-.13-13.75-3.72-19.39A18.65,18.65,0,0,0,285.25,328.62Z" transform="translate(-152.23 -294.47)"/><path class="cls-2" d="M282.39,330.69l-.1.48c-.06.32-.14.78-.2,1.37a36.61,36.61,0,0,0,0,4.94c0,1,0,2.14.12,3.29a15.42,15.42,0,0,0,.72,3.56,15.63,15.63,0,0,0,1.69,3.5,21.19,21.19,0,0,1,1.82,3.7,10.15,10.15,0,0,1,.54,4.12,23.24,23.24,0,0,1-.7,3.92c-.32,1.25-.71,2.43-1.08,3.55s-.73,2.17-1.15,3.11a16.94,16.94,0,0,1-2.62,4.22c-.39.45-.73.79-1,1l-.36.33.34-.35a12.51,12.51,0,0,0,.9-1.05,18.27,18.27,0,0,0,2.41-4.28c.39-.94.71-2,1.05-3.12s.69-2.3,1-3.54a22.81,22.81,0,0,0,.65-3.84,9.82,9.82,0,0,0-.55-3.9,21.5,21.5,0,0,0-1.74-3.62,16.49,16.49,0,0,1-1.7-3.61,13.94,13.94,0,0,1-.66-3.68c-.06-1.19,0-2.29,0-3.32a31.46,31.46,0,0,1,.27-5c.09-.59.19-1,.27-1.36Z" transform="translate(-152.23 -294.47)"/><path class="cls-2" d="M281.36,329.73c-.78,2.91-.46,5.5-.6,8.67a17,17,0,0,0,1.72,8.85A35.55,35.55,0,0,1,285,352.2c1.07,3.24-.38,7-1.28,10.22s-2.1,6.14-4.55,8.47a47.57,47.57,0,0,0,1.75-8.06,19.67,19.67,0,0,0-1.46-8.56c-.91-2.5-2.69-4.66-3.34-7.28-.82-3.28.3-6.76,1.33-10C278.37,334.21,279.19,331.78,281.36,329.73Z" transform="translate(-152.23 -294.47)"/><path class="cls-1" d="M335.87,359.57a16.77,16.77,0,0,0,.55-5.18A8.91,8.91,0,0,0,328,346a17.13,17.13,0,0,0-5.14.55,25.52,25.52,0,0,0-16,16,13.46,13.46,0,0,0-.36,1.92A10.33,10.33,0,0,0,317.92,376a15,15,0,0,0,1.94-.37,25.42,25.42,0,0,0,16-16Z" transform="translate(-152.23 -294.47)"/><path class="cls-2" d="M335.09,351.91c1.34,4.23.2,8.81-2.09,12.48a24.85,24.85,0,0,1-11.37,9.87,12.41,12.41,0,0,1-6.14.89c4.17.36,8.22-1.88,11.33-4.44,3.79-3.11,7.2-7.34,8.29-12.21A14,14,0,0,0,335.09,351.91Z" transform="translate(-152.23 -294.47)"/><path class="cls-2" d="M332.48,351.49l-.31.2c-.19.14-.48.34-.83.62a27.87,27.87,0,0,0-2.63,2.59c-.51.56-1.12,1.15-1.68,1.8a11.38,11.38,0,0,0-1.5,2.26,12,12,0,0,0-1,2.74,15.7,15.7,0,0,1-1,2.92,7.75,7.75,0,0,1-1.89,2.46,16.91,16.91,0,0,1-2.45,1.71c-.83.49-1.66.91-2.44,1.3a24.57,24.57,0,0,1-2.26,1,12.49,12.49,0,0,1-3.61.84,8,8,0,0,1-1,0h0a10.13,10.13,0,0,0,1-.08,13.36,13.36,0,0,0,3.53-1,23.62,23.62,0,0,0,2.21-1.09c.77-.42,1.58-.86,2.4-1.34a17.13,17.13,0,0,0,2.37-1.69,7.32,7.32,0,0,0,1.77-2.35,15.66,15.66,0,0,0,1-2.84,12.7,12.7,0,0,1,1-2.81,11.38,11.38,0,0,1,1.6-2.29c.6-.66,1.21-1.21,1.74-1.77a23.53,23.53,0,0,1,2.76-2.47,10,10,0,0,1,.86-.58Z" transform="translate(-152.23 -294.47)"/><path class="cls-2" d="M332.44,350.43c-1.95,1.14-3.15,2.67-4.9,4.28a12.65,12.65,0,0,0-3.77,5.58,26.09,26.09,0,0,1-1.27,4c-1.15,2.28-3.89,3.49-6.08,4.73a13,13,0,0,1-6.88,2.07,35.26,35.26,0,0,0,5.18-3.34,14.5,14.5,0,0,0,3.75-5.29c.85-1.81,1-3.89,2.09-5.62,1.3-2.16,3.73-3.41,6-4.56C328.49,351.22,330.21,350.37,332.44,350.43Z" transform="translate(-152.23 -294.47)"/><path class="cls-1" d="M226,359.57a17.4,17.4,0,0,1-.55-5.18,8.92,8.92,0,0,1,8.43-8.39,17.13,17.13,0,0,1,5.14.55,25.48,25.48,0,0,1,16,16,13.46,13.46,0,0,1,.36,1.92A10.33,10.33,0,0,1,243.94,376a15.52,15.52,0,0,1-1.95-.37,25.48,25.48,0,0,1-16-16Z" transform="translate(-152.23 -294.47)"/><path class="cls-2" d="M226.76,351.91c-1.33,4.23-.2,8.81,2.1,12.48a24.83,24.83,0,0,0,11.36,9.87,12.42,12.42,0,0,0,6.14.89c-4.16.36-8.22-1.88-11.33-4.44-3.79-3.11-7.2-7.34-8.28-12.21A14,14,0,0,1,226.76,351.91Z" transform="translate(-152.23 -294.47)"/><path class="cls-2" d="M229.37,351.49l.31.2c.2.14.49.34.83.62a27.87,27.87,0,0,1,2.63,2.59c.52.56,1.12,1.15,1.68,1.8a11.42,11.42,0,0,1,1.51,2.26,12,12,0,0,1,.95,2.74,15.74,15.74,0,0,0,1,2.92,7.47,7.47,0,0,0,1.89,2.46,16.3,16.3,0,0,0,2.44,1.71c.83.49,1.66.91,2.45,1.3a24.44,24.44,0,0,0,2.25,1,12.54,12.54,0,0,0,3.62.84,8,8,0,0,0,1,0h0c-.24,0-.59,0-1-.08a13.36,13.36,0,0,1-3.53-1,23.51,23.51,0,0,1-2.2-1.09c-.78-.42-1.59-.86-2.4-1.34a16.64,16.64,0,0,1-2.38-1.69,7.32,7.32,0,0,1-1.77-2.35,15.66,15.66,0,0,1-1-2.84,12.7,12.7,0,0,0-1-2.81,10.63,10.63,0,0,0-1.6-2.29c-.6-.66-1.2-1.21-1.74-1.77a22.75,22.75,0,0,0-2.76-2.47,10,10,0,0,0-.86-.58Z" transform="translate(-152.23 -294.47)"/><path class="cls-2" d="M229.41,350.43c2,1.14,3.15,2.67,4.9,4.28a12.56,12.56,0,0,1,3.77,5.58,27.26,27.26,0,0,0,1.27,4c1.15,2.28,3.89,3.49,6.08,4.73a13,13,0,0,0,6.88,2.07,35.8,35.8,0,0,1-5.18-3.34,14.5,14.5,0,0,1-3.75-5.29c-.84-1.81-1-3.89-2.09-5.62-1.3-2.16-3.73-3.41-6-4.56C233.36,351.22,231.64,350.37,229.41,350.43Z" transform="translate(-152.23 -294.47)"/><path class="cls-1" d="M232.83,476.38c8.12,7.34,18.7,3.91,25.87,2.56,7.39-1.38,29.77-1.69,29.77-1.69a13.91,13.91,0,0,1,4.53.44,4.33,4.33,0,0,1,2.67,2.39c3.07,6.86,13.19,6.2,13.19,6.2,20.93-1,20.46-10.57,20.46-10.57s.47-9.6-20.46-10.57c0,0-10.12-.65-13.19,6.21a4.34,4.34,0,0,1-2.67,2.38,13.91,13.91,0,0,1-4.53.44s-22.38-.31-29.77-1.69c-7.17-1.35-17.75-4.78-25.87,2.56A.9.9,0,0,0,232.83,476.38Z" transform="translate(-152.23 -294.47)"/><path class="cls-2" d="M234.16,475.13a15.84,15.84,0,0,1,7-3.53,26.63,26.63,0,0,1,9.38-.07c3.28.48,6.5,1.33,9.79,1.76s6.78.64,10.17.82c3.55.18,7.1.29,10.66.41,3.34.1,6.85.48,10.18.1a7.12,7.12,0,0,0,4-1.49c1-.86,1.36-2,2.09-3.08a10.6,10.6,0,0,1,6.67-3.88,28.75,28.75,0,0,1,10.46.19,24.84,24.84,0,0,1,7.78,2.34,37,37,0,0,0-15.57-2.52c-3,.24-6.35,1.11-8.38,3.44a16.52,16.52,0,0,0-1.55,2.5,6,6,0,0,1-3.09,2.54c-3.08,1.13-6.83.59-10,.52q-5.24-.12-10.46-.37c-3.42-.16-6.84-.37-10.25-.7s-6.6-1.07-9.9-1.72a32.09,32.09,0,0,0-10.74-.72A18.53,18.53,0,0,0,234.16,475.13Z" transform="translate(-152.23 -294.47)"/><path class="cls-1" d="M223.48,423.91c1.22,0,1.83,1.28,1.83,3.83a14.13,14.13,0,0,1-5.9,11.57,22.19,22.19,0,0,1-5.52,2.72q-10.26,3.75-19.18-.16a19.51,19.51,0,0,1-6.9-4.75,21.4,21.4,0,0,1-3.84-6.58,33.4,33.4,0,0,1-2.2-12.06,46.55,46.55,0,0,1,1.44-11.81,39.64,39.64,0,0,1,4.41-10.49,21.9,21.9,0,0,1,8.44-8,25.56,25.56,0,0,1,12.66-3,25.84,25.84,0,0,1,6.37.84,20.81,20.81,0,0,1,5.42,2.08,11.2,11.2,0,0,1,3.74,3.79,10.85,10.85,0,0,1,1.63,6,11.11,11.11,0,0,1-2.11,6.63,8.3,8.3,0,0,1-3.07,2.43,10.79,10.79,0,0,1-5,1.08c-2.95,0-5-1.09-6.24-3.27a5.35,5.35,0,0,1-.76-2.8c0-1,.41-1.59,1.24-1.75a4.68,4.68,0,0,0,2.5-1.76,5.24,5.24,0,0,0,1.15-3.35,3.9,3.9,0,0,0-1-2.63,6.81,6.81,0,0,0-5.28-2,9,9,0,0,0-6.28,2.63,16.56,16.56,0,0,0-4.27,6.63A43.5,43.5,0,0,0,194,414.33q0,6.71,2.2,10.78,2.68,5,6.81,6.7a16,16,0,0,0,5.95,1,14.46,14.46,0,0,0,10.16-4.23,14.22,14.22,0,0,0,3.17-4A1.44,1.44,0,0,1,223.48,423.91Z" transform="translate(-152.23 -294.47)"/><path class="cls-1" d="M240,412.1l-3.6.12c-.73,0-1.1-.12-1.1-.44a1.3,1.3,0,0,1,.58-1q6.13-4.71,20.71-4.71a33.78,33.78,0,0,1,7.86.72l1,.24c.77.27,1.15.56,1.15.88s-.22.48-.67.64a18.59,18.59,0,0,0-5,2c-1.6.93-2.4,1.59-2.4,2l.57.56a10.15,10.15,0,0,1,4.75,4.55,14.38,14.38,0,0,1,1.87,5.5l.19,2.48a17.37,17.37,0,0,1-5.27,13q-5.28,5.1-14.39,5.1a21.29,21.29,0,0,1-8-1.35,13.63,13.63,0,0,1-4.94-3.08,14.17,14.17,0,0,1-2.54-3.87,16.44,16.44,0,0,1,.15-12.45,12.74,12.74,0,0,1,3-4.71,14.65,14.65,0,0,1,3.79-2.47,11.31,11.31,0,0,1,4.31-1.2c1.09,0,1.63.19,1.63.56l-.57.8a11.62,11.62,0,0,0-3,5.43,22.81,22.81,0,0,0-.91,5.94,17.84,17.84,0,0,0,.76,5.15,11.84,11.84,0,0,0,1.73,3.79,6.6,6.6,0,0,0,2.2,1.88,8.26,8.26,0,0,0,3.84.95,6.85,6.85,0,0,0,3.93-1.31,7.51,7.51,0,0,0,2.78-3.47,20.44,20.44,0,0,0,1.73-8.23q0-6.69-4.08-10.37C249.3,413.32,245.28,412.1,240,412.1Z" transform="translate(-152.23 -294.47)"/><path class="cls-1" d="M283.33,422.23l.48,16a23.32,23.32,0,0,1-1.59,8.9,14.42,14.42,0,0,1-3.88,5.78q-4.69,4.08-8.25,4.63l-1.63.32q-1.44,0-1.44-.72l.48-1.2q7-8.06,7-39.58c0-1.92,0-3.35-.09-4.31a33.92,33.92,0,0,0-4,.24h-.1c-.7,0-1-.29-1-.88l.29-3c.06-.48.51-.72,1.34-.72h3.45v-5.35l.19-7.58a3.81,3.81,0,0,1,.24-1.24,6.51,6.51,0,0,1,2.07-2.07,18.43,18.43,0,0,1,5.37-2.56,20.13,20.13,0,0,1,6.09-1.15c1.69,0,2.54.42,2.54,1.27,0,.32-.29.59-.87.8a7.37,7.37,0,0,0-4.55,4.11q-1.78,3.39-1.78,11.53v2.24c3.27-.11,5.4-.24,6.43-.4.45,0,.67.32.67,1a4.27,4.27,0,0,1-1,2.35,3.11,3.11,0,0,1-2.49,1.44c-1,0-2.22,0-3.69,0Q283.33,418,283.33,422.23Z" transform="translate(-152.23 -294.47)"/><path class="cls-1" d="M306,422.23l.48,16a23.32,23.32,0,0,1-1.59,8.9,14.42,14.42,0,0,1-3.88,5.78q-4.7,4.08-8.25,4.63l-1.63.32q-1.44,0-1.44-.72l.48-1.2q7-8.06,7-39.58c0-1.92,0-3.35-.09-4.31a34,34,0,0,0-4,.24h-.1c-.7,0-1.05-.29-1.05-.88l.29-3c.06-.48.51-.72,1.34-.72h3.45v-5.35l.19-7.58a3.81,3.81,0,0,1,.24-1.24,6.56,6.56,0,0,1,2.06-2.07,18.63,18.63,0,0,1,5.38-2.56,20.13,20.13,0,0,1,6.09-1.15c1.69,0,2.54.42,2.54,1.27,0,.32-.29.59-.87.8a7.37,7.37,0,0,0-4.55,4.11q-1.78,3.39-1.78,11.53v2.24q4.89-.17,6.43-.4c.45,0,.67.32.67,1a4.27,4.27,0,0,1-1,2.35,3.11,3.11,0,0,1-2.49,1.44c-1,0-2.22,0-3.69,0Q306,418,306,422.23Z" transform="translate(-152.23 -294.47)"/><path class="cls-1" d="M343.84,432.53a9.51,9.51,0,0,1-1.49,5.31,10.28,10.28,0,0,1-3.35,3.35,17.55,17.55,0,0,1-4.37,1.72,24.76,24.76,0,0,1-6,.79q-8.05,0-11.89-5t-3.84-12.81A21.83,21.83,0,0,1,317.61,412q4.74-6.06,14.24-6.07,8.63,0,11.7,5a6.75,6.75,0,0,1,1.25,3.63,14.82,14.82,0,0,1-.2,2.72,10.83,10.83,0,0,1-1.34,3,13.13,13.13,0,0,1-3.07,3.59,19.85,19.85,0,0,1-6,3,40,40,0,0,1-9.68,1.92c-.52,0-.77.19-.77.56a5.89,5.89,0,0,0,.62,2.11,11.13,11.13,0,0,0,1.39,2.36q2.12,2.24,6.23,2.23a11.09,11.09,0,0,0,7-2.23,9.53,9.53,0,0,0,2.49-3,1.15,1.15,0,0,1,1-.64c.41,0,.75.3,1,.88A3.72,3.72,0,0,1,343.84,432.53Zm-20.91-10.61.1,2c0,.32.25.48.77.48a15.35,15.35,0,0,0,5.36-1.32,10.13,10.13,0,0,0,3.46-2.43,10.48,10.48,0,0,0,2.49-5.11l.1-1q0-4.31-4.13-4.31a6.25,6.25,0,0,0-5,2.24Q322.94,416,322.93,421.92Z" transform="translate(-152.23 -294.47)"/><path class="cls-1" d="M379.13,432.53a9.51,9.51,0,0,1-1.49,5.31,10.28,10.28,0,0,1-3.35,3.35,17.55,17.55,0,0,1-4.37,1.72,24.76,24.76,0,0,1-6,.79q-8.06,0-11.89-5t-3.84-12.81A21.83,21.83,0,0,1,352.9,412q4.74-6.06,14.24-6.07,8.63,0,11.7,5a6.75,6.75,0,0,1,1.25,3.63,15.94,15.94,0,0,1-.19,2.72,11.26,11.26,0,0,1-1.35,3,13.13,13.13,0,0,1-3.07,3.59,19.85,19.85,0,0,1-6,3,40,40,0,0,1-9.68,1.92c-.52,0-.77.19-.77.56a5.89,5.89,0,0,0,.62,2.11,11.13,11.13,0,0,0,1.39,2.36q2.12,2.24,6.24,2.23a11.08,11.08,0,0,0,7-2.23,9.53,9.53,0,0,0,2.49-3,1.15,1.15,0,0,1,1-.64c.41,0,.75.3,1,.88A3.72,3.72,0,0,1,379.13,432.53Zm-20.91-10.61.1,2c0,.32.25.48.77.48a15.46,15.46,0,0,0,5.37-1.32,10.18,10.18,0,0,0,3.45-2.43,10.48,10.48,0,0,0,2.49-5.11l.1-1q0-4.31-4.13-4.31a6.25,6.25,0,0,0-5,2.24Q358.23,416,358.22,421.92Z" transform="translate(-152.23 -294.47)"/><path class="cls-1" d="M202.15,451.53c.27-.12.45,0,.67.45l1.65,3.6c2.11,4.58,1.76,7.3-1.37,8.74-3.71,1.7-6.3-.81-8-4.45l-.59-1.28-6,2.77c-.36.16-.36.16-1.72-2.79Zm1,5.33-.84-1.82-6.06,2.78.73,1.6c.94,2,2.34,2.67,4.84,1.53C203.4,460.22,204.12,459,203.13,456.86Z" transform="translate(-152.23 -294.47)"/><path class="cls-1" d="M209.15,465.7s.35-.25.74.3l2.31,3.23c2.94,4.11,3.1,6.85.31,8.85a4.75,4.75,0,0,1-6,0,10.41,10.41,0,0,1-3.61,7.21c-.3.22-.47.19-1.36-1-.3-.42-.68-1-1.08-1.59,3.15-2.79,3.72-5.52,3.83-6.78a6.44,6.44,0,0,1-.49-.64l-.82-1.14-5.39,3.86c-.32.24-.34.2-2.21-2.4Zm2,5L210,469.11,204.52,473l1,1.44c1.31,1.82,2.81,2.17,4.94.65C212,474,212.49,472.66,211.12,470.74Z" transform="translate(-152.23 -294.47)"/><path class="cls-1" d="M215.91,496.59c-1.17,1.21-1.25,1.3-1.71.86l-6.82-6.6,11.73-12.15s.32-.28.78.17l6.88,6.65c-1.13,1.18-1.25,1.3-1.69.88L220.51,482l-3.59,3.71,4.31,4.18c-1.06,1.1-1.28,1.34-1.72.92L215.63,487l-4.64,4.8Z" transform="translate(-152.23 -294.47)"/><path class="cls-1" d="M229.33,488.39c.21-.33.5-.18.8,0l2,1.26-.76,8.35c-.11,1.07-.37,2.84-.4,3,.09-.06,1.53-1.15,2.42-1.66l6.78-4.15a.61.61,0,0,1,.77,0l2.23,1.41-9,14.31c-.22.33-.22.33-3-1.44l3.31-5c1.32-2,4-5.18,4.5-5.79-1.7,1.12-4.55,3-5.12,3.32l-3.8,2.05a.44.44,0,0,1-.48-.07l-1.19-.75.35-4.45c0-.64.51-4,.78-6.12l0,0a69.9,69.9,0,0,1-3.2,6.51l-3,4.88c-.21.34-.38.23-2.95-1.4Z" transform="translate(-152.23 -294.47)"/><path class="cls-1" d="M247.4,499.2c.35-.85.38-.84,3.39.39l-6.4,15.66c-.15.37-.19.35-3.19-.88Z" transform="translate(-152.23 -294.47)"/><path class="cls-1" d="M255.87,514.25c-.44,2-.28,3.41,3,4.16a13.14,13.14,0,0,0,3.53.35l3.31-14.46c.1-.41.13-.4,3.3.33l-3.72,16.24a22.24,22.24,0,0,1-6.84-.65c-6.24-1.43-6.48-4-5.84-6.76l2.64-11.55c.09-.41.09-.41,3.37.34Z" transform="translate(-152.23 -294.47)"/><path class="cls-1" d="M273.5,505.65c0-.4.32-.42.68-.43h2.36l3.86,7.43c.49,1,1.22,2.59,1.3,2.76,0-.1.67-1.78,1.15-2.7l3.47-7.14a.61.61,0,0,1,.64-.43l2.64,0,.12,16.91c0,.39,0,.39-3.32.42l.08-6c.06-2.35.59-6.53.66-7.3-.82,1.86-2.2,5-2.52,5.56l-2.09,3.77a.45.45,0,0,1-.44.2h-1.4l-2.12-3.94c-.32-.54-1.75-3.67-2.64-5.56v0a68.15,68.15,0,0,1,.82,7.21l.12,5.71c0,.4-.2.4-3.24.42Z" transform="translate(-152.23 -294.47)"/><path class="cls-1" d="M302.27,503.12c-.1-.28.07-.52.87-.79l3.76-1.26c3-1,6.58-1.54,7.6,1.48a3.92,3.92,0,0,1-2.37,5c1.77-.52,4.69-.9,5.64,1.91,1.32,3.94-1.39,6.68-5.34,8l-4.79,1.61Zm5.26,5.2,1.86-.63a2.63,2.63,0,0,0,1.86-3.63c-.65-1.91-2.14-1.85-3.59-1.37l-1.82.62Zm2.71,8,1.71-.57c1.89-.64,3.17-2.27,2.26-4.94-.81-2.41-2.33-2.16-4.38-1.47l-1.75.59Z" transform="translate(-152.23 -294.47)"/><path class="cls-1" d="M333.89,505.55c.81,1.47.87,1.57.31,1.88l-8.29,4.62-8.22-14.77s-.17-.38.39-.7l8.37-4.65c.79,1.43.88,1.58.35,1.87l-5.57,3.1,2.52,4.52,5.25-2.93c.75,1.35.9,1.63.38,1.92L324.65,503l3.25,5.83Z" transform="translate(-152.23 -294.47)"/><path class="cls-1" d="M346,493l-5.26,4.46,1.43,4.1c.09.29.07.46-.91,1.28-.33.29-1,.81-1.6,1.27l-5.56-17.59c-.1-.24.18-.6.72-1.06a12.05,12.05,0,0,1,1.22-.93l16.42,8.29c.24.15.18.4-.8,1.23-.37.31-.86.72-1.5,1.2Zm-5.92,2.62,4.21-3.57-3.3-1.8a26.76,26.76,0,0,1-4.14-2.72,38.53,38.53,0,0,1,2,4.53Z" transform="translate(-152.23 -294.47)"/><path class="cls-1" d="M355.91,478.51c-1.32-.09-5.74-.81-7.88-1.17,1.43.78,5.29,3.49,6.15,4.13l4.79,3.62c.32.23.32.23-1.63,2.83l-13.49-10.17c-.23-.17-.21-.41.07-.79l1.5-2,8,.44c1.51.13,5.8.81,7.86,1.15l-.06,0a68,68,0,0,1-6.1-4.1l-4.64-3.49c-.34-.26-.29-.32,1.64-2.88l13.5,10.18c.2.15.17.43-.1.78L364.09,479Z" transform="translate(-152.23 -294.47)"/><path class="cls-1" d="M360.17,452a1.56,1.56,0,0,1,.71,1.22,10.53,10.53,0,0,0-2.23,3.29c-1,2.14-1.07,3.79-.11,4.24s1.68.09,3-.62l4.59-2.63c2.28-1.23,3.54-1.3,4.93-.65,2.25,1.06,3.47,3.54,1.15,8.47-1.55,3.3-2.95,4.41-3.57,4.12a2.05,2.05,0,0,1-.94-1.37,8.61,8.61,0,0,0,2.53-3.37c1.21-2.57.76-4-.61-4.63-1-.48-2-.32-3.9.74l-4.33,2.43c-2,1-3.23,1.23-4.28.74-1.88-.89-2.2-3.69-.29-7.75C358.44,452.8,359.54,451.73,360.17,452Z" transform="translate(-152.23 -294.47)"/></svg>