<svg id="Слой_1" data-name="Слой 1" xmlns="http://www.w3.org/2000/svg" viewBox="0 0 267.02 194.86"><defs><style>.cls-1{fill:#4e4d4d;}.cls-2{fill:#fff;}</style></defs><path class="cls-1" d="M290.77,510.29a70.38,70.38,0,1,1,70.38-70.38A70.46,70.46,0,0,1,290.77,510.29Zm0-138.54a68.16,68.16,0,1,0,68.16,68.16A68.24,68.24,0,0,0,290.77,371.75Z" transform="translate(-157.26 -338.73)"/><path class="cls-1" d="M229.15,455.33a64.92,64.92,0,0,1-1-30.91,63.62,63.62,0,0,1,16.32-30,62.77,62.77,0,0,1,46.71-19,65.26,65.26,0,0,1,18.27,3.18A66.56,66.56,0,0,1,324.31,386a85.64,85.64,0,0,0-12.47-5.33,68.94,68.94,0,0,0-16-2.95,61,61,0,0,0-27.62,4.42,64.93,64.93,0,0,0-36.93,39.08C227.45,432.28,227.24,443.86,229.15,455.33Z" transform="translate(-157.26 -338.73)"/><path class="cls-1" d="M290.77,399.78a40.13,40.13,0,1,0,40.12,40.13A40.17,40.17,0,0,0,290.77,399.78Zm0,78a37.91,37.91,0,1,1,37.9-37.91A38,38,0,0,1,290.77,477.82Z" transform="translate(-157.26 -338.73)"/><path class="cls-1" d="M337.23,476.42,328.8,468a46.78,46.78,0,0,0,9.27-28.08,47.31,47.31,0,1,0-47.3,47.3,46.78,46.78,0,0,0,28.08-9.27l8.43,8.43a7,7,0,0,0,10-9.95Zm-1.57,8.39a4.83,4.83,0,0,1-6.81,0L319,475l-.77.6a44.66,44.66,0,0,1-27.5,9.39,45.09,45.09,0,1,1,45.08-45.08,44.6,44.6,0,0,1-9.4,27.5l-.59.77,9.8,9.81A4.83,4.83,0,0,1,335.66,484.81Z" transform="translate(-157.26 -338.73)"/><circle class="cls-1" cx="290.77" cy="439.91" r="36.67" transform="translate(-347.07 318.23) rotate(-80.84)"/><path class="cls-2" d="M267.88,462.79a31.86,31.86,0,0,1-7.58-37.38c5.86-12.91,20.38-20.88,34.43-18.64A33,33,0,0,1,313.65,417c-4.74-3.72-9.74-6.51-15.72-7.69a32.8,32.8,0,0,0-20.28,2.58c-12.22,5.74-19.36,19.2-17.84,32.52C260.6,451.44,263.6,457.32,267.88,462.79Z" transform="translate(-157.26 -338.73)"/><path class="cls-2" d="M262.68,446.73a1.53,1.53,0,0,1-3.05,0,1.53,1.53,0,1,1,3.05,0Z" transform="translate(-157.26 -338.73)"/><path class="cls-2" d="M265,426.81a1.53,1.53,0,1,1-1.53-1.53A1.53,1.53,0,0,1,265,426.81Z" transform="translate(-157.26 -338.73)"/><path class="cls-2" d="M274.44,422.05a1.53,1.53,0,1,1-1.53-1.52A1.53,1.53,0,0,1,274.44,422.05Z" transform="translate(-157.26 -338.73)"/><circle class="cls-2" cx="137.07" cy="70.7" r="1.53"/><path class="cls-2" d="M308.37,413.66a1.53,1.53,0,1,1-1.53-1.53A1.52,1.52,0,0,1,308.37,413.66Z" transform="translate(-157.26 -338.73)"/><path class="cls-2" d="M278,413.84a1.53,1.53,0,1,1-3.05,0,1.53,1.53,0,0,1,3.05,0Z" transform="translate(-157.26 -338.73)"/><path class="cls-2" d="M285.38,415.37a1.53,1.53,0,1,1-1.52-1.53A1.52,1.52,0,0,1,285.38,415.37Z" transform="translate(-157.26 -338.73)"/><circle class="cls-2" cx="102.99" cy="99.81" r="0.91"/><path class="cls-2" d="M262.24,442.56a.76.76,0,0,1-1.52,0,.76.76,0,1,1,1.52,0Z" transform="translate(-157.26 -338.73)"/><path class="cls-2" d="M264.63,436.88a.76.76,0,1,1-.76-.76A.76.76,0,0,1,264.63,436.88Z" transform="translate(-157.26 -338.73)"/><path class="cls-2" d="M264.05,439.45a.34.34,0,1,1-.34-.34A.34.34,0,0,1,264.05,439.45Z" transform="translate(-157.26 -338.73)"/><path class="cls-2" d="M263,431.68a.34.34,0,0,1-.34.34.35.35,0,0,1-.34-.34.34.34,0,0,1,.34-.34A.34.34,0,0,1,263,431.68Z" transform="translate(-157.26 -338.73)"/><path class="cls-2" d="M265,434.11a.34.34,0,1,1-.68,0,.34.34,0,1,1,.68,0Z" transform="translate(-157.26 -338.73)"/><path class="cls-2" d="M266.32,437.22a.34.34,0,0,1-.34.34.34.34,0,0,1,0-.68A.34.34,0,0,1,266.32,437.22Z" transform="translate(-157.26 -338.73)"/><path class="cls-2" d="M263.36,443.66a.34.34,0,0,1-.34.34.34.34,0,0,1,0-.68A.34.34,0,0,1,263.36,443.66Z" transform="translate(-157.26 -338.73)"/><path class="cls-2" d="M265.44,443.22a.34.34,0,1,1-.34-.34A.34.34,0,0,1,265.44,443.22Z" transform="translate(-157.26 -338.73)"/><path class="cls-2" d="M265.32,440.52a.34.34,0,1,1-.34-.34A.34.34,0,0,1,265.32,440.52Z" transform="translate(-157.26 -338.73)"/><path class="cls-2" d="M264.24,447a.34.34,0,1,1-.06.67.34.34,0,1,1,.06-.67Z" transform="translate(-157.26 -338.73)"/><path class="cls-2" d="M261.29,439.57a.34.34,0,0,1-.34.34.34.34,0,1,1,0-.68A.34.34,0,0,1,261.29,439.57Z" transform="translate(-157.26 -338.73)"/><path class="cls-2" d="M262.24,449a.34.34,0,1,1-.34-.34A.35.35,0,0,1,262.24,449Z" transform="translate(-157.26 -338.73)"/><path class="cls-2" d="M262,435.18a.34.34,0,1,1-.34-.34A.34.34,0,0,1,262,435.18Z" transform="translate(-157.26 -338.73)"/><path class="cls-2" d="M267.26,426.81a.34.34,0,1,1-.34-.34A.34.34,0,0,1,267.26,426.81Z" transform="translate(-157.26 -338.73)"/><path class="cls-2" d="M269.53,424.43a.34.34,0,0,1-.34.34.34.34,0,0,1,0-.68A.34.34,0,0,1,269.53,424.43Z" transform="translate(-157.26 -338.73)"/><path class="cls-2" d="M267.6,429.76a.34.34,0,1,1-.34-.34A.34.34,0,0,1,267.6,429.76Z" transform="translate(-157.26 -338.73)"/><path class="cls-2" d="M269.53,430.85a.34.34,0,0,1-.34.34.34.34,0,0,1,0-.68A.34.34,0,0,1,269.53,430.85Z" transform="translate(-157.26 -338.73)"/><path class="cls-2" d="M269.81,428.33a.34.34,0,0,1-.68,0,.34.34,0,0,1,.68,0Z" transform="translate(-157.26 -338.73)"/><path class="cls-2" d="M268.28,433.94a.34.34,0,1,1-.34-.34A.34.34,0,0,1,268.28,433.94Z" transform="translate(-157.26 -338.73)"/><path class="cls-2" d="M266.5,424.42a.34.34,0,1,1-.68,0,.34.34,0,1,1,.68,0Z" transform="translate(-157.26 -338.73)"/><path class="cls-2" d="M272.19,424.42a.34.34,0,0,1-.34.34.35.35,0,0,1-.34-.34.34.34,0,0,1,.34-.34A.34.34,0,0,1,272.19,424.42Z" transform="translate(-157.26 -338.73)"/><path class="cls-2" d="M274,425.62a.35.35,0,0,1-.34.35.35.35,0,0,1,0-.69A.35.35,0,0,1,274,425.62Z" transform="translate(-157.26 -338.73)"/><path class="cls-2" d="M272.19,427.57a.34.34,0,0,1-.34.34.34.34,0,1,1,0-.68A.34.34,0,0,1,272.19,427.57Z" transform="translate(-157.26 -338.73)"/><path class="cls-2" d="M270.58,420.35a.34.34,0,1,1-.34-.34A.34.34,0,0,1,270.58,420.35Z" transform="translate(-157.26 -338.73)"/><path class="cls-2" d="M268.9,419.73a.34.34,0,1,1-.34-.34A.34.34,0,0,1,268.9,419.73Z" transform="translate(-157.26 -338.73)"/><path class="cls-2" d="M275.6,416.22a.34.34,0,0,1-.34.34.34.34,0,0,1,0-.68A.34.34,0,0,1,275.6,416.22Z" transform="translate(-157.26 -338.73)"/><path class="cls-2" d="M278.65,416.56a.34.34,0,1,1-.34-.34A.34.34,0,0,1,278.65,416.56Z" transform="translate(-157.26 -338.73)"/><path class="cls-2" d="M279.94,418.72a.34.34,0,0,1-.34.34.34.34,0,0,1,0-.68A.34.34,0,0,1,279.94,418.72Z" transform="translate(-157.26 -338.73)"/><path class="cls-2" d="M282.2,419.06a.34.34,0,1,1-.34-.34A.34.34,0,0,1,282.2,419.06Z" transform="translate(-157.26 -338.73)"/><path class="cls-2" d="M286.07,417a.35.35,0,0,1-.69,0,.35.35,0,0,1,.69,0Z" transform="translate(-157.26 -338.73)"/><path class="cls-2" d="M278.31,420.42a.34.34,0,0,1-.34.34.34.34,0,0,1,0-.68A.34.34,0,0,1,278.31,420.42Z" transform="translate(-157.26 -338.73)"/><path class="cls-2" d="M281.36,416.07a.34.34,0,1,1-.34-.34A.34.34,0,0,1,281.36,416.07Z" transform="translate(-157.26 -338.73)"/><path class="cls-2" d="M282,417.37a.34.34,0,1,1-.34-.34A.35.35,0,0,1,282,417.37Z" transform="translate(-157.26 -338.73)"/><path class="cls-2" d="M284.2,417.79a.34.34,0,1,1-.34-.34A.35.35,0,0,1,284.2,417.79Z" transform="translate(-157.26 -338.73)"/><path class="cls-2" d="M282.25,411.72a.34.34,0,1,1-.34-.34A.34.34,0,0,1,282.25,411.72Z" transform="translate(-157.26 -338.73)"/><path class="cls-2" d="M285.3,412.74a.34.34,0,1,1-.68,0,.34.34,0,1,1,.68,0Z" transform="translate(-157.26 -338.73)"/><path class="cls-2" d="M287.39,414.21a.34.34,0,1,1-.34-.34A.34.34,0,0,1,287.39,414.21Z" transform="translate(-157.26 -338.73)"/><path class="cls-2" d="M288.49,416.22a.34.34,0,1,1-.34-.34A.34.34,0,0,1,288.49,416.22Z" transform="translate(-157.26 -338.73)"/><path class="cls-2" d="M289.59,413.32a.34.34,0,0,1-.34.34.34.34,0,1,1,0-.68A.34.34,0,0,1,289.59,413.32Z" transform="translate(-157.26 -338.73)"/><path class="cls-2" d="M291.17,410.05a.34.34,0,1,1-.34-.34A.34.34,0,0,1,291.17,410.05Z" transform="translate(-157.26 -338.73)"/><path class="cls-2" d="M291.85,412.64a.34.34,0,0,1-.68,0,.34.34,0,0,1,.68,0Z" transform="translate(-157.26 -338.73)"/><path class="cls-2" d="M289.31,411.72a.35.35,0,1,1-.35-.34A.35.35,0,0,1,289.31,411.72Z" transform="translate(-157.26 -338.73)"/><path class="cls-2" d="M293.31,413.87a.34.34,0,1,1-.68,0,.34.34,0,1,1,.68,0Z" transform="translate(-157.26 -338.73)"/><path class="cls-2" d="M291.72,415.37a.34.34,0,1,1-.34-.34A.34.34,0,0,1,291.72,415.37Z" transform="translate(-157.26 -338.73)"/><path class="cls-2" d="M295.59,413.32a.34.34,0,0,1-.34.34.34.34,0,1,1,0-.68A.34.34,0,0,1,295.59,413.32Z" transform="translate(-157.26 -338.73)"/><path class="cls-2" d="M295.93,414.76a.34.34,0,0,1-.34.34.34.34,0,1,1,0-.68A.34.34,0,0,1,295.93,414.76Z" transform="translate(-157.26 -338.73)"/><path class="cls-2" d="M299.09,411.38a.34.34,0,1,1-.34-.34A.34.34,0,0,1,299.09,411.38Z" transform="translate(-157.26 -338.73)"/><path class="cls-2" d="M300.42,413.26a.34.34,0,1,1-.34-.34A.34.34,0,0,1,300.42,413.26Z" transform="translate(-157.26 -338.73)"/><path class="cls-2" d="M303.35,412.64a.34.34,0,0,1-.68,0,.34.34,0,0,1,.68,0Z" transform="translate(-157.26 -338.73)"/><path class="cls-2" d="M302.68,414.42a.34.34,0,1,1-.34-.34A.34.34,0,0,1,302.68,414.42Z" transform="translate(-157.26 -338.73)"/><path class="cls-2" d="M309.19,415a.34.34,0,0,1-.68,0,.34.34,0,0,1,.68,0Z" transform="translate(-157.26 -338.73)"/><path class="cls-2" d="M304.91,415.71a.34.34,0,0,1-.34.34.34.34,0,1,1,0-.68A.34.34,0,0,1,304.91,415.71Z" transform="translate(-157.26 -338.73)"/><path class="cls-2" d="M307.52,416.53a.34.34,0,0,1-.34.34.34.34,0,0,1-.34-.34.35.35,0,0,1,.34-.34A.34.34,0,0,1,307.52,416.53Z" transform="translate(-157.26 -338.73)"/><path class="cls-2" d="M300.76,414.76a.34.34,0,1,1-.34-.34A.34.34,0,0,1,300.76,414.76Z" transform="translate(-157.26 -338.73)"/><path class="cls-2" d="M305,413.11a.35.35,0,0,1-.69,0,.35.35,0,0,1,.69,0Z" transform="translate(-157.26 -338.73)"/><path class="cls-2" d="M297.8,413.45a.35.35,0,0,1-.34.34.34.34,0,0,1-.34-.34.34.34,0,0,1,.34-.34A.34.34,0,0,1,297.8,413.45Z" transform="translate(-157.26 -338.73)"/><path class="cls-2" d="M279.75,414.55a.34.34,0,1,1-.34-.34A.34.34,0,0,1,279.75,414.55Z" transform="translate(-157.26 -338.73)"/><path class="cls-2" d="M283,414.21a.34.34,0,0,1-.34.34.34.34,0,1,1,0-.68A.34.34,0,0,1,283,414.21Z" transform="translate(-157.26 -338.73)"/><path class="cls-2" d="M286,411.23a.34.34,0,1,1-.68,0,.34.34,0,1,1,.68,0Z" transform="translate(-157.26 -338.73)"/><path class="cls-2" d="M273.64,416.07a.34.34,0,0,1-.34.34.34.34,0,1,1,0-.68A.34.34,0,0,1,273.64,416.07Z" transform="translate(-157.26 -338.73)"/><path class="cls-2" d="M274.78,420.19a.34.34,0,1,1-.34-.34A.34.34,0,0,1,274.78,420.19Z" transform="translate(-157.26 -338.73)"/><path class="cls-2" d="M275.6,423.16a.35.35,0,0,1-.34.34.35.35,0,0,1,0-.69A.35.35,0,0,1,275.6,423.16Z" transform="translate(-157.26 -338.73)"/><path class="cls-2" d="M275.6,418.38a.35.35,0,0,1-.34.34.34.34,0,0,1-.34-.34.34.34,0,0,1,.34-.34A.34.34,0,0,1,275.6,418.38Z" transform="translate(-157.26 -338.73)"/><path class="cls-2" d="M275.94,420.77a.34.34,0,0,1-.68,0,.34.34,0,0,1,.68,0Z" transform="translate(-157.26 -338.73)"/><path class="cls-2" d="M270.92,418.14a.34.34,0,1,1-.34-.35A.34.34,0,0,1,270.92,418.14Z" transform="translate(-157.26 -338.73)"/><path class="cls-2" d="M265,431a.34.34,0,1,1-.34-.34A.35.35,0,0,1,265,431Z" transform="translate(-157.26 -338.73)"/><path class="cls-2" d="M263.44,432.61a.76.76,0,1,1-.76-.76A.76.76,0,0,1,263.44,432.61Z" transform="translate(-157.26 -338.73)"/><path class="cls-2" d="M273,418.14a.77.77,0,0,1-.77.76.76.76,0,0,1-.76-.76.77.77,0,0,1,.76-.77A.78.78,0,0,1,273,418.14Z" transform="translate(-157.26 -338.73)"/><circle class="cls-2" cx="109.24" cy="92.68" r="0.76"/><path class="cls-2" d="M263.11,428.33a.77.77,0,1,1-.77-.76A.76.76,0,0,1,263.11,428.33Z" transform="translate(-157.26 -338.73)"/><path class="cls-2" d="M270.71,426.81a.76.76,0,1,1-.76-.76A.76.76,0,0,1,270.71,426.81Z" transform="translate(-157.26 -338.73)"/><path class="cls-2" d="M277.74,418.38a.76.76,0,1,1-.76-.76A.76.76,0,0,1,277.74,418.38Z" transform="translate(-157.26 -338.73)"/><path class="cls-2" d="M287.16,411a.76.76,0,1,1-.76-.76A.76.76,0,0,1,287.16,411Z" transform="translate(-157.26 -338.73)"/><circle class="cls-2" cx="121.05" cy="74.34" r="0.76"/><path class="cls-2" d="M289.67,414.21a.76.76,0,1,1-.76-.76A.76.76,0,0,1,289.67,414.21Z" transform="translate(-157.26 -338.73)"/><circle class="cls-2" cx="138" cy="72.22" r="0.76"/><path class="cls-2" d="M299,413.66a.76.76,0,1,1-.76-.76A.76.76,0,0,1,299,413.66Z" transform="translate(-157.26 -338.73)"/><circle class="cls-2" cx="144.99" cy="72.22" r="0.76"/><path class="cls-2" d="M269.19,422.05a.76.76,0,1,1-.76-.76A.76.76,0,0,1,269.19,422.05Z" transform="translate(-157.26 -338.73)"/><circle class="cls-2" cx="110.41" cy="80.92" r="0.76"/><path class="cls-1" d="M416.5,451.46,410,440.13l6.35-11.37c2.25-4,4.44-8,6.65-12l1.29-2.35-2.65,0c-4.31.05-8.61.11-12.92.21s-8.62.18-12.93.31-8.61.28-12.92.45-8.62.33-12.93.59c4.31.25,8.62.41,12.93.58s8.61.34,12.92.45,8.62.23,12.93.31c3.42.08,6.84.13,10.25.17-1.86,3.2-3.73,6.4-5.56,9.63l-6.8,11.95-.36.62.13.24,6.87,12.4c1.87,3.37,3.8,6.71,5.73,10q-11.6.15-23.19.48c-4.31.11-8.61.28-12.92.45s-8.62.33-12.93.58c4.31.25,8.62.41,12.93.58s8.61.34,12.92.45c8.62.24,17.24.43,25.85.52l2.64,0L423,463.1C420.84,459.19,418.72,455.3,416.5,451.46Z" transform="translate(-157.26 -338.73)"/><path class="cls-1" d="M185.75,417c4.31-.11,8.62-.27,12.93-.45s8.61-.33,12.92-.58c-4.31-.26-8.62-.42-12.92-.59s-8.62-.34-12.93-.45-8.62-.22-12.92-.31-8.62-.16-12.93-.21l-2.64,0,1.29,2.35c2.2,4,4.39,8,6.64,12l6.36,11.37L165,451.46c-2.21,3.84-4.33,7.73-6.48,11.64l-1.29,2.34,2.64,0c8.62-.09,17.23-.28,25.85-.52,4.31-.11,8.62-.27,12.93-.45s8.61-.33,12.92-.58c-4.31-.25-8.62-.41-12.92-.58s-8.62-.34-12.93-.45q-11.59-.33-23.18-.48c1.92-3.33,3.85-6.67,5.72-10l6.87-12.4.13-.24-.35-.62-6.81-11.95c-1.82-3.23-3.7-6.43-5.56-9.63,3.42,0,6.84-.09,10.26-.17C177.13,417.22,181.44,417.13,185.75,417Z" transform="translate(-157.26 -338.73)"/><path class="cls-1" d="M395.66,431.87a12.37,12.37,0,0,0-2.4-3,6.56,6.56,0,0,0-8.74,0,12.67,12.67,0,0,0-2.39,3,18.72,18.72,0,0,0,0,16.64,11.3,11.3,0,0,0,.81,1.19,7.59,7.59,0,0,0,11.91,0,10.54,10.54,0,0,0,.82-1.2,18.68,18.68,0,0,0,0-16.64Z" transform="translate(-157.26 -338.73)"/><path class="cls-2" d="M391.28,428.29a11.24,11.24,0,0,1,5.4,7.58,18.33,18.33,0,0,1-.78,11,9.31,9.31,0,0,1-2.73,3.66c2.35-2,3.29-5.26,3.58-8.2.35-3.59-.07-7.55-2-10.65A10.38,10.38,0,0,0,391.28,428.29Z" transform="translate(-157.26 -338.73)"/><path class="cls-2" d="M389.71,429.43l-.06.27c0,.17-.08.42-.11.75a19.25,19.25,0,0,0,0,2.71c0,.56,0,1.18.07,1.81a8.73,8.73,0,0,0,.39,2,8.91,8.91,0,0,0,.93,1.92,12.35,12.35,0,0,1,1,2,5.62,5.62,0,0,1,.3,2.26,12.49,12.49,0,0,1-.39,2.16c-.17.69-.39,1.33-.59,1.95s-.4,1.19-.63,1.71a9.49,9.49,0,0,1-1.44,2.31c-.22.25-.4.44-.53.56l-.2.18.19-.19c.12-.13.29-.32.5-.58a10.46,10.46,0,0,0,1.32-2.35,18,18,0,0,0,.57-1.71c.19-.62.38-1.27.55-1.95a11.92,11.92,0,0,0,.36-2.11,5.4,5.4,0,0,0-.3-2.14,11.39,11.39,0,0,0-1-2,9.14,9.14,0,0,1-.93-2,8.22,8.22,0,0,1-.37-2c0-.66,0-1.26,0-1.83a18,18,0,0,1,.15-2.72,7,7,0,0,1,.15-.75Z" transform="translate(-157.26 -338.73)"/><path class="cls-2" d="M389.13,428.9a21.31,21.31,0,0,0-.32,4.77,9.22,9.22,0,0,0,.94,4.86,20,20,0,0,1,1.4,2.72c.58,1.78-.21,3.83-.7,5.61a9.69,9.69,0,0,1-2.5,4.66,27,27,0,0,0,1-4.43,10.76,10.76,0,0,0-.81-4.7c-.5-1.38-1.47-2.57-1.83-4-.45-1.8.17-3.71.73-5.47A8.58,8.58,0,0,1,389.13,428.9Z" transform="translate(-157.26 -338.73)"/><path class="cls-1" d="M199.4,431.87a12.37,12.37,0,0,0-2.4-3,6.56,6.56,0,0,0-8.74,0,12.42,12.42,0,0,0-2.39,3,18.72,18.72,0,0,0,0,16.64,9.89,9.89,0,0,0,.8,1.19,7.59,7.59,0,0,0,11.91,0,9.38,9.38,0,0,0,.82-1.2,18.72,18.72,0,0,0,0-16.64Z" transform="translate(-157.26 -338.73)"/><path class="cls-2" d="M195,428.29a11.21,11.21,0,0,1,5.4,7.58,18.25,18.25,0,0,1-.78,11,9.29,9.29,0,0,1-2.72,3.66c2.35-2,3.29-5.26,3.58-8.2.35-3.59-.08-7.55-2.05-10.65A10.2,10.2,0,0,0,195,428.29Z" transform="translate(-157.26 -338.73)"/><path class="cls-2" d="M193.44,429.43l-.05.27a5.65,5.65,0,0,0-.11.75,19.25,19.25,0,0,0,0,2.71c0,.56,0,1.18.06,1.81a8.23,8.23,0,0,0,.4,2,8.91,8.91,0,0,0,.93,1.92,11.57,11.57,0,0,1,1,2,5.45,5.45,0,0,1,.3,2.26,12.49,12.49,0,0,1-.38,2.16c-.18.69-.39,1.33-.6,1.95a16.13,16.13,0,0,1-.63,1.71,8.91,8.91,0,0,1-1.44,2.31c-.21.25-.4.44-.52.56l-.2.18.19-.19c.12-.13.29-.32.49-.58a9.73,9.73,0,0,0,1.32-2.35,17.94,17.94,0,0,0,.58-1.71c.19-.62.38-1.27.55-1.95a11.92,11.92,0,0,0,.36-2.11,5.23,5.23,0,0,0-.31-2.14,11.35,11.35,0,0,0-1-2,9.18,9.18,0,0,1-.94-2,7.75,7.75,0,0,1-.36-2c0-.66,0-1.26,0-1.83a15.66,15.66,0,0,1,.15-2.72,7.42,7.42,0,0,1,.14-.75Z" transform="translate(-157.26 -338.73)"/><path class="cls-2" d="M192.87,428.9a21.9,21.9,0,0,0-.33,4.77,9.33,9.33,0,0,0,1,4.86,19.9,19.9,0,0,1,1.39,2.72c.59,1.78-.2,3.83-.7,5.61a9.61,9.61,0,0,1-2.5,4.66,25,25,0,0,0,1-4.43,10.75,10.75,0,0,0-.8-4.7c-.5-1.38-1.48-2.57-1.84-4-.44-1.8.17-3.71.74-5.47A8.58,8.58,0,0,1,192.87,428.9Z" transform="translate(-157.26 -338.73)"/><path class="cls-1" d="M205,386.62c.06-.1.19-.3.4-.6l.66-.92.67-.9a2.67,2.67,0,0,1,.42-.48,10.32,10.32,0,0,1,1.47,0,2.87,2.87,0,0,1,1.38.46l.29.22-1.39,1.31a6.74,6.74,0,0,0-1.18,1.52,6.47,6.47,0,0,0-1,3.16,5.52,5.52,0,0,0,.59,2.67,7.73,7.73,0,0,0,1.64,2.15,16.09,16.09,0,0,0,2.1,1.63,14.77,14.77,0,0,0,3.09,1.42,11.36,11.36,0,0,0,3.42.58,10.18,10.18,0,0,0,3.53-.59,9.59,9.59,0,0,0,3.36-2.08,6.65,6.65,0,0,0,1-1.2,4.34,4.34,0,0,1,1.11-1.15,3.54,3.54,0,0,1,.41.58,1,1,0,0,1,.12.5,1.5,1.5,0,0,1-.16.56,8.26,8.26,0,0,1-.42.78,8.12,8.12,0,0,1-1.91,2.22,21.91,21.91,0,0,1-2.35,1.63,11.44,11.44,0,0,1-4,1.54,12.7,12.7,0,0,1-3.89,0,15.27,15.27,0,0,1-3.7-1.05,25.71,25.71,0,0,1-3.39-1.74,5.87,5.87,0,0,1-1.54-1.5,9.68,9.68,0,0,1-1.2-2.2,13.48,13.48,0,0,1-.73-2.54,8,8,0,0,1-.07-2.47A9.56,9.56,0,0,1,205,386.62Z" transform="translate(-157.26 -338.73)"/><path class="cls-1" d="M215,373.29a6.17,6.17,0,0,1,3.33-2.13,7.57,7.57,0,0,1,3.48.12,11.16,11.16,0,0,1,3.24,1.48,20,20,0,0,1,2.56,2c.46.43.95.92,1.47,1.46a14,14,0,0,1,1.46,1.77,12.37,12.37,0,0,1,1.16,2,6.12,6.12,0,0,1,.57,2.2,5.83,5.83,0,0,1-.31,2.34,7.25,7.25,0,0,1-1.47,2.42,6.58,6.58,0,0,1-2.23,1.72,6,6,0,0,1-2.4.51,7.66,7.66,0,0,1-2.4-.41,14.11,14.11,0,0,1-2.29-1,18.34,18.34,0,0,1-2-1.35q-.94-.72-1.65-1.35a20.38,20.38,0,0,1-2.1-2.26A10.07,10.07,0,0,1,213.7,380a6.86,6.86,0,0,1-.4-3.25A6.35,6.35,0,0,1,215,373.29Zm4.64,8.65c.27.23.62.55,1.06.95s.92.81,1.46,1.23a17.25,17.25,0,0,0,1.71,1.18,7.11,7.11,0,0,0,1.79.78,4,4,0,0,0,1.74.09,2.57,2.57,0,0,0,1.49-.9,2.28,2.28,0,0,0,.64-1.85,4.91,4.91,0,0,0-.65-1.93,9.39,9.39,0,0,0-1.27-1.73c-.48-.52-.89-.92-1.21-1.21s-.64-.56-1.1-1a19.82,19.82,0,0,0-1.56-1.27c-.58-.43-1.2-.85-1.84-1.25a8.56,8.56,0,0,0-1.93-.9,4.46,4.46,0,0,0-1.81-.21,2.25,2.25,0,0,0-1.48.82,2.5,2.5,0,0,0-.71,2,5,5,0,0,0,.8,2.05,10.79,10.79,0,0,0,1.49,1.81C218.81,381.2,219.26,381.63,219.62,381.94Z" transform="translate(-157.26 -338.73)"/><path class="cls-1" d="M232.14,357.48a.55.55,0,0,1,.13-.14.7.7,0,0,1,.3-.13l.31,0a5.14,5.14,0,0,1,2.67,1.51,6.46,6.46,0,0,1-1,.63l-1.1.58-1.17.62a9.13,9.13,0,0,0-1.14.77c-.46.37-.9.75-1.32,1.16s-.82.82-1.21,1.25c.29.36.57.71.86,1.05a4.74,4.74,0,0,0,1,.91l1.36-1.06c.46-.35.92-.7,1.36-1.06.64-.5,1.25-1,1.84-1.55a13.65,13.65,0,0,0,1.63-1.76.71.71,0,0,1,.23.16l.16.21a2.47,2.47,0,0,1,.47,1.43,11,11,0,0,0,.13,1.54,15.4,15.4,0,0,0-3,1.64c-.88.61-1.78,1.29-2.71,2l-.06.34c.92,1.24,1.88,2.44,2.88,3.58s2,2.31,3,3.49a1,1,0,0,0,.68.39c.28,0,.58.06.87.08a7.51,7.51,0,0,1,.86.1,1.06,1.06,0,0,1,.69.42,12,12,0,0,1-1,1c-.35.3-.71.6-1.1.91s-1,.76-1.45,1.12-.95.73-1.43,1.08a.43.43,0,0,1-.7-.05s0-.06,0-.14a.67.67,0,0,1,0-.18q.12-.51.21-1.2a1.62,1.62,0,0,0-.2-1.11,2.49,2.49,0,0,0-.25-.29,3.63,3.63,0,0,0-.28-.27,24.74,24.74,0,0,1-1.66-1.94c-.5-.65-1-1.33-1.53-2a16.94,16.94,0,0,0-1.37-1.61,28.67,28.67,0,0,1-2.77-3.41,8.74,8.74,0,0,0-1.47-1.7.81.81,0,0,0-.49-.2,4.73,4.73,0,0,0-.67,0,4.8,4.8,0,0,1-.67-.05.7.7,0,0,1-.47-.23.51.51,0,0,1-.09-.18.52.52,0,0,0-.11-.19c.79-.63,1.58-1.24,2.35-1.84l2.34-1.84c.78-.62,1.48-1.22,2.13-1.83S231.45,358.16,232.14,357.48Z" transform="translate(-157.26 -338.73)"/><path class="cls-1" d="M247.65,348.39a.37.37,0,0,1,.15-.11.63.63,0,0,1,.32-.07h.32a5.18,5.18,0,0,1,2.35,2,5.92,5.92,0,0,1-1.06.45l-1.19.37c-.41.13-.83.26-1.25.41A7.76,7.76,0,0,0,246,352a16.34,16.34,0,0,0-1.51.91c-.49.33-1,.67-1.41,1,.22.4.43.8.66,1.18a4.77,4.77,0,0,0,.84,1.08c.51-.27,1-.54,1.53-.8l1.52-.8c.72-.39,1.42-.79,2.09-1.21a13.18,13.18,0,0,0,1.92-1.44.59.59,0,0,1,.19.2l.12.23a2.45,2.45,0,0,1,.21,1.49,11.75,11.75,0,0,0-.14,1.54,16.44,16.44,0,0,0-3.22,1.08q-1.47.69-3,1.53l-.12.33q1,2.07,2.2,4t2.34,4a1,1,0,0,0,.6.5q.41.14.84.24c.29.07.57.15.83.24a1.13,1.13,0,0,1,.6.54,11.8,11.8,0,0,1-1.19.8c-.39.24-.8.47-1.24.7s-1.08.58-1.62.85l-1.61.81a.43.43,0,0,1-.68-.17.42.42,0,0,1,0-.14v-.19a11.15,11.15,0,0,0,.42-1.15,1.53,1.53,0,0,0,0-1.12c-.06-.12-.13-.23-.19-.33l-.23-.32a25,25,0,0,1-1.29-2.19c-.38-.74-.76-1.5-1.15-2.27a15.46,15.46,0,0,0-1.06-1.83,18.35,18.35,0,0,1-1.1-1.82,20.26,20.26,0,0,1-1-2,9.43,9.43,0,0,0-1.14-1.94.85.85,0,0,0-.45-.28,5.65,5.65,0,0,0-.65-.15,6.36,6.36,0,0,1-.66-.17.74.74,0,0,1-.42-.32.78.78,0,0,1,0-.18.54.54,0,0,0-.08-.21l2.64-1.4,2.64-1.4c.86-.46,1.67-.93,2.41-1.41S246.85,348.94,247.65,348.39Z" transform="translate(-157.26 -338.73)"/><path class="cls-1" d="M265.82,341.76a.9.9,0,0,1,.63.19,7.79,7.79,0,0,1,.87.62c.29.25.56.48.8.72a1.63,1.63,0,0,1,.41.52.71.71,0,0,1,0,.43.51.51,0,0,1-.37.31,2.59,2.59,0,0,1-.56,0l-1.14.06c-.44,0-.93.08-1.46.15a9.58,9.58,0,0,0-1.51.32c-.62.19-1.23.4-1.85.63l-1.82.68a8.25,8.25,0,0,0,.21,1.19c.09.39.2.78.31,1.16a.37.37,0,0,0,.27.24,2.13,2.13,0,0,0,.42.1l2.34-.71c1-.3,2-.62,3-1a13.52,13.52,0,0,0,2.88-1.31,3.51,3.51,0,0,1,.09.82c0,.38,0,.77,0,1.19a3.91,3.91,0,0,1-.24,1.12.91.91,0,0,1-.55.62,1,1,0,0,1-.48,0l-.55-.12-.54-.15a1.36,1.36,0,0,0-.53,0,14.39,14.39,0,0,0-1.74.39l-1.71.5-.72.23a2.07,2.07,0,0,0-.58.25.82.82,0,0,0-.35.39.91.91,0,0,0,0,.63l.14.48c.51,1.33,1,2.65,1.45,4l1.37,4,1.18-.52c.4-.16.82-.31,1.24-.44a12.74,12.74,0,0,1,2-.43,11.72,11.72,0,0,0,2-.43,2.94,2.94,0,0,0,.87-.42c.24-.17.45-.35.66-.52s.41-.35.62-.52a2.3,2.3,0,0,1,.73-.38,1,1,0,0,1,.5.47,2.56,2.56,0,0,1,0,.66c0,.34-.08.72-.14,1.12s-.11.8-.15,1.16a4.8,4.8,0,0,1-.12.75,8.7,8.7,0,0,1-2,.25,7.12,7.12,0,0,0-2,.28c-.46.11-.9.24-1.34.37l-1.33.41c-1.13.34-2.23.7-3.29,1.08s-2.16.73-3.29,1.08a.73.73,0,0,1-.56,0,.6.6,0,0,1-.34-.36.52.52,0,0,1,.15-.46,4.77,4.77,0,0,0,.43-.68,3.22,3.22,0,0,0,.33-1,3.49,3.49,0,0,0-.18-1.53,16.87,16.87,0,0,0-.66-2,16.87,16.87,0,0,1-.66-2c-.14-.47-.26-.94-.37-1.42s-.22-.95-.34-1.43c-.08-.28-.21-.68-.36-1.19s-.33-1-.51-1.59-.36-1.07-.55-1.55a10.1,10.1,0,0,0-.46-1.07,1.69,1.69,0,0,0-.54-.52c-.26-.17-.53-.33-.81-.49l-.76-.44c-.22-.13-.34-.23-.36-.31s0-.28.21-.39l.48-.25A33.31,33.31,0,0,1,258,344.6c1.11-.31,2.22-.63,3.33-1a13.88,13.88,0,0,0,2.43-1A12.85,12.85,0,0,1,265.82,341.76Z" transform="translate(-157.26 -338.73)"/><path class="cls-1" d="M286.87,338.73a.91.91,0,0,1,.59.33,7.91,7.91,0,0,1,.72.78q.35.45.63.87a1.69,1.69,0,0,1,.29.6.69.69,0,0,1-.11.41.53.53,0,0,1-.43.23,2.52,2.52,0,0,1-.55-.09c-.31-.06-.69-.12-1.13-.18s-.92-.12-1.46-.16a8.8,8.8,0,0,0-1.54,0c-.64.05-1.29.13-1.94.22L280,342a9.8,9.8,0,0,0,0,1.21q0,.61.06,1.2a.35.35,0,0,0,.22.29,1.69,1.69,0,0,0,.38.19l2.44-.2,3.19-.3a13.17,13.17,0,0,0,3.08-.68,3.45,3.45,0,0,1-.07.82,10.81,10.81,0,0,1-.28,1.16,3.86,3.86,0,0,1-.47,1.05.92.92,0,0,1-.66.48.81.81,0,0,1-.47-.09l-.51-.24-.5-.25a1.23,1.23,0,0,0-.52-.14,15.22,15.22,0,0,0-1.78,0l-1.77.14-.76.06a2.27,2.27,0,0,0-.62.13.82.82,0,0,0-.42.3.88.88,0,0,0-.11.62l0,.5c.21,1.41.41,2.81.58,4.19s.33,2.78.5,4.19l1.26-.25c.43-.08.86-.13,1.31-.17a11.81,11.81,0,0,1,2.06,0,12.88,12.88,0,0,0,2.06,0,3.08,3.08,0,0,0,1-.23l.75-.38.71-.37a2.31,2.31,0,0,1,.8-.22.89.89,0,0,1,.38.56,2.07,2.07,0,0,1-.15.64c-.11.33-.23.68-.37,1.07l-.39,1.11a5.11,5.11,0,0,1-.28.7,8.56,8.56,0,0,1-2-.17,7.8,7.8,0,0,0-2-.14l-1.39.08-1.38.12c-1.18.1-2.33.22-3.45.37s-2.26.27-3.44.37a.72.72,0,0,1-.53-.17.54.54,0,0,1-.26-.42q0-.21.24-.42a6.11,6.11,0,0,0,.56-.57,3.32,3.32,0,0,0,.54-.94,3.54,3.54,0,0,0,.15-1.53,17.8,17.8,0,0,0-.24-2.06,17.78,17.78,0,0,1-.23-2.06q-.06-.74-.06-1.47c0-.48,0-1,0-1.47,0-.29-.06-.71-.1-1.24s-.1-1.08-.16-1.66-.13-1.13-.21-1.64a10.54,10.54,0,0,0-.23-1.14,1.79,1.79,0,0,0-.43-.62c-.21-.22-.44-.43-.68-.65l-.65-.59c-.19-.17-.28-.29-.29-.37s.08-.27.29-.34l.52-.15a31.22,31.22,0,0,1,3.44-.39c1.15-.07,2.3-.15,3.46-.25a13.88,13.88,0,0,0,2.58-.46A12.21,12.21,0,0,1,286.87,338.73Z" transform="translate(-157.26 -338.73)"/><path class="cls-1" d="M316.08,342.42c.95.17,1.91.37,2.89.6l2.9.69a2,2,0,0,1,.65.29l.57.35a1.87,1.87,0,0,1-.74.75,4.37,4.37,0,0,0-.69.33,2.17,2.17,0,0,0-.65.64,5.6,5.6,0,0,0-.65,1.64c-.07.31-.2.81-.37,1.52s-.37,1.52-.59,2.42-.45,1.85-.68,2.84-.43,1.91-.61,2.76-.34,1.58-.46,2.19a5.78,5.78,0,0,0-.17,1.14,1.11,1.11,0,0,0,.19.43l.39.58c.14.21.28.4.43.59a1.81,1.81,0,0,1,.28.48.59.59,0,0,1-.62.52,2.52,2.52,0,0,1-.52-.06l-.54-.14q-1.36-.33-2.79-.75c-.95-.29-1.87-.58-2.76-.88a2.15,2.15,0,0,1,.5-.5c.22-.16.43-.31.65-.45l.59-.39a1.38,1.38,0,0,0,.39-.36,4.41,4.41,0,0,0,.56-1.37c.14-.55.26-1,.36-1.49.27-1,.51-1.94.72-2.9s.44-1.94.71-2.91a.89.89,0,0,0,0-.43c0-.13-.15-.24-.35-.33-.54-.19-1.09-.36-1.64-.5s-1.1-.29-1.65-.42l-1.24-.28-1.27-.21c-.29,1.41-.59,2.81-.91,4.2s-.66,2.77-1,4.16a1.87,1.87,0,0,0,0,1.13,3.49,3.49,0,0,0,.44.86,8,8,0,0,1,.46.75,1.11,1.11,0,0,1,.09.8l-3-.58c-1-.19-2-.41-2.95-.65a2.9,2.9,0,0,1-1.26-.64,2.52,2.52,0,0,1,.81-.75c.28-.13.53-.27.77-.4a2.62,2.62,0,0,0,.68-.59,3.29,3.29,0,0,0,.54-1.3,20.75,20.75,0,0,0,.49-2.07c.13-.7.28-1.4.45-2.09.35-1.42.73-2.88,1.15-4.37a22.59,22.59,0,0,0,.77-4.4,1.13,1.13,0,0,0-.12-.61c-.1-.21-.22-.43-.34-.65s-.24-.44-.35-.66a1.89,1.89,0,0,1-.2-.68c.64.08,1.26.17,1.86.29s1.19.24,1.79.39c1.17.29,2.35.6,3.54.95a1.76,1.76,0,0,1-.67.63l-.84.47a4.76,4.76,0,0,0-.77.53,1.41,1.41,0,0,0-.48.78,3.5,3.5,0,0,0-.09.67c0,.23,0,.46,0,.68,1,.25,2,.48,3,.71s2,.48,3,.77a2,2,0,0,0,.12-.26c0-.09.06-.18.09-.27a3,3,0,0,0,.11-1.56,3.51,3.51,0,0,0-.42-1l-.49-.75A1.09,1.09,0,0,1,316.08,342.42Zm-5.54,4.45a.58.58,0,0,1-.14.24.47.47,0,0,0-.13.24.75.75,0,0,0,.33.26,1.79,1.79,0,0,0,.41.13l5.25,1.29a.62.62,0,0,0,.36-.37,5.52,5.52,0,0,0-1.57-.69c-.6-.17-1.17-.32-1.7-.45l-1.41-.33Z" transform="translate(-157.26 -338.73)"/><path class="cls-1" d="M334.58,349a6.07,6.07,0,0,1,2.95,2.63,7.44,7.44,0,0,1,.82,3.39,10.87,10.87,0,0,1-.56,3.51,19.85,19.85,0,0,1-1.21,3c-.3.56-.64,1.17-1,1.81a15.59,15.59,0,0,1-1.31,1.89,13.54,13.54,0,0,1-1.64,1.66,6.62,6.62,0,0,1-2,1.14,5.91,5.91,0,0,1-2.33.33,7.26,7.26,0,0,1-2.73-.77,6.6,6.6,0,0,1-2.26-1.69,5.84,5.84,0,0,1-1.13-2.18,7.5,7.5,0,0,1-.25-2.42,13,13,0,0,1,.36-2.47,16.57,16.57,0,0,1,.75-2.32c.29-.73.58-1.39.85-2a23.48,23.48,0,0,1,1.62-2.62,10.25,10.25,0,0,1,2.31-2.38,6.92,6.92,0,0,1,3-1.25A6.23,6.23,0,0,1,334.58,349Zm-7.08,6.79c-.15.32-.36.75-.63,1.27s-.53,1.11-.8,1.74a18.08,18.08,0,0,0-.67,2,6.81,6.81,0,0,0-.27,1.94,3.85,3.85,0,0,0,.38,1.7,2.55,2.55,0,0,0,1.26,1.2,2.34,2.34,0,0,0,2,.12,5.2,5.2,0,0,0,1.68-1.15,9.36,9.36,0,0,0,1.33-1.68q.56-.92.84-1.5c.15-.33.37-.76.65-1.32a19.28,19.28,0,0,0,.81-1.85c.25-.67.49-1.38.7-2.11a8.09,8.09,0,0,0,.35-2.1,4.41,4.41,0,0,0-.28-1.79,2.23,2.23,0,0,0-1.19-1.21,2.49,2.49,0,0,0-2.15-.14,5,5,0,0,0-1.77,1.33,10.12,10.12,0,0,0-1.33,1.92C328,354.8,327.71,355.36,327.5,355.79Z" transform="translate(-157.26 -338.73)"/><path class="cls-1" d="M350.19,358.67a1.59,1.59,0,0,1,.36.38,3.43,3.43,0,0,0,.29.41,2.4,2.4,0,0,1-.64.17l-.73.07-.73.1a1.35,1.35,0,0,0-.57.24,23.74,23.74,0,0,0-2.18,2.19c-.69.79-1.38,1.61-2.07,2.45l-2,2.53c-.67.84-1.34,1.64-2,2.39a1.71,1.71,0,0,1-.77.47,8.86,8.86,0,0,0-.87.29,1.4,1.4,0,0,0,.15,1.06,6.16,6.16,0,0,0,.79,1.22,10.47,10.47,0,0,0,1.08,1.13c.38.35.71.63,1,.84a5,5,0,0,0,1.88.89c.69.16,1.37.33,2,.52a2.36,2.36,0,0,0,.11-.72,1.56,1.56,0,0,1,.13-.7,19.57,19.57,0,0,1,1.57-2.84c.6-.89,1.23-1.77,1.88-2.65s1.3-1.76,1.93-2.64a23.83,23.83,0,0,0,1.72-2.75,1.59,1.59,0,0,0,.13-.66c0-.24,0-.49-.05-.74a6.26,6.26,0,0,1,0-.75,1.22,1.22,0,0,1,.24-.65l.11-.15,4.28,3.25a3.17,3.17,0,0,1,.34.3.83.83,0,0,1,.21.38,1.62,1.62,0,0,1-.7.25l-.84.1a5.76,5.76,0,0,0-.8.14,1,1,0,0,0-.57.35,20.53,20.53,0,0,0-2.15,3.17c-.63,1.13-1.29,2.23-2,3.3-.47.69-.92,1.36-1.37,2s-.88,1.34-1.31,2.06a1.29,1.29,0,0,0-.14.5,3.25,3.25,0,0,0,0,.54,4.35,4.35,0,0,1,0,.51.88.88,0,0,1-.18.45l-.17.17a6.42,6.42,0,0,1-2.06.17,8.71,8.71,0,0,1-2.15-.46,12.94,12.94,0,0,1-2.1-.93,15.42,15.42,0,0,1-1.92-1.24,9.3,9.3,0,0,1-1.43-1.45,18.39,18.39,0,0,1-1.59-2.2,10.48,10.48,0,0,1-1.09-2.21,1.7,1.7,0,0,1,.05-1.6.61.61,0,0,1,.39-.27l.51-.06a2,2,0,0,0,.83-.24,3,3,0,0,0,.72-.51,5.68,5.68,0,0,0,.61-.68,7.34,7.34,0,0,1,.52-.62c1.09-1.28,2.2-2.56,3.31-3.85s2.21-2.58,3.26-3.89a1.47,1.47,0,0,0,.27-.6,2.42,2.42,0,0,0,0-.66c0-.23-.06-.47-.11-.71a3.4,3.4,0,0,1-.05-.69l.52,0c.63.56,1.28,1.09,1.95,1.6.36.27.73.52,1.12.77S349.83,358.4,350.19,358.67Z" transform="translate(-157.26 -338.73)"/><path class="cls-1" d="M365.26,372.82a9.35,9.35,0,0,1,1,1.33,8.61,8.61,0,0,0,1,1.3,2.71,2.71,0,0,0,.61.51,4.54,4.54,0,0,1,.67.48,4.56,4.56,0,0,1-.46,1.45c-.23.44-.46.89-.66,1.34l-.43-.16c-.37-.83-.74-1.63-1.12-2.38a9.87,9.87,0,0,0-1.52-2.22,3.08,3.08,0,0,0-1.63-1,1.81,1.81,0,0,0-1.61.39,2.32,2.32,0,0,0-.52.69,1.66,1.66,0,0,0-.2.9,12.31,12.31,0,0,0,.23,1.8c.11.61.24,1.21.38,1.81s.26,1.2.37,1.8a10.13,10.13,0,0,1,.13,1.82,10.32,10.32,0,0,1-.47,2.87,5.05,5.05,0,0,1-1.52,2.28,4.68,4.68,0,0,1-2.21,1.05,6.14,6.14,0,0,1-2.52-.07,9,9,0,0,1-2.57-1.06,10.12,10.12,0,0,1-2.29-1.92,6.22,6.22,0,0,1-1-1.44,6.85,6.85,0,0,0-1-1.4,3,3,0,0,0-.94-.74,5.65,5.65,0,0,1,1.49-3.23,2.47,2.47,0,0,1,.51.93l.4,1.22a14,14,0,0,0,.57,1.42,6.87,6.87,0,0,0,1.07,1.55,5.68,5.68,0,0,0,3,1.94,3.4,3.4,0,0,0,2.94-.82,3.33,3.33,0,0,0,1.17-1.94,8.42,8.42,0,0,0,.07-2.42,22.31,22.31,0,0,0-.48-2.66,20.19,20.19,0,0,1-.46-2.67,8.49,8.49,0,0,1,.08-2.43,3.32,3.32,0,0,1,1.19-2,3.06,3.06,0,0,1,1.57-.7,4,4,0,0,1,1.78.14,6.48,6.48,0,0,1,1.77.84A8.88,8.88,0,0,1,365.26,372.82Z" transform="translate(-157.26 -338.73)"/><path class="cls-1" d="M380.26,392.52a.93.93,0,0,1,0,.67,8.3,8.3,0,0,1-.39,1c-.17.34-.34.66-.51.95a1.58,1.58,0,0,1-.41.52.67.67,0,0,1-.43.08.52.52,0,0,1-.39-.28,5,5,0,0,1-.16-.53c-.08-.31-.18-.68-.32-1.1s-.3-.89-.49-1.39a10.53,10.53,0,0,0-.67-1.39c-.33-.55-.68-1.1-1.05-1.64l-1.09-1.61a9.79,9.79,0,0,0-1.11.48c-.36.19-.71.38-1.05.58a.38.38,0,0,0-.17.32,2.06,2.06,0,0,0,0,.43l1.24,2.1c.53.89,1.09,1.81,1.66,2.74a13.6,13.6,0,0,0,1.95,2.49,3.48,3.48,0,0,1-.77.28c-.37.1-.75.19-1.16.26a3.73,3.73,0,0,1-1.15,0,.92.92,0,0,1-.73-.38,1.12,1.12,0,0,1-.12-.47c0-.18,0-.37,0-.56s0-.37,0-.56a1.27,1.27,0,0,0-.1-.52,15.91,15.91,0,0,0-.8-1.6c-.3-.54-.6-1-.89-1.54l-.39-.65a2.26,2.26,0,0,0-.38-.5.84.84,0,0,0-.46-.25,1,1,0,0,0-.61.17l-.43.25c-1.17.81-2.35,1.59-3.52,2.35l-3.56,2.28q.41.5.78,1c.26.35.5.72.73,1.1a12.19,12.19,0,0,1,.89,1.86,10.63,10.63,0,0,0,.9,1.86,2.62,2.62,0,0,0,.61.75c.23.19.45.36.67.51l.64.48a2.12,2.12,0,0,1,.55.63.94.94,0,0,1-.34.59,2.48,2.48,0,0,1-.64.14l-1.13.13-1.17.13q-.54.06-.75.06a8.47,8.47,0,0,1-.7-1.85,7.76,7.76,0,0,0-.74-1.86c-.22-.41-.45-.82-.68-1.21s-.47-.79-.71-1.2c-.61-1-1.22-2-1.83-2.94s-1.23-1.92-1.83-2.94a.75.75,0,0,1-.09-.55.65.65,0,0,1,.27-.42.52.52,0,0,1,.49,0,4.74,4.74,0,0,0,.76.26,3.24,3.24,0,0,0,1.07.07,3.41,3.41,0,0,0,1.44-.53,15.32,15.32,0,0,0,1.76-1.11,16.74,16.74,0,0,1,1.76-1.1c.42-.25.85-.49,1.29-.7l1.31-.67,1.07-.63,1.43-.87c.49-.31.95-.61,1.37-.91a7.79,7.79,0,0,0,.93-.7,1.59,1.59,0,0,0,.37-.65c.11-.29.2-.59.29-.9s.18-.59.25-.84a.85.85,0,0,1,.21-.42c.14-.08.28-.05.43.11a3.9,3.9,0,0,1,.36.41,31.22,31.22,0,0,1,1.86,2.92c.56,1,1.13,2,1.73,3a13.52,13.52,0,0,0,1.53,2.12A11.59,11.59,0,0,1,380.26,392.52Z" transform="translate(-157.26 -338.73)"/><path class="cls-1" d="M216.45,470.06c.21-.1.35,0,.49.27l1.11,2.4c1.4,3,1,4.95-1.5,6.1-3,1.36-4.85-.23-6-2.65l-.39-.85-4.81,2.22c-.29.13-.29.13-1.19-1.83Zm.49,3.62-.56-1.21-4.84,2.24.49,1.06c.63,1.36,1.69,1.72,3.68.8C217,476,217.6,475.11,216.94,473.68Z" transform="translate(-157.26 -338.73)"/><path class="cls-1" d="M220.77,479.05s.29-.18.53.21l1.4,2.23c1.78,2.85,1.61,4.78-.72,6.24a3.77,3.77,0,0,1-4.51.08A8.8,8.8,0,0,1,214,493c-.25.16-.38.15-.92-.71-.18-.3-.4-.69-.64-1.11a8.88,8.88,0,0,0,3.62-4.84,3.45,3.45,0,0,1-.3-.44l-.5-.79-4.49,2.81c-.27.16-.28.14-1.41-1.67Zm.95,3.53-.71-1.13-4.52,2.82.62,1c.79,1.26,1.89,1.49,3.67.38C222.05,484.85,222.55,483.91,221.72,482.58Z" transform="translate(-157.26 -338.73)"/><path class="cls-1" d="M221.27,500.53c-1,.84-1.12.9-1.39.57l-4-4.93,10.51-8.45a.39.39,0,0,1,.54.14l4,5c-1,.81-1.13.9-1.38.59l-2.66-3.31-3.22,2.59,2.51,3.12c-.95.76-1.15.93-1.4.62l-2.26-2.81L218.41,497Z" transform="translate(-157.26 -338.73)"/><path class="cls-1" d="M232,494.56c.22-.23.39-.1.57.07l1.14,1.07-2.24,6.09c-.29.78-.84,2.06-.89,2.2.07,0,1.3-.73,2-1l5.61-2.54a.41.41,0,0,1,.54,0l1.28,1.21-9.25,9.85c-.22.23-.22.23-1.83-1.29l3.35-3.44c1.32-1.33,3.88-3.51,4.34-3.92-1.42.7-3.81,1.87-4.28,2.06l-3.08,1.22a.3.3,0,0,1-.33-.09l-.67-.64,1.15-3.25c.14-.47,1.18-2.93,1.79-4.44h0s-2.15,3-3.58,4.55l-3.09,3.36c-.21.23-.31.14-1.79-1.25Z" transform="translate(-157.26 -338.73)"/><path class="cls-1" d="M241.81,503.81c.44-.59.46-.57,2.19.72l-8.09,10.83c-.18.25-.21.24-1.94-1.06Z" transform="translate(-157.26 -338.73)"/><path class="cls-1" d="M243.05,515.79c-.82,1.38-1.11,2.49.82,3.64a7.67,7.67,0,0,0,2.2.89l6-10.2c.17-.29.2-.27,2,.83l-6.78,11.45a12.74,12.74,0,0,1-4.27-1.7c-3.67-2.18-3.14-4.11-2-6.09l4.82-8.14c.18-.28.18-.28,2.1.86Z" transform="translate(-157.26 -338.73)"/><path class="cls-1" d="M256.26,512.42c.12-.29.32-.23.54-.15l1.47.58.16,6.48c0,.83,0,2.22,0,2.37,0-.06.94-1.15,1.51-1.72l4.27-4.42c.15-.15.28-.25.52-.15l1.64.64-5,12.56c-.12.29-.12.29-2.18-.52l1.84-4.43c.75-1.73,2.32-4.69,2.6-5.24-1.07,1.17-2.85,3.14-3.22,3.48L258,524.17a.27.27,0,0,1-.33,0l-.87-.34-.12-3.45c0-.48,0-3.16,0-4.79v0s-.9,3.57-1.65,5.55l-1.63,4.26c-.12.29-.24.24-2.13-.5Z" transform="translate(-157.26 -338.73)"/><path class="cls-1" d="M280.67,520a1.61,1.61,0,0,1-.51.9,3.13,3.13,0,0,0-1.62-.79c-1.65-.29-3.49.29-4.39,5.43-.69,4,.23,5,1.78,5.29a5.16,5.16,0,0,0,2.52-.18,2.13,2.13,0,0,1,.15,1c-.14.76-1.56,1.17-3.51.83-2.49-.44-4.21-1.61-3.21-7.27,1.17-6.66,4.17-7.13,6.51-6.72C280.34,518.8,280.76,519.46,280.67,520Z" transform="translate(-157.26 -338.73)"/><path class="cls-1" d="M287.44,519.42c3.46.15,4.67,1.83,4.44,7.15s-1.82,7.16-5.34,7-4.74-1.69-4.49-7.38C282.27,521,284,519.27,287.44,519.42ZM286.71,532c1.92.08,2.65-1.41,2.83-5.44s-.31-5.37-2.23-5.45-2.67,1.38-2.86,5.64C284.3,530.38,284.82,531.86,286.71,532Z" transform="translate(-157.26 -338.73)"/><path class="cls-1" d="M295.6,533.42,294.48,520s0-.33.43-.37l6.35-.52c.11,1.3.11,1.38-.28,1.41l-4.23.35.35,4.17,4-.33c.1,1.2.12,1.46-.28,1.49l-3.58.3.53,6.45s.05.32-.4.36Z" transform="translate(-157.26 -338.73)"/><path class="cls-1" d="M305.76,532.35l-2.57-13.25s0-.33.38-.41l6.25-1.21c.25,1.28.26,1.36-.13,1.43l-4.16.81.8,4.11,3.93-.76c.22,1.18.27,1.43-.12,1.51l-3.53.68,1.23,6.36s.09.31-.36.4Z" transform="translate(-157.26 -338.73)"/><path class="cls-1" d="M321.77,526.78c.4,1.29.43,1.38,0,1.51l-6,1.88-4-12.88a.4.4,0,0,1,.33-.45l6.09-1.9c.39,1.24.43,1.37.05,1.49l-4.05,1.27,1.23,3.94,3.82-1.19c.36,1.17.44,1.41.06,1.53l-3.44,1.07,1.6,5.09Z" transform="translate(-157.26 -338.73)"/><path class="cls-1" d="M331.29,522.76c.55,1.23.59,1.32.2,1.49l-5.79,2.56-5.45-12.34s-.11-.31.28-.49l5.83-2.57c.53,1.19.58,1.32.22,1.48l-3.88,1.71,1.67,3.78,3.66-1.62c.49,1.12.59,1.35.23,1.52L325,519.73l2.15,4.88Z" transform="translate(-157.26 -338.73)"/><path class="cls-1" d="M332.56,508.41c-.13-.2-.07-.4.39-.72l2.18-1.48c1.77-1.2,4-2.1,5.43,0a2.91,2.91,0,0,1-.34,4.07c1-.64,2.89-1.34,4.23.62,1.86,2.74.74,5.17-1.55,6.73l-2.78,1.89Zm4.8,3.11,1.08-.73c.92-.63,1.21-1.68.33-3a1.72,1.72,0,0,0-2.73-.51L335,508Zm3.8,5.61,1-.68c1.1-.75,1.54-2.14.28-4-1.14-1.69-2.09-1.28-3.28-.47l-1,.69Z" transform="translate(-157.26 -338.73)"/><path class="cls-1" d="M354.05,507c.88,1,.95,1.09.62,1.37l-4.76,4.15-8.86-10.18a.4.4,0,0,1,.12-.55L346,497.6c.85,1,.94,1.08.64,1.35l-3.2,2.78,2.72,3.11,3-2.62c.81.92,1,1.11.67,1.38L347.11,506l3.5,4Z" transform="translate(-157.26 -338.73)"/><path class="cls-1" d="M359.77,497.85l-3,3.43,1.74,2.93c.11.2.13.33-.44,1-.19.22-.58.63-.94,1l-7-12.55c-.12-.17,0-.44.34-.8a7,7,0,0,1,.71-.72l13.31,5.39c.19.1.2.28-.37.92-.21.24-.49.56-.88.93ZM355.93,500l2.44-2.76-2.7-1.18a24.75,24.75,0,0,1-3.46-1.81,36.66,36.66,0,0,1,2.22,3.21Z" transform="translate(-157.26 -338.73)"/><path class="cls-1" d="M364.59,488.1c-1-.08-4.41-.63-6.06-.91,1.16.56,4.38,2.53,5.09,3l4,2.61c.26.18.26.18-.91,2l-11.31-7.35c-.2-.13-.21-.3,0-.57l.9-1.38,6.09.4c1.16.11,4.46.64,6.05.91l-.05,0c-1.09-.48-4.28-2.46-5.06-3l-3.89-2.53c-.28-.18-.25-.22.91-2l11.32,7.36c.17.1.18.3,0,.55l-.88,1.36Z" transform="translate(-157.26 -338.73)"/><path class="cls-1" d="M365.45,470.4a1.31,1.31,0,0,1,.62.88,6.09,6.09,0,0,0-1.56,2.16c-.67,1.42-.63,2.56.14,2.92a2.67,2.67,0,0,0,2.29-.28l3.42-1.58c1.7-.74,2.67-.72,3.78-.2,1.81.84,2.88,2.61,1.34,5.89-1,2.2-2.05,2.9-2.55,2.66a1.69,1.69,0,0,1-.8-1,4.89,4.89,0,0,0,1.79-2.19c.8-1.72.37-2.71-.72-3.22-.82-.39-1.57-.33-3,.31L367,478.21c-1.51.62-2.43.69-3.27.29-1.5-.7-1.9-2.65-.64-5.35C364.15,470.85,365,470.17,365.45,470.4Z" transform="translate(-157.26 -338.73)"/></svg>