<svg id="Слой_1" data-name="Слой 1" xmlns="http://www.w3.org/2000/svg" viewBox="0 0 250.92 250.92"><defs><style>.cls-1{fill:#4e4d4d;}.cls-2{fill:#fff;}</style></defs><path class="cls-1" d="M288.84,514.62A125.46,125.46,0,1,1,414.31,389.16,125.6,125.6,0,0,1,288.84,514.62Zm0-245A119.59,119.59,0,1,0,408.43,389.16,119.73,119.73,0,0,0,288.84,269.57Z" transform="translate(-163.38 -263.7)"/><path class="cls-1" d="M399.85,356.09a4.14,4.14,0,0,1-1.74.9l-2.7.66a111.22,111.22,0,1,1-3.72-10.57l.09,0,3.71-.9a4.12,4.12,0,0,1,.86-.1,114.94,114.94,0,1,0,3.5,10Z" transform="translate(-163.38 -263.7)"/><path class="cls-1" d="M182.69,429.31a113.5,113.5,0,0,0,212.31,0Z" transform="translate(-163.38 -263.7)"/><path class="cls-1" d="M399,352.38l-.6-2.48a1.93,1.93,0,0,0-2.33-1.42l-4.36,1.06a15.1,15.1,0,0,0-15.63,3.2c-9.73-1.14-12.53,3.05-12.53,3.05-11.95,0-36.24,8.88-40,10.27a1,1,0,0,0-1.15-.58L305,370.7c-.66-2.87-1-4.83-1-4.83l3.8-9.66h.37a1.68,1.68,0,1,0,0-3.36H269.47a1.68,1.68,0,0,0,0,3.36h.38l3.8,9.66a105.51,105.51,0,0,1-3.41,13.61c-3.55,10.79-7.59,19.81-8.84,29a27.22,27.22,0,0,0,.05,8.21c.54,3.15,1.8,6.87,4.8,7.58a2,2,0,0,1,1.47,1.23l.6,1.63a1.91,1.91,0,0,0,1.36,1.21c2.17.49,8,1.51,19.16,1.51s17-1,19.17-1.51a1.91,1.91,0,0,0,1.36-1.21l.6-1.63a2,2,0,0,1,1.47-1.23c3-.71,4.26-4.43,4.79-7.58a27.22,27.22,0,0,0,.06-8.21c-1.25-9.23-5.29-18.25-8.85-29-.37-1.12-.71-2.24-1-3.33l17.78-2.8a.93.93,0,0,0,.79-.92c3.55-.42,29.62-3.7,40.32-9.26,0,0,4.42,2.43,12.54-3.05a15.1,15.1,0,0,0,15.35-4.35l4.36-1.06A1.93,1.93,0,0,0,399,352.38Z" transform="translate(-163.38 -263.7)"/><path class="cls-2" d="M325.3,366.84a199.57,199.57,0,0,1,25.89-8.32c2.53-.58,5.07-1.12,7.64-1.46,1.59-.2,3.23-.11,4.8-.34,1-.15,1.6-1.2,2.44-1.7a10.41,10.41,0,0,1,3.56-1.24,15.94,15.94,0,0,1,3.38-.25c1.14.05,2.95.59,4-.06s2-1.63,3.2-2.24a12.79,12.79,0,0,1,3.95-1.28,13.84,13.84,0,0,1,6.92.79A13.48,13.48,0,0,0,378.31,353c-1,.82-1.45,1.33-2.83,1.28a37.76,37.76,0,0,0-4-.08,9.4,9.4,0,0,0-6.27,2.44c-1,1-2.49.81-3.82.91a60.47,60.47,0,0,0-8,1.22c-5.13,1.07-10.2,2.47-15.21,4C333.85,364,329.56,365.42,325.3,366.84Z" transform="translate(-163.38 -263.7)"/><path class="cls-2" d="M397.08,351.66a.92.92,0,1,1-.92-.92A.92.92,0,0,1,397.08,351.66Z" transform="translate(-163.38 -263.7)"/><path class="cls-2" d="M269,425.23s2.48.28,6.2.57,8.69.55,13.66.53,10-.21,13.67-.53,6.2-.57,6.2-.57l-1.7.22c-1.08.14-2.63.34-4.49.51-3.72.35-8.69.64-13.68.66s-10-.31-13.68-.66c-1.86-.17-3.4-.37-4.48-.51Z" transform="translate(-163.38 -263.7)"/><path class="cls-2" d="M289.67,412.73c6.22,0,12.43-.25,17.08-.53s7.75-.59,7.75-.59-3.1.23-7.76.44-10.86.42-17.07.39-12.41-.15-17.06-.39-7.76-.44-7.76-.44,3.1.29,7.75.59S283.46,412.71,289.67,412.73Z" transform="translate(-163.38 -263.7)"/><path class="cls-2" d="M306.93,415.53c-4.7.24-11,.43-17.26.4s-12.55-.16-17.25-.4-7.84-.45-7.84-.45,3.13.3,7.83.6,11,.52,17.26.53,12.56-.25,17.27-.53,7.83-.6,7.83-.6S311.64,415.32,306.93,415.53Z" transform="translate(-163.38 -263.7)"/><path class="cls-2" d="M270.32,356.21l5.79,0,12.73,0,12.73,0,5.79,0-5.79.06-12.73,0-12.73,0Z" transform="translate(-163.38 -263.7)"/><path class="cls-2" d="M277,365.79s1.65-.07,4.12-.13l4.22-.08,4.84,0,4.84,0,4.22.08c2.47.06,4.12.13,4.12.13s-1.65.07-4.12.14L295,366l-4.84,0-4.84,0-4.22-.07C278.62,365.86,277,365.79,277,365.79Z" transform="translate(-163.38 -263.7)"/><path class="cls-2" d="M323.66,366.39s.42,1.37.73,2.77.54,2.8.54,2.8-.42-1.37-.73-2.76S323.66,366.39,323.66,366.39Z" transform="translate(-163.38 -263.7)"/><path class="cls-2" d="M265,420.31c-1.69-2.86-1.88-6.86-1.63-10.07a59.28,59.28,0,0,1,2.93-13.46c2.94-9.27,6.66-18.27,8.76-27.8a13.75,13.75,0,0,0,.6-3.22,13.08,13.08,0,0,0-1.18-3.49c-.6-1.68-1.18-3.36-1.7-5.07.63,1.3,1.22,2.62,1.8,3.93.45,1,.88,2.09,1.33,3.13a4.64,4.64,0,0,1,.27,3,91.27,91.27,0,0,1-3.37,13.55c-3.07,9.09-7.22,18.1-8.75,27.63C263.47,412.12,263.18,416.84,265,420.31Z" transform="translate(-163.38 -263.7)"/><path class="cls-1" d="M280.64,316.45a6.92,6.92,0,0,1-.28,3,9.13,9.13,0,0,0-.67,3.34,7.84,7.84,0,0,0,.89,3.29,7.85,7.85,0,0,1,.83,3.62c0,2.36-1.6,4.18-1.71,6.52a9.14,9.14,0,0,0,.66,3.46,7,7,0,0,1,.28,3c-.4-2.36-2-4.15-2.15-6.58a8,8,0,0,1,.76-3.7,7.35,7.35,0,0,0,.62-2.77,7.67,7.67,0,0,0-.72-3.2,8,8,0,0,1-.65-3.61,7.43,7.43,0,0,1,1-3.26A9.39,9.39,0,0,0,280.64,316.45Z" transform="translate(-163.38 -263.7)"/><path class="cls-1" d="M289.54,310.14a11.47,11.47,0,0,1,.1,2.81c-.13,1.32-.61,2.59-.73,3.92a16,16,0,0,0,.13,3.6,21.37,21.37,0,0,0,1,3.53,13.8,13.8,0,0,1,.45,6.29,21.6,21.6,0,0,1-1.1,3.62,12.79,12.79,0,0,0-.56,3.74,22.84,22.84,0,0,0,.66,4.73,11.38,11.38,0,0,1,0,3.59,17.73,17.73,0,0,0-.84-3.22,25.56,25.56,0,0,1-1.27-3.28,14.61,14.61,0,0,1,.47-7.89,13.11,13.11,0,0,0,.27-6.07c-.27-1.29-.79-2.5-1-3.81a13.68,13.68,0,0,1,0-4,15.45,15.45,0,0,1,1.32-4A16.74,16.74,0,0,0,289.54,310.14Z" transform="translate(-163.38 -263.7)"/><path class="cls-1" d="M298.43,316.45a6.92,6.92,0,0,1-.28,3,8.93,8.93,0,0,0-.67,3.34,7.84,7.84,0,0,0,.89,3.29,7.85,7.85,0,0,1,.83,3.62c0,2.36-1.61,4.18-1.71,6.52a9.14,9.14,0,0,0,.66,3.46,7,7,0,0,1,.28,3c-.4-2.36-2-4.15-2.15-6.58a8,8,0,0,1,.76-3.7,7.16,7.16,0,0,0,.61-2.77,7.51,7.51,0,0,0-.71-3.2,7.86,7.86,0,0,1-.65-3.61,7.42,7.42,0,0,1,1-3.26A9.2,9.2,0,0,0,298.43,316.45Z" transform="translate(-163.38 -263.7)"/><path class="cls-1" d="M203.36,411h4.81v1.94h-7.23V396.28H208v1.94h-4.63v5.13h3.83v1.95h-3.83Z" transform="translate(-163.38 -263.7)"/><path class="cls-1" d="M214.85,410.22v-4.07a.93.93,0,0,0-.15-.63.91.91,0,0,0-.62-.14h-2a2.12,2.12,0,0,1-2.42-2.37v-4.39c0-1.56.82-2.34,2.47-2.34h2.61c1.65,0,2.47.78,2.47,2.34v2.45h-2.42V399c0-.32,0-.53-.16-.62a1,1,0,0,0-.64-.15h-1.11a1,1,0,0,0-.64.15c-.11.09-.16.3-.16.62v3.7c0,.32,0,.53.16.62a1,1,0,0,0,.64.15h1.94c1.63,0,2.45.78,2.45,2.34v4.79c0,1.56-.84,2.34-2.51,2.34h-2.58c-1.64,0-2.47-.78-2.47-2.34v-2.45h2.42v2.08a.84.84,0,0,0,.16.62,1,1,0,0,0,.64.15h1.12a.61.61,0,0,0,.77-.77Z" transform="translate(-163.38 -263.7)"/><path class="cls-1" d="M226.39,396.28v1.94H223.6v14.71h-2.39V398.22h-2.8v-1.94Z" transform="translate(-163.38 -263.7)"/><path class="cls-1" d="M228,396.28h5.8c1.65,0,2.47.78,2.47,2.34v12c0,1.56-.82,2.34-2.47,2.34H228Zm5.85,14V398.94a.87.87,0,0,0-.16-.63,1,1,0,0,0-.63-.14h-2.64V411H233a1,1,0,0,0,.63-.15C233.76,410.8,233.81,410.59,233.81,410.27Z" transform="translate(-163.38 -263.7)"/><path class="cls-1" d="M346.47,396.28v16.65h-2.42V398.22h-1.91v-1.94Z" transform="translate(-163.38 -263.7)"/><path class="cls-1" d="M351.34,396.28h2.82c1.66,0,2.5.78,2.5,2.34v12c0,1.56-.84,2.34-2.5,2.34h-2.74c-1.67,0-2.5-.78-2.5-2.34v-2.85h2.39v2.48a.9.9,0,0,0,.15.62,1,1,0,0,0,.65.15h1.36a.61.61,0,0,0,.77-.77v-4.1h-2.9c-1.65,0-2.48-.79-2.48-2.37v-5.13C348.86,397.06,349.69,396.28,351.34,396.28Zm.72,8h2.18V399a.88.88,0,0,0-.15-.62.9.9,0,0,0-.62-.15h-1.41a1,1,0,0,0-.64.15c-.11.09-.16.3-.16.62v4.47a.84.84,0,0,0,.16.61A.9.9,0,0,0,352.06,404.23Z" transform="translate(-163.38 -263.7)"/><path class="cls-1" d="M361.39,396.28h2.82c1.67,0,2.5.78,2.5,2.34v12c0,1.56-.83,2.34-2.5,2.34h-2.74c-1.66,0-2.5-.78-2.5-2.34v-2.85h2.4v2.48a.91.91,0,0,0,.14.62,1,1,0,0,0,.65.15h1.36a.93.93,0,0,0,.63-.15,1,1,0,0,0,.14-.62v-4.1h-2.9c-1.65,0-2.47-.79-2.47-2.37v-5.13C358.92,397.06,359.74,396.28,361.39,396.28Zm.72,8h2.18V399a1,1,0,0,0-.14-.62.93.93,0,0,0-.63-.15h-1.41a1,1,0,0,0-.64.15.87.87,0,0,0-.16.62v4.47a.89.89,0,0,0,.16.61A.91.91,0,0,0,362.11,404.23Z" transform="translate(-163.38 -263.7)"/><path class="cls-1" d="M371.61,403.35h2.92c1.65,0,2.48.79,2.48,2.37v4.87c0,1.56-.83,2.34-2.48,2.34h-2.82c-1.66,0-2.5-.78-2.5-2.34v-12c0-1.56.84-2.34,2.5-2.34h2.74c1.65,0,2.48.78,2.48,2.34v2.87h-2.37V399c0-.32-.05-.53-.16-.62a1,1,0,0,0-.64-.15H372.4a1,1,0,0,0-.63.15c-.11.09-.16.3-.16.62Zm3,6.87V406a.86.86,0,0,0-.16-.61.9.9,0,0,0-.64-.16h-2.2v5a.84.84,0,0,0,.16.62,1,1,0,0,0,.63.15h1.41a1,1,0,0,0,.64-.15A.84.84,0,0,0,374.61,410.22Z" transform="translate(-163.38 -263.7)"/><path class="cls-1" d="M199.93,337.39c-.26-.17-.3-.37,0-.76l1.93-3c2.47-3.8,4.92-4.69,8-2.68,3.68,2.39,3.22,5.69,1.26,8.71l-.69,1.05,6,3.88c.36.23.36.23-1.23,2.68Zm3.77-3.16-1,1.5,6,3.91.86-1.32c1.1-1.69.75-3.16-1.72-4.77C206.29,332.53,204.85,332.45,203.7,334.23Z" transform="translate(-163.38 -263.7)"/><path class="cls-1" d="M209.7,323.42s-.33-.31.09-.76l2.4-2.62c3.07-3.33,5.63-3.8,8.35-1.3,2.1,1.93,2.42,3.94,1.72,5.83a11.77,11.77,0,0,1,7.92,2.7c.3.27.32.44-.6,1.45-.32.34-.75.77-1.21,1.23-3.57-2.75-6.34-3-7.57-3a6.71,6.71,0,0,1-.47.55l-.85.92,5.25,4.83c.31.28.29.31-1.66,2.43Zm4.25-2.49-1.22,1.32,5.28,4.86,1.08-1.16c1.36-1.48,1.26-3-.81-4.9C216.79,319.68,215.38,319.37,214,320.93Z" transform="translate(-163.38 -263.7)"/><path class="cls-1" d="M239.06,318.21c1.12,1.42,1.21,1.52.76,1.88l-6.68,5.28-11.27-14.26a.54.54,0,0,1,.2-.73l6.74-5.32c1.09,1.37,1.2,1.52.78,1.85l-4.48,3.55,3.45,4.36,4.22-3.34c1,1.29,1.24,1.56.82,1.89l-3.81,3,4.45,5.64Z" transform="translate(-163.38 -263.7)"/><path class="cls-1" d="M234.45,301.67c-.2-.38,0-.54.33-.69l1.87-1,6.77,5.51c.87.71,2.26,2,2.41,2.09,0-.11-.35-2-.43-3l-.8-8.25a.56.56,0,0,1,.3-.67l2.09-1.1,8.52,16.08c.2.38.2.38-2.44,1.77l-2.93-5.77c-1.12-2.26-2.78-6.47-3.1-7.23.27,2.11.73,5.66.76,6.34l.21,4.46a.37.37,0,0,1-.25.37l-1.11.59L243,308.24c-.53-.38-3.22-2.78-4.88-4.22v0s2.88,4,4.24,6.54l2.94,5.4c.2.37,0,.46-2.37,1.73Z" transform="translate(-163.38 -263.7)"/><path class="cls-1" d="M254,293.05c-.33-.93-.29-.94,2.46-1.89l5.95,17.18c.13.4.1.41-2.65,1.36Z" transform="translate(-163.38 -263.7)"/><path class="cls-1" d="M268.47,301.45c.4,2.12,1.11,3.5,4.07,2.93a10.2,10.2,0,0,0,3-1.07l-3-15.67c-.09-.44-.05-.45,2.8-1l3.39,17.59a16.8,16.8,0,0,1-5.81,2.11c-5.64,1.09-6.84-1.34-7.43-4.36l-2.41-12.51c-.08-.45-.08-.45,2.88-1Z" transform="translate(-163.38 -263.7)"/><path class="cls-1" d="M283.32,286.22c0-.42.3-.44.62-.43l2.12.06,3.19,8.12c.4,1,1,2.82,1.06,3,0-.11.66-1.9,1.12-2.87l3.38-7.57c.11-.26.22-.45.58-.44l2.37.07-.51,18.18c0,.43,0,.43-3,.35l.29-6.46c.14-2.52.77-7,.87-7.82-.81,2-2.16,5.28-2.47,5.88l-2,4a.36.36,0,0,1-.4.2l-1.26,0-1.75-4.31c-.27-.59-1.43-4-2.16-6.07v0s.51,4.94.46,7.78l-.1,6.14c0,.43-.19.42-2.92.35Z" transform="translate(-163.38 -263.7)"/><path class="cls-1" d="M313.43,289.3c.09-.31.35-.42,1.07-.21l3.41,1c2.75.82,5.57,2.39,4.59,5.68-.84,2.8-3,3.4-4.54,3.11,1.56.55,3.86,1.88,3,4.93-1.29,4.28-4.78,5.17-8.36,4.1l-4.33-1.3Zm-1.81,16.39,1.54.46c1.72.52,3.55-.21,4.43-3.11.78-2.62-.45-3.27-2.3-3.83l-1.59-.47Zm2.62-8.74,1.68.51c1.45.43,2.79-.16,3.39-2.17s-.48-2.9-1.78-3.29l-1.65-.5Z" transform="translate(-163.38 -263.7)"/><path class="cls-1" d="M331.05,313.44c-.79,1.63-.85,1.74-1.37,1.5L322,311.22l8-16.33a.54.54,0,0,1,.75-.14l7.71,3.75c-.76,1.57-.85,1.74-1.33,1.51l-5.13-2.5-2.44,5,4.85,2.35c-.72,1.49-.88,1.8-1.36,1.56l-4.36-2.12-3.14,6.46Z" transform="translate(-163.38 -263.7)"/><path class="cls-1" d="M343.55,318.47l-5-3.61-3.69,2.72c-.26.17-.42.22-1.35-.45-.33-.23-.92-.7-1.44-1.14l15.88-11.1c.22-.18.6,0,1.13.35a10.82,10.82,0,0,1,1.06.86l-5.44,18.53c-.12.28-.35.3-1.29-.37-.35-.25-.81-.59-1.36-1.05Zm-3.36-4.85,4,2.9,1.22-3.78a34,34,0,0,1,2-4.87,48.72,48.72,0,0,1-4,3.4Z" transform="translate(-163.38 -263.7)"/><path class="cls-1" d="M355.79,326.2c.44-1.29,2.28-5.56,3.18-7.63-1.11,1.34-4.73,4.91-5.57,5.68l-4.73,4.41c-.31.29-.31.29-2.29-1.84l13.29-12.38c.23-.21.45-.17.74.14l1.52,1.63-2.51,7.84c-.52,1.46-2.29,5.61-3.16,7.6l.06,0c1-1.28,4.62-4.8,5.53-5.65l4.58-4.26c.33-.3.38-.25,2.33,1.85l-13.3,12.39c-.2.19-.46.14-.73-.15l-1.49-1.61Z" transform="translate(-163.38 -263.7)"/><path class="cls-1" d="M377.86,338.74a1.66,1.66,0,0,1-1.43.07,8.31,8.31,0,0,0-1.34-3.32c-1.14-1.79-2.46-2.57-3.43-1.95s-1.1,1.39-1.33,2.81l-.66,5c-.39,2.46-1.11,3.56-2.5,4.45-2.26,1.44-5,1.39-7.67-2.73-1.77-2.75-1.82-4.42-1.2-4.82a2.34,2.34,0,0,1,1.71-.19,6.62,6.62,0,0,0,1.21,3.61c1.37,2.15,2.82,2.38,4.18,1.51,1-.66,1.5-1.56,1.8-3.62l.66-4.73c.39-2.16,1-3.27,2-3.94,1.89-1.2,4.4-.25,6.56,3.14C378.29,336.94,378.49,338.34,377.86,338.74Z" transform="translate(-163.38 -263.7)"/><path class="cls-2" d="M243.47,461.2c.94,0,1.42.77,1.42,2.31a6.79,6.79,0,0,1-1.35,4.13,9.55,9.55,0,0,1-3.25,2.83,19.81,19.81,0,0,1-4.3,1.63,24.74,24.74,0,0,1-15-.09,15.88,15.88,0,0,1-5.39-2.86,12.71,12.71,0,0,1-3-4,16.08,16.08,0,0,1-1.72-7.26,21.92,21.92,0,0,1,1.12-7.1,21.63,21.63,0,0,1,3.44-6.32,16.17,16.17,0,0,1,6.58-4.83,25.09,25.09,0,0,1,9.88-1.82,26.42,26.42,0,0,1,5,.5,20.18,20.18,0,0,1,4.23,1.25,8.22,8.22,0,0,1,2.92,2.28,5.54,5.54,0,0,1,1.27,3.6,5.7,5.7,0,0,1-1.65,4A6.42,6.42,0,0,1,241.3,451a10.68,10.68,0,0,1-3.89.64c-2.29,0-3.92-.65-4.86-2a2.66,2.66,0,0,1-.6-1.68,1,1,0,0,1,1-1.05,3.78,3.78,0,0,0,2-1.06,2.75,2.75,0,0,0,.89-2,2.09,2.09,0,0,0-.74-1.58,6.23,6.23,0,0,0-4.12-1.2,8.26,8.26,0,0,0-4.9,1.58,10.18,10.18,0,0,0-3.33,4,21.16,21.16,0,0,0-2.24,8.84,11,11,0,0,0,1.72,6.48,10,10,0,0,0,5.31,4,15.94,15.94,0,0,0,4.64.62A13.19,13.19,0,0,0,240,464a9.42,9.42,0,0,0,2.47-2.4A1.21,1.21,0,0,1,243.47,461.2Z" transform="translate(-163.38 -263.7)"/><path class="cls-2" d="M256.33,454.09l-2.8.07c-.57,0-.86-.07-.86-.26s.15-.38.45-.58q4.78-2.83,16.16-2.83a33.92,33.92,0,0,1,6.13.43l.75.15c.6.16.9.33.9.52s-.18.29-.53.39a17.75,17.75,0,0,0-3.89,1.22c-1.24.56-1.87,1-1.87,1.18l.45.34a8,8,0,0,1,5.16,6l.15,1.49a9.39,9.39,0,0,1-4.11,7.83q-4.12,3.07-11.22,3.07a20.72,20.72,0,0,1-6.21-.82,11.2,11.2,0,0,1-3.85-1.85,8.54,8.54,0,0,1-2-2.32,8.18,8.18,0,0,1-.89-3.68,8.09,8.09,0,0,1,1-3.82,7.75,7.75,0,0,1,2.31-2.83,12.08,12.08,0,0,1,3-1.49,11,11,0,0,1,3.37-.72c.84,0,1.27.11,1.27.33l-.45.49a6.89,6.89,0,0,0-2.36,3.26,11.08,11.08,0,0,0-.71,3.58,8.49,8.49,0,0,0,.6,3.1,6.65,6.65,0,0,0,1.35,2.28,5,5,0,0,0,1.72,1.13,7.91,7.91,0,0,0,3,.57,6.47,6.47,0,0,0,3.07-.79,5,5,0,0,0,2.17-2.09,10.06,10.06,0,0,0,1.34-4.94,7.17,7.17,0,0,0-3.18-6.25Q262.54,454.1,256.33,454.09Z" transform="translate(-163.38 -263.7)"/><path class="cls-2" d="M290.15,460.19l.37,9.61a11.26,11.26,0,0,1-1.23,5.35,9.13,9.13,0,0,1-3,3.49,15.51,15.51,0,0,1-6.44,2.78l-1.27.19c-.75,0-1.12-.14-1.12-.43l.37-.72q5.46-4.84,5.47-23.82c0-1.15,0-2-.08-2.6-1.05,0-2.09,0-3.14.15H280c-.54,0-.82-.18-.82-.53l.23-1.83c.05-.28.39-.43,1-.43h2.7v-3.22l.15-4.56a1.85,1.85,0,0,1,.18-.74,4.53,4.53,0,0,1,1.61-1.25,16.58,16.58,0,0,1,4.19-1.54,20.09,20.09,0,0,1,4.75-.69c1.32,0,2,.25,2,.76,0,.19-.22.36-.67.48a5.51,5.51,0,0,0-3.55,2.48q-1.39,2-1.39,6.94v1.34q3.83-.09,5-.24c.35,0,.53.19.53.58a2.33,2.33,0,0,1-.79,1.42,2.63,2.63,0,0,1-1.94.86c-.78,0-1.74,0-2.88,0C290.2,456.43,290.15,458.5,290.15,460.19Z" transform="translate(-163.38 -263.7)"/><path class="cls-2" d="M307.8,460.19l.37,9.61a11.26,11.26,0,0,1-1.23,5.35,9,9,0,0,1-3,3.49,15.47,15.47,0,0,1-6.43,2.78l-1.28.19c-.74,0-1.12-.14-1.12-.43l.38-.72q5.46-4.84,5.46-23.82c0-1.15,0-2-.08-2.6-1,0-2.09,0-3.14.15h-.07c-.55,0-.83-.18-.83-.53l.23-1.83c.05-.28.4-.43,1-.43h2.7v-3.22l.15-4.56a1.85,1.85,0,0,1,.18-.74,4.53,4.53,0,0,1,1.61-1.25,16.73,16.73,0,0,1,4.19-1.54,20.16,20.16,0,0,1,4.75-.69c1.32,0,2,.25,2,.76,0,.19-.23.36-.68.48a5.51,5.51,0,0,0-3.55,2.48q-1.4,2-1.39,6.94v1.34c2.55-.06,4.22-.14,5-.24.34,0,.52.19.52.58a2.33,2.33,0,0,1-.79,1.42,2.63,2.63,0,0,1-1.94.86c-.77,0-1.73,0-2.88,0C307.85,456.43,307.8,458.5,307.8,460.19Z" transform="translate(-163.38 -263.7)"/><path class="cls-2" d="M337.35,466.39a4.8,4.8,0,0,1-1.16,3.19,7.44,7.44,0,0,1-2.62,2,16.47,16.47,0,0,1-3.4,1,24.78,24.78,0,0,1-4.72.48q-6.29,0-9.27-3a10.49,10.49,0,0,1-3-7.71,11.42,11.42,0,0,1,3.7-8.34q3.71-3.65,11.11-3.65,6.74,0,9.12,3a3.49,3.49,0,0,1,1,2.18,7.08,7.08,0,0,1-.15,1.64,6,6,0,0,1-1.05,1.8,9,9,0,0,1-2.4,2.16,17.53,17.53,0,0,1-4.71,1.83,39.7,39.7,0,0,1-7.55,1.15q-.6,0-.6.33a3,3,0,0,0,.48,1.28,6.42,6.42,0,0,0,1.09,1.41,7.53,7.53,0,0,0,4.86,1.35,10.4,10.4,0,0,0,5.46-1.35,6.41,6.41,0,0,0,2-1.77.94.94,0,0,1,.78-.39.9.9,0,0,1,.79.53A1.87,1.87,0,0,1,337.35,466.39ZM321,460l.07,1.2c0,.19.2.29.6.29a15.16,15.16,0,0,0,4.19-.79,8.18,8.18,0,0,0,2.7-1.47,5.83,5.83,0,0,0,1.94-3.07l.08-.58c0-1.73-1.08-2.59-3.22-2.59a5.62,5.62,0,0,0-3.89,1.34A7.08,7.08,0,0,0,321,460Z" transform="translate(-163.38 -263.7)"/><path class="cls-2" d="M364.88,466.39a4.8,4.8,0,0,1-1.16,3.19,7.44,7.44,0,0,1-2.62,2,16.38,16.38,0,0,1-3.41,1,24.6,24.6,0,0,1-4.71.48q-6.28,0-9.27-3a10.5,10.5,0,0,1-3-7.71,11.43,11.43,0,0,1,3.71-8.34q3.7-3.65,11.11-3.65,6.72,0,9.12,3a3.47,3.47,0,0,1,1,2.18,7.08,7.08,0,0,1-.15,1.64,6,6,0,0,1-1,1.8,9,9,0,0,1-2.4,2.16,17.67,17.67,0,0,1-4.71,1.83,39.69,39.69,0,0,1-7.56,1.15c-.39,0-.59.11-.59.33a3,3,0,0,0,.48,1.28,6.42,6.42,0,0,0,1.09,1.41,7.51,7.51,0,0,0,4.86,1.35,10.4,10.4,0,0,0,5.46-1.35,6.41,6.41,0,0,0,1.95-1.77.93.93,0,0,1,.78-.39.9.9,0,0,1,.79.53A1.87,1.87,0,0,1,364.88,466.39ZM348.57,460l.07,1.2c0,.19.2.29.6.29a15.23,15.23,0,0,0,4.19-.79,8,8,0,0,0,2.69-1.47,5.79,5.79,0,0,0,1.95-3.07l.07-.58c0-1.73-1.07-2.59-3.21-2.59a5.61,5.61,0,0,0-3.89,1.34A7.08,7.08,0,0,0,348.57,460Z" transform="translate(-163.38 -263.7)"/></svg>